<svg width="24" height="24" viewBox="0 0 24 24" fill="none" xmlns="http://www.w3.org/2000/svg">
<path d="M12.6462 1.22592L23.6526 10.865C24.0695 11.2523 24.1112 11.8978 23.7776 12.3281C23.4024 12.7584 22.7771 12.8015 22.3602 12.4572L21.3596 11.5535V19.5575C21.3596 21.4939 19.8587 23 18.0243 23H6.01737C4.14129 23 2.68211 21.4939 2.68211 19.5575V11.5535L1.63984 12.4572C1.22293 12.8015 0.597568 12.7584 0.222351 12.3281C-0.111175 11.8978 -0.0694847 11.2523 0.347423 10.865L11.3538 1.22592C11.729 0.924694 12.271 0.924694 12.6462 1.22592ZM19.3584 9.78924L12.0208 3.37751L4.68327 9.78924V19.5575C4.68327 20.332 5.26694 20.9345 6.01737 20.9345H18.0243C18.7331 20.9345 19.3584 20.332 19.3584 19.5575V9.78924Z" fill="#17271F"/>
<path d="M12.8546 8.85938V9.46094C13.1554 9.50391 13.4562 9.58984 13.757 9.67578C14.1866 9.80469 14.4874 10.2773 14.3585 10.707C14.2296 11.1797 13.757 11.4375 13.2843 11.3516C12.8116 11.2227 12.382 11.0938 11.9523 11.0938C11.6085 11.0938 11.2648 11.1797 11.0499 11.3086C10.8351 11.4375 10.7491 11.5664 10.7491 11.7383C10.7491 11.7812 10.7921 11.8672 11.007 11.9961C11.2648 12.168 11.6515 12.2969 12.2101 12.4688H12.2531C12.7257 12.5977 13.3273 12.8125 13.8429 13.1133C14.4015 13.457 14.8741 14.0156 14.8741 14.918C14.9171 15.8203 14.4445 16.4648 13.8429 16.8516C13.4991 17.0234 13.1554 17.1523 12.8116 17.2383V17.7969C12.8116 18.2695 12.4249 18.6562 11.9523 18.6562C11.4796 18.6562 11.0929 18.2695 11.0929 17.7969V17.1953C10.6632 17.0664 10.2765 16.9375 9.88977 16.8086C9.80384 16.7656 9.7179 16.7656 9.63196 16.7227C9.20227 16.5938 8.94446 16.0781 9.11634 15.6484C9.24524 15.1758 9.7179 14.9609 10.1906 15.0898C10.2765 15.1328 10.4054 15.1758 10.4913 15.2188C11.0929 15.3906 11.5226 15.5625 11.9952 15.5625C12.382 15.5625 12.7257 15.5195 12.9406 15.3477C13.1124 15.2617 13.1984 15.1328 13.1554 14.918C13.1554 14.7891 13.1554 14.7031 12.9406 14.5742C12.6398 14.4023 12.2531 14.2734 11.7374 14.1016H11.6515C11.1788 13.9297 10.5773 13.7578 10.1046 13.5C9.58899 13.1562 9.07337 12.5977 9.07337 11.7383C9.0304 10.8359 9.54602 10.1914 10.1476 9.84766C10.4484 9.67578 10.7921 9.54688 11.1359 9.46094V8.85938C11.1359 8.38672 11.5226 8 11.9952 8C12.4679 8 12.8546 8.38672 12.8546 8.85938Z" fill="#FF4A3F"/>
</svg>
