<svg width="200" height="36" viewBox="0 0 200 36" fill="none" xmlns="http://www.w3.org/2000/svg">
<path d="M40.3653 9.97422C33.0997 9.97422 27.4228 15.4896 27.4228 22.8732C27.4228 30.2567 32.9563 35.7249 40.3653 35.7249C47.7742 35.7249 53.404 30.1623 53.404 22.826C53.404 15.5368 47.8704 9.97422 40.3653 9.97422ZM40.4143 30.4038C36.2768 30.4038 33.245 27.1904 33.245 22.875C33.245 18.5106 36.2278 15.299 40.3653 15.299C44.5518 15.299 47.5818 18.5596 47.5818 22.875C47.5818 27.1904 44.5518 30.4038 40.4143 30.4038ZM54.9907 15.5859H58.5999V35.2474H64.3731V10.4535H54.9907V15.5859ZM12.8935 15.2972C15.9253 15.2972 18.3309 17.1671 19.244 19.9484H25.3549C24.2475 14.0028 19.3403 9.97422 12.9425 9.97422C5.67699 9.97422 0 15.4896 0 22.875C0 30.2603 5.53357 35.7267 12.9425 35.7267C19.1968 35.7267 24.2003 31.6982 25.3077 25.7035H19.244C18.3781 28.4848 15.9725 30.4038 12.9407 30.4038C8.75422 30.4038 5.82041 27.1904 5.82041 22.875C5.82223 18.5106 8.70883 15.2972 12.8935 15.2972ZM164.685 20.4767L160.452 19.854C158.431 19.5672 156.988 18.8955 156.988 17.3124C156.988 15.5859 158.865 14.7235 161.414 14.7235C164.204 14.7235 165.985 15.9217 166.37 17.8879H171.951C171.325 12.9008 167.476 9.97604 161.559 9.97604C155.448 9.97604 151.407 13.0932 151.407 17.5048C151.407 21.724 154.054 24.1712 159.393 24.9374L163.627 25.5601C165.697 25.8469 166.851 26.6639 166.851 28.198C166.851 30.1641 164.831 30.9793 162.04 30.9793C158.624 30.9793 156.699 29.5886 156.41 27.479H150.733C151.264 32.3227 155.063 35.7267 161.991 35.7267C168.295 35.7267 172.479 32.8492 172.479 27.9093C172.479 23.4977 169.449 21.1957 164.685 20.4767ZM61.4865 0.239643C59.3697 0.239643 57.7811 1.77372 57.7811 3.8833C57.7811 5.99288 59.3678 7.52696 61.4865 7.52696C63.6034 7.52696 65.1919 5.99288 65.1919 3.8833C65.1919 1.77372 63.6034 0.239643 61.4865 0.239643ZM146.211 18.9427C146.211 13.5725 142.94 9.97604 136.012 9.97604C129.469 9.97604 125.812 13.2856 125.09 18.369H130.816C131.105 16.4028 132.644 14.7725 135.916 14.7725C138.851 14.7725 140.294 16.067 140.294 17.65C140.294 19.7124 137.648 20.2389 134.376 20.5748C129.95 21.0541 124.465 22.5881 124.465 28.3432C124.465 32.8038 127.786 35.6795 133.078 35.6795C137.215 35.6795 139.813 33.953 141.113 31.2189C141.306 33.6644 143.134 35.2474 145.685 35.2474H149.052V30.1169H146.213V18.9427H146.211ZM140.534 25.177C140.534 28.4866 137.648 30.9321 134.135 30.9321C131.969 30.9321 130.141 30.0207 130.141 28.1036C130.141 25.6581 133.076 24.9864 135.77 24.6995C138.368 24.4599 139.812 23.8844 140.534 22.7806V25.177ZM109.887 9.97422C106.663 9.97422 103.969 11.3177 102.044 13.5707V0H96.271V35.2474H101.948V31.9869C103.872 34.3361 106.616 35.7267 109.887 35.7267C116.815 35.7267 122.06 30.2603 122.06 22.875C122.06 15.4896 116.719 9.97422 109.887 9.97422ZM109.021 30.4038C104.884 30.4038 101.852 27.1904 101.852 22.875C101.852 18.5596 104.931 15.299 109.068 15.299C113.255 15.299 116.189 18.5124 116.189 22.875C116.189 27.1904 113.159 30.4038 109.021 30.4038ZM82.4625 9.97422C78.7099 9.97422 76.2554 11.5083 74.8121 13.6669V10.4535H69.0861V35.2456H74.8593V21.7712C74.8593 17.9823 77.2648 15.2972 80.825 15.2972C84.1455 15.2972 86.2133 17.6464 86.2133 21.0522V35.2474H91.9865V20.622C91.9883 14.3858 88.7658 9.97422 82.4625 9.97422ZM200 22.0598C200 14.9631 194.804 9.97604 187.827 9.97604C180.418 9.97604 174.981 15.5387 174.981 22.875C174.981 30.5962 180.803 35.7267 187.923 35.7267C193.938 35.7267 198.653 32.1775 199.855 27.1432H193.84C192.974 29.349 190.857 30.5962 188.018 30.5962C184.312 30.5962 181.522 28.2942 180.898 24.2656H199.998V22.0598H200ZM181.235 20.1409C182.15 16.6878 184.748 15.0103 187.731 15.0103C191.003 15.0103 193.504 16.8803 194.082 20.1409H181.235Z" fill="#0052FF"/>
</svg>
