<svg width="16" height="15" viewBox="0 0 16 15" fill="none" xmlns="http://www.w3.org/2000/svg">
<path d="M8.43081 0.475797L15.7684 6.60978C16.0463 6.85624 16.0741 7.26699 15.8518 7.54083C15.6016 7.81467 15.1847 7.84206 14.9068 7.62298L14.2397 7.04792V12.1413C14.2397 13.3736 13.2391 14.332 12.0162 14.332H4.01158C2.76086 14.332 1.78807 13.3736 1.78807 12.1413V7.04792L1.09323 7.62298C0.815287 7.84206 0.398379 7.81467 0.148234 7.54083C-0.074117 7.26699 -0.0463231 6.85624 0.231616 6.60978L7.5692 0.475797C7.81934 0.284109 8.18066 0.284109 8.43081 0.475797ZM3.12218 12.1413C3.12218 12.6342 3.51129 13.0176 4.01158 13.0176H5.34569V8.85526C5.34569 8.25281 5.81818 7.7599 6.45744 7.7599H9.57035C10.1818 7.7599 10.6821 8.25281 10.6821 8.85526V13.0176H12.0162C12.4887 13.0176 12.9056 12.6342 12.9056 12.1413V5.92519L8.0139 1.84499L3.12218 5.92519V12.1413ZM6.67979 13.0176H9.348V9.07433H6.67979V13.0176Z" fill="#FF4A3F"/>
</svg>
