<svg width="200" height="37" viewBox="0 0 200 37" fill="none" xmlns="http://www.w3.org/2000/svg">
<path d="M37.8379 0L25.1838 4.67519H14.649L1.99483 0L0.03125 5.8284L1.3403 12.0932L0.498769 12.7165L1.74549 13.6515L0.779278 14.3684L2.02599 15.4905L1.2468 16.0515L3.05454 18.1709L0.342929 26.5239L2.86753 35.0639L11.7192 32.664L13.4335 34.0665L16.9243 36.4353H22.9085L26.4305 34.0665L28.1447 32.664L36.9964 35.0639L39.521 26.5239L36.7782 18.1709M36.7471 18.1709L38.5548 16.0826L37.7756 15.5216L39.0223 14.3996L38.0561 13.6827L39.3028 12.7477L38.4925 12.1243L39.8015 5.85957L37.8379 0.0311698" fill="#F5841F"/>
<path d="M176.656 18.3271C175.627 17.6414 174.474 17.1427 173.383 16.5505C172.666 16.1453 171.918 15.8025 171.326 15.3038C170.298 14.4623 170.516 12.7792 171.576 12.0312C173.134 11.0026 175.721 11.5637 176.001 13.6831C176.001 13.7143 176.033 13.7454 176.095 13.7454H178.464C178.526 13.7454 178.557 13.7143 178.557 13.6519C178.432 12.187 177.871 10.9715 176.843 10.1923C175.846 9.44425 174.723 9.03906 173.508 9.03906C167.274 9.03906 166.713 15.6155 170.079 17.7037C170.453 17.9531 173.757 19.605 174.91 20.3218C176.064 21.0387 176.438 22.3478 175.939 23.4075C175.472 24.3425 174.287 24.997 173.103 24.9347C171.794 24.8724 170.796 24.1555 170.453 23.0646C170.391 22.8776 170.36 22.4724 170.36 22.3166C170.36 22.2854 170.329 22.2231 170.266 22.2231H167.711C167.68 22.2231 167.617 22.2543 167.617 22.3166C167.617 24.1555 168.085 25.184 169.331 26.1191C170.516 26.9918 171.794 27.3658 173.134 27.3658C176.625 27.3658 178.432 25.4022 178.775 23.3451C179.025 21.3192 178.432 19.5115 176.656 18.3271Z" fill="#161616"/>
<path d="M67.3189 9.38086H63.4541C63.4229 9.38086 63.3917 9.41203 63.3606 9.44319L61.2723 16.3625C61.2411 16.456 61.1165 16.456 61.0853 16.3625L58.9971 9.44319C58.9971 9.41203 58.9659 9.38086 58.9036 9.38086H55.0076C54.9764 9.38086 54.9141 9.41203 54.9141 9.47436V27.1154C54.9141 27.1466 54.9452 27.2089 55.0076 27.2089H57.5633C57.5945 27.2089 57.6568 27.1777 57.6568 27.1154V13.7132C57.6568 13.6197 57.8127 13.5885 57.8438 13.682L59.9633 20.6325L60.1191 21.1312C60.1191 21.1623 60.1503 21.1935 60.2126 21.1935H62.1762C62.2074 21.1935 62.2385 21.1623 62.2697 21.1312L62.4255 20.6325L64.5449 13.682C64.5761 13.5885 64.732 13.6197 64.732 13.7132V27.1154C64.732 27.1466 64.7631 27.2089 64.8255 27.2089H67.3812C67.4124 27.2089 67.4747 27.1777 67.4747 27.1154V9.47436C67.4124 9.41203 67.3812 9.38086 67.3189 9.38086Z" fill="#161616"/>
<path d="M137.571 9.38086C137.54 9.38086 137.509 9.41203 137.478 9.44319L135.39 16.3625C135.358 16.456 135.234 16.456 135.202 16.3625L133.114 9.44319C133.114 9.41203 133.083 9.38086 133.021 9.38086H129.125C129.094 9.38086 129.031 9.41203 129.031 9.47436V27.1154C129.031 27.1466 129.062 27.2089 129.125 27.2089H131.681C131.712 27.2089 131.774 27.1777 131.774 27.1154V13.7132C131.774 13.6197 131.93 13.5885 131.961 13.682L134.08 20.6325L134.236 21.1312C134.236 21.1623 134.267 21.1935 134.33 21.1935H136.293C136.325 21.1935 136.356 21.1623 136.387 21.1312L136.543 20.6325L138.662 13.682C138.693 13.5885 138.849 13.6197 138.849 13.7132V27.1154C138.849 27.1466 138.88 27.2089 138.943 27.2089H141.498C141.53 27.2089 141.592 27.1777 141.592 27.1154V9.47436C141.592 9.44319 141.561 9.38086 141.498 9.38086H137.571Z" fill="#161616"/>
<path d="M104.655 9.38086H92.5935C92.5623 9.38086 92.5 9.41203 92.5 9.47436V11.6873C92.5 11.7185 92.5312 11.7808 92.5935 11.7808H97.2687V27.1154C97.2687 27.1466 97.2999 27.2089 97.3622 27.2089H99.918C99.9491 27.2089 100.011 27.1777 100.011 27.1154V11.7808H104.687C104.718 11.7808 104.78 11.7496 104.78 11.6873V9.47436C104.749 9.41203 104.718 9.38086 104.655 9.38086Z" fill="#161616"/>
<path d="M113.605 19.3875L115.475 12.4994C115.506 12.4059 115.631 12.4059 115.662 12.4994L117.532 19.3875C117.532 19.4498 117.501 19.5121 117.439 19.5121H113.699C113.636 19.5121 113.574 19.4498 113.605 19.3875ZM119.714 27.1794H122.052C122.114 27.1794 122.145 27.1171 122.145 27.0548L117.345 9.3514C117.345 9.32023 117.314 9.28906 117.252 9.28906H113.917C113.886 9.28906 113.854 9.32023 113.823 9.3514L109.023 27.0548C109.023 27.1171 109.055 27.1794 109.117 27.1794H111.455C111.486 27.1794 111.517 27.1483 111.548 27.1171L112.951 21.9744C112.951 21.9432 112.982 21.9121 113.044 21.9121H118.187C118.218 21.9121 118.249 21.9432 118.28 21.9744L119.683 27.1171C119.621 27.1483 119.683 27.1794 119.714 27.1794Z" fill="#161616"/>
<path d="M153.214 19.3875L155.084 12.4994C155.116 12.4059 155.24 12.4059 155.272 12.4994L157.142 19.3875C157.142 19.4498 157.11 19.5121 157.048 19.5121H153.308C153.246 19.5121 153.183 19.4498 153.214 19.3875ZM159.323 27.1794H161.661C161.723 27.1794 161.754 27.1171 161.754 27.0548L156.955 9.3514C156.955 9.32023 156.923 9.28906 156.861 9.28906H153.526C153.495 9.28906 153.464 9.32023 153.433 9.3514L148.602 27.0548C148.602 27.1171 148.633 27.1794 148.695 27.1794H151.033C151.064 27.1794 151.095 27.1483 151.126 27.1171L152.529 21.9744C152.529 21.9432 152.56 21.9121 152.622 21.9121H157.765C157.796 21.9121 157.827 21.9432 157.858 21.9744L159.261 27.1171C159.23 27.1483 159.261 27.1794 159.323 27.1794Z" fill="#161616"/>
<path d="M77.7896 24.5927V19.1071C77.7896 19.076 77.8208 19.0136 77.8832 19.0136H84.6778C84.7089 19.0136 84.7713 18.9824 84.7713 18.9201V16.7072C84.7713 16.676 84.7401 16.6137 84.6778 16.6137H77.8832C77.852 16.6137 77.7896 16.5825 77.7896 16.5202V11.845C77.7896 11.8138 77.8208 11.7515 77.8832 11.7515H85.6128C85.644 11.7515 85.7063 11.7203 85.7063 11.658V9.44507C85.7063 9.4139 85.6751 9.35156 85.6128 9.35156H75.1404C75.1092 9.35156 75.0469 9.38273 75.0469 9.44507V27.0549C75.0469 27.0861 75.078 27.1484 75.1404 27.1484H85.9245C85.9556 27.1484 86.018 27.1173 86.018 27.0549V24.7173C86.018 24.6862 85.9868 24.6238 85.9245 24.6238H77.852C77.8208 24.6862 77.7896 24.655 77.7896 24.5927Z" fill="#161616"/>
<path d="M199.971 27.0531L191.151 17.9209C191.12 17.8897 191.12 17.8274 191.151 17.7962L199.099 9.5367C199.161 9.47436 199.099 9.38086 199.036 9.38086H195.795C195.764 9.38086 195.764 9.38086 195.732 9.41203L189 16.4248C188.938 16.4871 188.844 16.4248 188.844 16.3625V9.47436C188.844 9.44319 188.813 9.38086 188.751 9.38086H186.195C186.164 9.38086 186.102 9.41203 186.102 9.47436V27.1154C186.102 27.1466 186.133 27.2089 186.195 27.2089H188.751C188.782 27.2089 188.844 27.1777 188.844 27.1154V19.3546C188.844 19.2923 188.938 19.2299 189 19.2923L196.636 27.1777C196.636 27.1777 196.667 27.2089 196.699 27.2089H199.94C199.971 27.2089 200.034 27.0842 199.971 27.0531Z" fill="#161616"/>
<path d="M37.834 0L22.2812 11.3763L25.1799 4.64402L37.834 0Z" fill="#E27625"/>
<path d="M1.96094 0L17.3891 11.4698L14.6151 4.64402L1.96094 0Z" fill="#E27625"/>
<path d="M32.2314 26.3672L28.1172 32.6008L36.9689 35.0319L39.4935 26.4919L32.2314 26.3672Z" fill="#E27625"/>
<path d="M0.3125 26.4919L2.8371 35.0319L11.6888 32.6008L7.57462 26.3672L0.3125 26.4919Z" fill="#E27625"/>
<path d="M11.2201 15.8025L8.75781 19.4803L17.516 19.8855L17.2355 10.5352L11.2201 15.8025Z" fill="#E27625"/>
<path d="M28.5772 15.8023L22.4683 10.4414L22.2812 19.8853L31.0394 19.4801L28.5772 15.8023Z" fill="#E27625"/>
<path d="M11.6875 32.6013L16.986 30.0767L12.4355 26.5547L11.6875 32.6013Z" fill="#E27625"/>
<path d="M22.8125 30.0767L28.111 32.6013L27.363 26.5547L22.8125 30.0767Z" fill="#E27625"/>
<path d="M28.111 32.6008L22.8125 30.0762L23.2489 33.4735L23.1865 34.9072L28.111 32.6008Z" fill="#D7C1B3"/>
<path d="M11.6875 32.6008L16.612 34.9072L16.5809 33.4735L16.986 30.0762L11.6875 32.6008Z" fill="#D7C1B3"/>
<path d="M16.7072 24.3113L12.3125 23.0334L15.3981 21.6309L16.7072 24.3113Z" fill="#2F343B"/>
<path d="M23.0938 24.3113L24.4028 21.6309L27.5196 23.0334L23.0938 24.3113Z" fill="#2F343B"/>
<path d="M11.6845 32.6008L12.4637 26.3672L7.57031 26.4919L11.6845 32.6008Z" fill="#CC6228"/>
<path d="M27.3359 26.3672L28.1151 32.6008L32.2293 26.4919L27.3359 26.3672Z" fill="#CC6228"/>
<path d="M31.0394 19.4805L22.2812 19.8857L23.0916 24.3115L24.4007 21.6311L27.5175 23.0336L31.0394 19.4805Z" fill="#CC6228"/>
<path d="M12.311 23.0336L15.3966 21.6311L16.7056 24.3115L17.516 19.8857L8.75781 19.4805L12.311 23.0336Z" fill="#CC6228"/>
<path d="M8.75781 19.4805L12.4356 26.5556L12.311 23.0336L8.75781 19.4805Z" fill="#E27625"/>
<path d="M27.523 23.0336L27.3672 26.5556L31.045 19.4805L27.523 23.0336Z" fill="#E27625"/>
<path d="M17.5135 19.8848L16.7031 24.3106L17.7317 29.578L17.9498 22.6587L17.5135 19.8848Z" fill="#E27625"/>
<path d="M22.2879 19.8848L21.8516 22.6275L22.0697 29.578L23.0983 24.3106L22.2879 19.8848Z" fill="#E27625"/>
<path d="M23.091 24.3111L22.0625 29.5785L22.8105 30.0771L27.361 26.5552L27.5169 23.0332L23.091 24.3111Z" fill="#F5841F"/>
<path d="M12.3125 23.0332L12.4372 26.5552L16.9877 30.0771L17.7357 29.5785L16.7072 24.3111L12.3125 23.0332Z" fill="#F5841F"/>
<path d="M23.1885 34.908L23.2508 33.4743L22.8456 33.1626H16.9549L16.5809 33.4743L16.612 34.908L11.6875 32.6016L13.4017 34.0041L16.8925 36.404H22.8768L26.3988 34.0041L28.113 32.6016L23.1885 34.908Z" fill="#C0AD9E"/>
<path d="M22.8195 30.0768L22.0715 29.5781H17.7392L16.9911 30.0768L16.5859 33.4741L16.96 33.1624H22.8507L23.2559 33.4741L22.8195 30.0768Z" fill="#2F343B"/>
<path d="M38.49 12.0932L39.799 5.8284L37.8354 0L22.8125 10.9711L28.5786 15.8021L36.7446 18.1709L38.5523 16.0826L37.7731 15.5216L39.0198 14.3996L38.0536 13.6827L39.3003 12.7165L38.49 12.0932Z" fill="#763E1A"/>
<path d="M0 5.8284L1.30905 12.0932L0.467519 12.7165L1.74541 13.6827L0.779198 14.3996L2.02591 15.5216L1.24672 16.0826L3.05446 18.1709L11.2204 15.8021L16.9865 10.9711L1.96358 0L0 5.8284Z" fill="#763E1A"/>
<path d="M36.7487 18.1715L28.5827 15.8027L31.045 19.4805L27.3672 26.5557L32.2294 26.4933H39.4915L36.7487 18.1715Z" fill="#F5841F"/>
<path d="M11.2213 15.8027L3.05528 18.1715L0.3125 26.4933H7.57463L12.4368 26.5557L8.75901 19.4805L11.2213 15.8027Z" fill="#F5841F"/>
<path d="M22.2845 19.8856L22.8143 10.9716L25.1831 4.64453H14.6172L16.9859 10.9716L17.5158 19.8856L17.7028 22.6596L17.734 29.5789H22.0663L22.0975 22.6596L22.2845 19.8856Z" fill="#F5841F"/>
</svg>
