<svg width="1018" height="208" viewBox="0 0 1018 208" fill="none" xmlns="http://www.w3.org/2000/svg">
<g clip-path="url(#clip0_771_66724)">
<path d="M0 24C0 10.7452 10.7452 0 24 0H994C1007.25 0 1018 10.7452 1018 24V208H0V24Z" fill="url(#paint0_radial_771_66724)"/>
<g opacity="0.8">
<g filter="url(#filter0_d_771_66724)">
<ellipse cx="823.12" cy="552.063" rx="823.12" ry="552.063" transform="matrix(0.976587 -0.215122 0.219086 0.975706 -72.7656 -40.4453)" fill="url(#paint1_linear_771_66724)" shape-rendering="crispEdges"/>
</g>
<ellipse cx="999.552" cy="670.395" rx="999.552" ry="670.395" transform="matrix(0.976587 -0.215122 0.219086 0.975706 -271 -117.945)" fill="url(#paint2_linear_771_66724)"/>
<g filter="url(#filter1_d_771_66724)">
<ellipse cx="649.496" cy="435.625" rx="649.496" ry="435.625" transform="matrix(0.976587 -0.215122 0.219086 0.975706 122.297 35.8125)" fill="url(#paint3_linear_771_66724)" shape-rendering="crispEdges"/>
</g>
<g filter="url(#filter2_d_771_66724)">
<ellipse cx="476.123" cy="319.206" rx="476.123" ry="319.206" transform="matrix(0.976587 -0.215122 0.219086 0.975706 317.109 112.109)" fill="url(#paint4_linear_771_66724)" shape-rendering="crispEdges"/>
</g>
<g filter="url(#filter3_d_771_66724)">
<ellipse cx="292.38" cy="196.068" rx="292.38" ry="196.068" transform="matrix(0.976587 -0.215122 0.219086 0.975706 523.531 192.73)" fill="url(#paint5_linear_771_66724)" shape-rendering="crispEdges"/>
</g>
<ellipse cx="239.034" cy="196.068" rx="239.034" ry="196.068" transform="matrix(0.976587 -0.215122 0.219086 0.975706 629.141 320.293)" fill="url(#paint6_linear_771_66724)"/>
<ellipse cx="526.312" cy="390.627" rx="526.312" ry="390.627" transform="matrix(0.976587 -0.215122 0.219086 0.975706 -170.883 -332.559)" fill="url(#paint7_radial_771_66724)"/>
</g>
<circle opacity="0.2" cx="56" cy="46" r="16" fill="white"/>
<path d="M51.5469 45.4688C51.2656 45.7812 51.2656 46.25 51.5469 46.5312L57.5469 52.5312C57.8594 52.8438 58.3281 52.8438 58.6094 52.5312C58.9219 52.25 58.9219 51.7812 58.6094 51.5L53.1406 46.0312L58.6094 40.5312C58.9219 40.25 58.9219 39.7812 58.6094 39.5C58.3281 39.1875 57.8594 39.1875 57.5781 39.5L51.5469 45.4688Z" fill="white"/>
<path d="M46.96 111.264C45.648 111.264 44.504 111.04 43.528 110.592C42.552 110.128 41.664 109.432 40.864 108.504L43.24 106.08C43.768 106.72 44.352 107.224 44.992 107.592C45.632 107.944 46.368 108.12 47.2 108.12C47.984 108.12 48.592 107.976 49.024 107.688C49.456 107.384 49.672 106.96 49.672 106.416C49.672 105.952 49.528 105.576 49.24 105.288C48.968 105 48.6 104.752 48.136 104.544C47.672 104.336 47.16 104.136 46.6 103.944C46.04 103.752 45.48 103.536 44.92 103.296C44.376 103.04 43.872 102.728 43.408 102.36C42.944 101.976 42.568 101.504 42.28 100.944C41.992 100.368 41.848 99.648 41.848 98.784C41.848 97.744 42.096 96.848 42.592 96.096C43.104 95.344 43.8 94.776 44.68 94.392C45.56 93.992 46.568 93.792 47.704 93.792C48.808 93.792 49.84 94 50.8 94.416C51.76 94.832 52.544 95.4 53.152 96.12L50.776 98.544C50.28 98.016 49.776 97.616 49.264 97.344C48.768 97.056 48.224 96.912 47.632 96.912C46.944 96.912 46.408 97.04 46.024 97.296C45.64 97.552 45.448 97.928 45.448 98.424C45.448 98.856 45.592 99.208 45.88 99.48C46.168 99.736 46.544 99.96 47.008 100.152C47.488 100.344 48 100.536 48.544 100.728C49.104 100.92 49.664 101.144 50.224 101.4C50.784 101.656 51.296 101.984 51.76 102.384C52.24 102.768 52.624 103.264 52.912 103.872C53.2 104.464 53.344 105.2 53.344 106.08C53.344 107.696 52.776 108.968 51.64 109.896C50.52 110.808 48.96 111.264 46.96 111.264ZM46.168 109.392H48.808V113.424H46.168V109.392ZM48.808 95.52H46.168V91.632H48.808V95.52ZM60.2449 111V94.296H64.0129V111H60.2449ZM54.9409 97.344V94.056H69.3169V97.344H54.9409ZM74.3011 104.016V101.232H77.8771C78.6291 101.232 79.2051 101.04 79.6051 100.656C80.0211 100.272 80.2291 99.752 80.2291 99.096C80.2291 98.488 80.0291 97.984 79.6291 97.584C79.2291 97.184 78.6531 96.984 77.9011 96.984H74.3011V94.056H78.3331C79.4531 94.056 80.4371 94.272 81.2851 94.704C82.1331 95.12 82.7971 95.704 83.2771 96.456C83.7571 97.208 83.9971 98.072 83.9971 99.048C83.9971 100.04 83.7571 100.912 83.2771 101.664C82.7971 102.4 82.1251 102.976 81.2611 103.392C80.3971 103.808 79.3811 104.016 78.2131 104.016H74.3011ZM71.4211 111V94.056H75.1891V111H71.4211ZM80.6371 111L75.3571 103.704L78.8131 102.768L85.1011 111H80.6371ZM86.7492 111V94.056H90.5172V111H86.7492ZM89.6532 111V107.688H98.0292V111H89.6532ZM107.305 111.264C106.041 111.264 104.865 111.048 103.777 110.616C102.705 110.168 101.761 109.544 100.945 108.744C100.145 107.944 99.5208 107.016 99.0728 105.96C98.6248 104.888 98.4008 103.736 98.4008 102.504C98.4008 101.272 98.6248 100.128 99.0728 99.072C99.5208 98 100.145 97.072 100.945 96.288C101.745 95.504 102.681 94.896 103.753 94.464C104.841 94.016 106.017 93.792 107.281 93.792C108.625 93.792 109.817 94.008 110.857 94.44C111.913 94.872 112.833 95.464 113.617 96.216L111.097 98.76C110.649 98.28 110.105 97.904 109.465 97.632C108.841 97.36 108.113 97.224 107.281 97.224C106.545 97.224 105.865 97.352 105.241 97.608C104.633 97.848 104.105 98.2 103.657 98.664C103.225 99.128 102.881 99.688 102.625 100.344C102.385 101 102.265 101.72 102.265 102.504C102.265 103.304 102.385 104.032 102.625 104.688C102.881 105.344 103.225 105.904 103.657 106.368C104.105 106.832 104.633 107.192 105.241 107.448C105.865 107.704 106.545 107.832 107.281 107.832C108.145 107.832 108.897 107.696 109.537 107.424C110.177 107.152 110.729 106.776 111.193 106.296L113.737 108.84C112.921 109.592 111.985 110.184 110.929 110.616C109.889 111.048 108.681 111.264 107.305 111.264ZM122.196 111.264C120.836 111.264 119.604 110.896 118.5 110.16C117.396 109.424 116.524 108.4 115.884 107.088C115.26 105.76 114.948 104.232 114.948 102.504C114.948 100.76 115.26 99.24 115.884 97.944C116.508 96.632 117.364 95.616 118.452 94.896C119.54 94.16 120.772 93.792 122.148 93.792C123.54 93.792 124.78 94.16 125.868 94.896C126.956 95.616 127.812 96.632 128.436 97.944C129.076 99.256 129.396 100.784 129.396 102.528C129.396 104.272 129.076 105.8 128.436 107.112C127.812 108.424 126.956 109.448 125.868 110.184C124.796 110.904 123.572 111.264 122.196 111.264ZM122.172 107.928C122.876 107.928 123.484 107.728 123.996 107.328C124.508 106.912 124.9 106.304 125.172 105.504C125.46 104.688 125.604 103.696 125.604 102.528C125.604 101.344 125.46 100.352 125.172 99.552C124.9 98.752 124.508 98.152 123.996 97.752C123.484 97.336 122.868 97.128 122.148 97.128C121.46 97.128 120.852 97.328 120.324 97.728C119.812 98.128 119.42 98.728 119.148 99.528C118.876 100.328 118.74 101.32 118.74 102.504C118.74 103.688 118.876 104.68 119.148 105.48C119.42 106.28 119.812 106.888 120.324 107.304C120.852 107.72 121.468 107.928 122.172 107.928Z" fill="white"/>
<path d="M41.312 148V136.896H42.816V148H41.312ZM42.336 148V146.624H48.704V148H42.336ZM42.336 142.976V141.664H48.176V142.976H42.336ZM42.336 138.272V136.896H48.624V138.272H42.336ZM55.8695 148V143.568C55.8695 142.992 55.6882 142.517 55.3255 142.144C54.9628 141.771 54.4935 141.584 53.9175 141.584C53.5335 141.584 53.1922 141.669 52.8935 141.84C52.5948 142.011 52.3602 142.245 52.1895 142.544C52.0188 142.843 51.9335 143.184 51.9335 143.568L51.3415 143.232C51.3415 142.656 51.4695 142.144 51.7255 141.696C51.9815 141.248 52.3388 140.896 52.7975 140.64C53.2562 140.373 53.7735 140.24 54.3495 140.24C54.9255 140.24 55.4322 140.384 55.8695 140.672C56.3175 140.96 56.6695 141.339 56.9255 141.808C57.1815 142.267 57.3095 142.757 57.3095 143.28V148H55.8695ZM50.4935 148V140.4H51.9335V148H50.4935ZM58.2991 151.344C57.8085 151.344 57.3978 151.264 57.0671 151.104C56.7258 150.944 56.4218 150.715 56.1551 150.416L57.0831 149.472C57.2325 149.653 57.3978 149.787 57.5791 149.872C57.7498 149.957 57.9578 150 58.2031 150C58.5231 150 58.8005 149.899 59.0351 149.696C59.2698 149.504 59.3871 149.211 59.3871 148.816V140.4H60.8271V148.8C60.8271 149.355 60.7098 149.819 60.4751 150.192C60.2405 150.565 59.9311 150.848 59.5471 151.04C59.1631 151.243 58.7471 151.344 58.2991 151.344ZM60.1231 138.88C59.8671 138.88 59.6538 138.795 59.4831 138.624C59.3125 138.443 59.2271 138.219 59.2271 137.952C59.2271 137.696 59.3125 137.483 59.4831 137.312C59.6538 137.131 59.8671 137.04 60.1231 137.04C60.3898 137.04 60.6085 137.131 60.7791 137.312C60.9498 137.483 61.0351 137.696 61.0351 137.952C61.0351 138.219 60.9498 138.443 60.7791 138.624C60.6085 138.795 60.3898 138.88 60.1231 138.88ZM66.4186 148.16C65.672 148.16 65 147.984 64.4026 147.632C63.8053 147.28 63.3306 146.805 62.9786 146.208C62.6266 145.6 62.4506 144.923 62.4506 144.176C62.4506 143.44 62.6266 142.779 62.9786 142.192C63.3306 141.595 63.8053 141.12 64.4026 140.768C65 140.416 65.672 140.24 66.4186 140.24C67.1546 140.24 67.8213 140.416 68.4186 140.768C69.0266 141.109 69.5066 141.579 69.8586 142.176C70.2106 142.773 70.3866 143.44 70.3866 144.176C70.3866 144.923 70.2106 145.6 69.8586 146.208C69.5066 146.805 69.0266 147.28 68.4186 147.632C67.8213 147.984 67.1546 148.16 66.4186 148.16ZM66.4186 146.768C66.8986 146.768 67.3253 146.656 67.6986 146.432C68.072 146.208 68.3653 145.904 68.5786 145.52C68.792 145.125 68.8986 144.677 68.8986 144.176C68.8986 143.685 68.7866 143.248 68.5626 142.864C68.3493 142.48 68.056 142.181 67.6826 141.968C67.32 141.744 66.8986 141.632 66.4186 141.632C65.9386 141.632 65.512 141.744 65.1386 141.968C64.7653 142.181 64.472 142.48 64.2586 142.864C64.0453 143.248 63.9386 143.685 63.9386 144.176C63.9386 144.677 64.0453 145.125 64.2586 145.52C64.472 145.904 64.7653 146.208 65.1386 146.432C65.512 146.656 65.9386 146.768 66.4186 146.768ZM74.2083 148.064L70.9123 140.4H72.5123L74.9603 146.4H74.4483L77.0243 140.4H78.6243L75.0723 148.064H74.2083ZM72.0323 151.184L74.2723 146.592L75.0723 148.064L73.6323 151.184H72.0323ZM85.7551 148.064L82.4591 140.4H84.0591L86.5071 146.4H85.9951L88.5711 140.4H90.1711L86.6191 148.064H85.7551ZM83.5791 151.184L85.8191 146.592L86.6191 148.064L85.1791 151.184H83.5791ZM91.2751 148V140.4H92.7151V148H91.2751ZM91.9951 138.88C91.7285 138.88 91.5098 138.795 91.3391 138.624C91.1685 138.443 91.0831 138.219 91.0831 137.952C91.0831 137.696 91.1685 137.483 91.3391 137.312C91.5098 137.131 91.7285 137.04 91.9951 137.04C92.2618 137.04 92.4805 137.131 92.6511 137.312C92.8218 137.483 92.9071 137.696 92.9071 137.952C92.9071 138.219 92.8218 138.443 92.6511 138.624C92.4805 138.795 92.2618 138.88 91.9951 138.88ZM98.3573 148.16C97.5999 148.16 96.9173 147.989 96.3093 147.648C95.7013 147.296 95.2213 146.821 94.8693 146.224C94.5173 145.627 94.3413 144.949 94.3413 144.192C94.3413 143.445 94.5119 142.773 94.8533 142.176C95.2053 141.579 95.6746 141.109 96.2613 140.768C96.8586 140.416 97.5253 140.24 98.2613 140.24C98.9653 140.24 99.5839 140.4 100.117 140.72C100.661 141.04 101.083 141.483 101.381 142.048C101.691 142.613 101.845 143.253 101.845 143.968C101.845 144.075 101.84 144.192 101.829 144.32C101.819 144.437 101.797 144.576 101.765 144.736H95.3493V143.536H100.997L100.469 144C100.469 143.488 100.379 143.056 100.197 142.704C100.016 142.341 99.7599 142.064 99.4293 141.872C99.0986 141.669 98.6986 141.568 98.2293 141.568C97.7386 141.568 97.3066 141.675 96.9333 141.888C96.5599 142.101 96.2719 142.4 96.0693 142.784C95.8666 143.168 95.7653 143.621 95.7653 144.144C95.7653 144.677 95.8719 145.147 96.0853 145.552C96.2986 145.947 96.6026 146.256 96.9973 146.48C97.3919 146.693 97.8453 146.8 98.3573 146.8C98.7839 146.8 99.1733 146.725 99.5253 146.576C99.8879 146.427 100.197 146.203 100.453 145.904L101.381 146.848C101.019 147.275 100.571 147.6 100.037 147.824C99.5146 148.048 98.9546 148.16 98.3573 148.16ZM103.415 148V136.576H104.855V148H103.415ZM110.178 148.16C109.474 148.16 108.845 147.989 108.29 147.648C107.736 147.296 107.293 146.821 106.962 146.224C106.642 145.627 106.482 144.955 106.482 144.208C106.482 143.461 106.642 142.789 106.962 142.192C107.293 141.595 107.736 141.12 108.29 140.768C108.845 140.416 109.474 140.24 110.178 140.24C110.744 140.24 111.256 140.363 111.714 140.608C112.173 140.843 112.541 141.173 112.818 141.6C113.106 142.016 113.266 142.501 113.298 143.056V145.344C113.266 145.888 113.112 146.373 112.834 146.8C112.557 147.227 112.189 147.563 111.73 147.808C111.272 148.043 110.754 148.16 110.178 148.16ZM110.418 146.8C110.898 146.8 111.314 146.688 111.666 146.464C112.029 146.24 112.312 145.936 112.514 145.552C112.717 145.157 112.818 144.709 112.818 144.208C112.818 143.685 112.712 143.232 112.498 142.848C112.296 142.464 112.013 142.16 111.65 141.936C111.298 141.712 110.882 141.6 110.402 141.6C109.922 141.6 109.501 141.712 109.138 141.936C108.776 142.16 108.488 142.469 108.274 142.864C108.072 143.248 107.97 143.691 107.97 144.192C107.97 144.704 108.072 145.157 108.274 145.552C108.488 145.936 108.776 146.24 109.138 146.464C109.512 146.688 109.938 146.8 110.418 146.8ZM114.178 148H112.722V145.952L112.994 144.096L112.722 142.256V136.576H114.178V148ZM123.603 148.16C123.027 148.16 122.504 148.043 122.035 147.808C121.576 147.563 121.208 147.227 120.931 146.8C120.654 146.373 120.499 145.888 120.467 145.344V143.056C120.499 142.501 120.654 142.016 120.931 141.6C121.219 141.173 121.592 140.843 122.051 140.608C122.52 140.363 123.038 140.24 123.603 140.24C124.296 140.24 124.92 140.416 125.475 140.768C126.04 141.12 126.483 141.595 126.803 142.192C127.123 142.789 127.283 143.461 127.283 144.208C127.283 144.955 127.123 145.627 126.803 146.224C126.483 146.821 126.04 147.296 125.475 147.648C124.92 147.989 124.296 148.16 123.603 148.16ZM123.363 146.8C123.843 146.8 124.264 146.688 124.627 146.464C124.99 146.24 125.278 145.936 125.491 145.552C125.704 145.157 125.811 144.704 125.811 144.192C125.811 143.691 125.704 143.243 125.491 142.848C125.278 142.453 124.99 142.149 124.627 141.936C124.264 141.712 123.848 141.6 123.379 141.6C122.899 141.6 122.478 141.712 122.115 141.936C121.752 142.149 121.47 142.453 121.267 142.848C121.064 143.243 120.963 143.696 120.963 144.208C120.963 144.709 121.059 145.157 121.251 145.552C121.454 145.936 121.736 146.24 122.099 146.464C122.472 146.688 122.894 146.8 123.363 146.8ZM119.603 148V136.576H121.043V142.256L120.771 144.096L121.043 145.952V148H119.603ZM131.115 148.064L127.819 140.4H129.419L131.867 146.4H131.355L133.931 140.4H135.531L131.979 148.064H131.115ZM128.939 151.184L131.179 146.592L131.979 148.064L130.539 151.184H128.939ZM142.581 148.16C142.155 148.16 141.749 148.107 141.365 148C140.992 147.883 140.645 147.723 140.325 147.52C140.005 147.307 139.728 147.056 139.493 146.768L140.421 145.84C140.699 146.181 141.019 146.437 141.381 146.608C141.744 146.768 142.149 146.848 142.597 146.848C143.045 146.848 143.392 146.773 143.637 146.624C143.883 146.464 144.005 146.245 144.005 145.968C144.005 145.691 143.904 145.477 143.701 145.328C143.509 145.168 143.259 145.04 142.949 144.944C142.64 144.837 142.309 144.736 141.957 144.64C141.616 144.533 141.291 144.4 140.981 144.24C140.672 144.08 140.416 143.861 140.213 143.584C140.021 143.307 139.925 142.939 139.925 142.48C139.925 142.021 140.037 141.627 140.261 141.296C140.485 140.955 140.795 140.693 141.189 140.512C141.595 140.331 142.08 140.24 142.645 140.24C143.243 140.24 143.771 140.347 144.229 140.56C144.699 140.763 145.083 141.072 145.381 141.488L144.453 142.416C144.24 142.139 143.973 141.925 143.653 141.776C143.344 141.627 142.992 141.552 142.597 141.552C142.181 141.552 141.861 141.627 141.637 141.776C141.424 141.915 141.317 142.112 141.317 142.368C141.317 142.624 141.413 142.821 141.605 142.96C141.797 143.099 142.048 143.216 142.357 143.312C142.677 143.408 143.008 143.509 143.349 143.616C143.691 143.712 144.016 143.845 144.325 144.016C144.635 144.187 144.885 144.416 145.077 144.704C145.28 144.992 145.381 145.371 145.381 145.84C145.381 146.555 145.125 147.12 144.613 147.536C144.112 147.952 143.435 148.16 142.581 148.16ZM148.162 148V137.216H149.602V148H148.162ZM146.29 141.712V140.4H151.474V141.712H146.29ZM155.882 148.16C155.188 148.16 154.559 147.989 153.994 147.648C153.428 147.296 152.98 146.821 152.65 146.224C152.33 145.627 152.17 144.955 152.17 144.208C152.17 143.461 152.33 142.789 152.65 142.192C152.98 141.595 153.423 141.12 153.978 140.768C154.543 140.416 155.178 140.24 155.882 140.24C156.458 140.24 156.97 140.363 157.418 140.608C157.876 140.843 158.244 141.173 158.522 141.6C158.799 142.016 158.954 142.501 158.986 143.056V145.344C158.954 145.888 158.799 146.373 158.522 146.8C158.255 147.227 157.892 147.563 157.434 147.808C156.986 148.043 156.468 148.16 155.882 148.16ZM156.122 146.8C156.836 146.8 157.412 146.56 157.85 146.08C158.287 145.589 158.506 144.965 158.506 144.208C158.506 143.685 158.404 143.232 158.202 142.848C158.01 142.453 157.732 142.149 157.37 141.936C157.007 141.712 156.586 141.6 156.106 141.6C155.626 141.6 155.199 141.712 154.826 141.936C154.463 142.16 154.175 142.469 153.962 142.864C153.759 143.248 153.658 143.691 153.658 144.192C153.658 144.704 153.759 145.157 153.962 145.552C154.175 145.936 154.468 146.24 154.842 146.464C155.215 146.688 155.642 146.8 156.122 146.8ZM158.41 148V145.952L158.682 144.096L158.41 142.256V140.4H159.866V148H158.41ZM166.826 148L163.274 144.112L166.794 140.4H168.538L164.618 144.496L164.682 143.664L168.682 148H166.826ZM161.962 148V136.576H163.402V148H161.962ZM169.666 148V140.4H171.106V148H169.666ZM170.386 138.88C170.119 138.88 169.9 138.795 169.73 138.624C169.559 138.443 169.474 138.219 169.474 137.952C169.474 137.696 169.559 137.483 169.73 137.312C169.9 137.131 170.119 137.04 170.386 137.04C170.652 137.04 170.871 137.131 171.042 137.312C171.212 137.483 171.298 137.696 171.298 137.952C171.298 138.219 171.212 138.443 171.042 138.624C170.871 138.795 170.652 138.88 170.386 138.88ZM178.604 148V143.568C178.604 142.992 178.423 142.517 178.06 142.144C177.697 141.771 177.228 141.584 176.652 141.584C176.268 141.584 175.927 141.669 175.628 141.84C175.329 142.011 175.095 142.245 174.924 142.544C174.753 142.843 174.668 143.184 174.668 143.568L174.076 143.232C174.076 142.656 174.204 142.144 174.46 141.696C174.716 141.248 175.073 140.896 175.532 140.64C175.991 140.373 176.508 140.24 177.084 140.24C177.66 140.24 178.167 140.384 178.604 140.672C179.052 140.96 179.404 141.339 179.66 141.808C179.916 142.267 180.044 142.757 180.044 143.28V148H178.604ZM173.228 148V140.4H174.668V148H173.228ZM185.146 151.344C184.367 151.344 183.674 151.2 183.066 150.912C182.468 150.624 181.988 150.219 181.626 149.696L182.554 148.752C182.863 149.147 183.231 149.445 183.658 149.648C184.084 149.861 184.591 149.968 185.178 149.968C185.956 149.968 186.57 149.76 187.018 149.344C187.476 148.939 187.706 148.389 187.706 147.696V145.808L187.962 144.096L187.706 142.4V140.4H189.146V147.696C189.146 148.421 188.975 149.056 188.634 149.6C188.303 150.144 187.834 150.571 187.226 150.88C186.628 151.189 185.935 151.344 185.146 151.344ZM185.146 147.872C184.452 147.872 183.828 147.707 183.274 147.376C182.73 147.045 182.298 146.592 181.978 146.016C181.658 145.429 181.498 144.773 181.498 144.048C181.498 143.323 181.658 142.677 181.978 142.112C182.298 141.536 182.73 141.083 183.274 140.752C183.828 140.411 184.452 140.24 185.146 140.24C185.743 140.24 186.271 140.357 186.73 140.592C187.188 140.827 187.551 141.157 187.818 141.584C188.095 142 188.244 142.491 188.266 143.056V145.072C188.234 145.627 188.079 146.117 187.802 146.544C187.535 146.96 187.172 147.285 186.714 147.52C186.255 147.755 185.732 147.872 185.146 147.872ZM185.434 146.512C185.903 146.512 186.314 146.411 186.666 146.208C187.028 146.005 187.306 145.723 187.498 145.36C187.69 144.987 187.786 144.555 187.786 144.064C187.786 143.573 187.684 143.147 187.482 142.784C187.29 142.411 187.018 142.123 186.666 141.92C186.314 141.707 185.898 141.6 185.418 141.6C184.938 141.6 184.516 141.707 184.154 141.92C183.791 142.123 183.503 142.411 183.289 142.784C183.087 143.147 182.986 143.568 182.986 144.048C182.986 144.528 183.087 144.955 183.289 145.328C183.503 145.701 183.791 145.995 184.154 146.208C184.527 146.411 184.954 146.512 185.434 146.512ZM198.171 148.16C197.361 148.16 196.651 148 196.043 147.68C195.446 147.36 194.913 146.896 194.443 146.288L195.451 145.28C195.793 145.76 196.187 146.139 196.635 146.416C197.083 146.693 197.611 146.832 198.219 146.832C198.87 146.832 199.393 146.683 199.787 146.384C200.193 146.085 200.395 145.669 200.395 145.136C200.395 144.72 200.299 144.384 200.107 144.128C199.915 143.872 199.659 143.664 199.339 143.504C199.019 143.333 198.667 143.184 198.283 143.056C197.899 142.917 197.515 142.773 197.131 142.624C196.758 142.464 196.411 142.272 196.091 142.048C195.771 141.813 195.515 141.509 195.323 141.136C195.131 140.763 195.035 140.293 195.035 139.728C195.035 139.099 195.185 138.565 195.483 138.128C195.793 137.68 196.209 137.339 196.731 137.104C197.254 136.859 197.841 136.736 198.491 136.736C199.163 136.736 199.777 136.88 200.331 137.168C200.886 137.445 201.345 137.813 201.707 138.272L200.699 139.28C200.369 138.896 200.022 138.597 199.659 138.384C199.297 138.171 198.897 138.064 198.459 138.064C197.841 138.064 197.355 138.197 197.003 138.464C196.651 138.731 196.475 139.12 196.475 139.632C196.475 140.005 196.571 140.309 196.763 140.544C196.966 140.768 197.227 140.96 197.547 141.12C197.878 141.28 198.23 141.429 198.603 141.568C198.987 141.696 199.371 141.84 199.755 142C200.15 142.16 200.507 142.363 200.827 142.608C201.147 142.853 201.403 143.173 201.595 143.568C201.798 143.952 201.899 144.437 201.899 145.024C201.899 146.005 201.563 146.773 200.891 147.328C200.219 147.883 199.313 148.16 198.171 148.16ZM197.947 149.6V135.296H199.003V149.6H197.947ZM207.194 148V137.216H208.698V148H207.194ZM203.418 138.272V136.896H212.458V138.272H203.418ZM215.258 143.168V141.904H218.266C218.916 141.904 219.418 141.739 219.77 141.408C220.122 141.077 220.298 140.629 220.298 140.064C220.298 139.531 220.122 139.088 219.77 138.736C219.428 138.384 218.932 138.208 218.282 138.208H215.258V136.896H218.33C219.034 136.896 219.647 137.035 220.17 137.312C220.692 137.579 221.092 137.947 221.37 138.416C221.658 138.885 221.802 139.424 221.802 140.032C221.802 140.661 221.658 141.211 221.37 141.68C221.092 142.149 220.692 142.517 220.17 142.784C219.647 143.04 219.034 143.168 218.33 143.168H215.258ZM214.25 148V136.896H215.754V148H214.25ZM220.65 148L216.618 143.024L218.042 142.528L222.554 148H220.65ZM224.109 148V136.896H225.613V148H224.109ZM225.133 148V146.624H231.085V148H225.133ZM237.008 148.16C236.208 148.16 235.467 148.016 234.784 147.728C234.102 147.429 233.504 147.019 232.992 146.496C232.491 145.973 232.102 145.365 231.824 144.672C231.547 143.979 231.408 143.237 231.408 142.448C231.408 141.648 231.547 140.901 231.824 140.208C232.102 139.515 232.491 138.912 232.992 138.4C233.504 137.877 234.096 137.472 234.768 137.184C235.451 136.885 236.192 136.736 236.992 136.736C237.867 136.736 238.635 136.885 239.296 137.184C239.958 137.483 240.544 137.888 241.056 138.4L240.016 139.44C239.664 139.045 239.232 138.736 238.72 138.512C238.219 138.288 237.643 138.176 236.992 138.176C236.406 138.176 235.867 138.283 235.376 138.496C234.886 138.699 234.459 138.992 234.096 139.376C233.734 139.76 233.451 140.213 233.248 140.736C233.056 141.259 232.96 141.829 232.96 142.448C232.96 143.067 233.056 143.637 233.248 144.16C233.451 144.683 233.734 145.136 234.096 145.52C234.459 145.904 234.886 146.203 235.376 146.416C235.867 146.619 236.406 146.72 236.992 146.72C237.686 146.72 238.288 146.608 238.8 146.384C239.312 146.149 239.744 145.835 240.096 145.44L241.136 146.464C240.624 146.997 240.022 147.413 239.328 147.712C238.646 148.011 237.872 148.16 237.008 148.16ZM247.587 148.16C246.797 148.16 246.061 148.016 245.379 147.728C244.696 147.429 244.099 147.019 243.587 146.496C243.075 145.963 242.675 145.349 242.387 144.656C242.109 143.963 241.971 143.221 241.971 142.432C241.971 141.632 242.109 140.891 242.387 140.208C242.675 139.515 243.069 138.907 243.571 138.384C244.083 137.861 244.675 137.456 245.347 137.168C246.029 136.88 246.765 136.736 247.555 136.736C248.344 136.736 249.075 136.88 249.747 137.168C250.429 137.456 251.027 137.861 251.539 138.384C252.051 138.907 252.451 139.515 252.739 140.208C253.027 140.901 253.171 141.648 253.171 142.448C253.171 143.237 253.027 143.979 252.739 144.672C252.451 145.365 252.051 145.973 251.539 146.496C251.037 147.019 250.445 147.429 249.763 147.728C249.091 148.016 248.365 148.16 247.587 148.16ZM247.555 146.72C248.355 146.72 249.053 146.539 249.651 146.176C250.259 145.803 250.739 145.296 251.091 144.656C251.443 144.005 251.619 143.264 251.619 142.432C251.619 141.813 251.517 141.248 251.315 140.736C251.112 140.213 250.829 139.76 250.467 139.376C250.104 138.992 249.677 138.699 249.187 138.496C248.696 138.283 248.152 138.176 247.555 138.176C246.765 138.176 246.067 138.357 245.459 138.72C244.861 139.083 244.387 139.584 244.035 140.224C243.693 140.864 243.523 141.6 243.523 142.432C243.523 143.051 243.619 143.627 243.811 144.16C244.013 144.683 244.291 145.136 244.643 145.52C245.005 145.893 245.432 146.187 245.923 146.4C246.424 146.613 246.968 146.72 247.555 146.72ZM262.802 148V137.216H264.242V148H262.802ZM260.93 141.712V140.4H266.114V141.712H260.93ZM272.901 148V143.568C272.901 142.992 272.719 142.517 272.357 142.144C271.994 141.771 271.525 141.584 270.949 141.584C270.565 141.584 270.223 141.669 269.925 141.84C269.626 142.011 269.391 142.245 269.221 142.544C269.05 142.843 268.965 143.184 268.965 143.568L268.373 143.232C268.373 142.656 268.501 142.144 268.757 141.696C269.013 141.248 269.37 140.896 269.829 140.64C270.287 140.373 270.805 140.24 271.381 140.24C271.957 140.24 272.463 140.368 272.901 140.624C273.349 140.88 273.701 141.237 273.957 141.696C274.213 142.155 274.341 142.683 274.341 143.28V148H272.901ZM267.525 148V136.576H268.965V148H267.525ZM276.29 148V140.4H277.73V148H276.29ZM277.73 143.664L277.186 143.424C277.186 142.453 277.41 141.68 277.858 141.104C278.306 140.528 278.952 140.24 279.794 140.24C280.178 140.24 280.525 140.309 280.834 140.448C281.144 140.576 281.432 140.795 281.698 141.104L280.754 142.08C280.594 141.909 280.418 141.787 280.226 141.712C280.034 141.637 279.81 141.6 279.554 141.6C279.021 141.6 278.584 141.771 278.242 142.112C277.901 142.453 277.73 142.971 277.73 143.664ZM285.934 148.16C285.188 148.16 284.516 147.984 283.918 147.632C283.321 147.28 282.846 146.805 282.494 146.208C282.142 145.6 281.966 144.923 281.966 144.176C281.966 143.44 282.142 142.779 282.494 142.192C282.846 141.595 283.321 141.12 283.918 140.768C284.516 140.416 285.188 140.24 285.934 140.24C286.67 140.24 287.337 140.416 287.934 140.768C288.542 141.109 289.022 141.579 289.374 142.176C289.726 142.773 289.902 143.44 289.902 144.176C289.902 144.923 289.726 145.6 289.374 146.208C289.022 146.805 288.542 147.28 287.934 147.632C287.337 147.984 286.67 148.16 285.934 148.16ZM285.934 146.768C286.414 146.768 286.841 146.656 287.214 146.432C287.588 146.208 287.881 145.904 288.094 145.52C288.308 145.125 288.414 144.677 288.414 144.176C288.414 143.685 288.302 143.248 288.078 142.864C287.865 142.48 287.572 142.181 287.198 141.968C286.836 141.744 286.414 141.632 285.934 141.632C285.454 141.632 285.028 141.744 284.654 141.968C284.281 142.181 283.988 142.48 283.774 142.864C283.561 143.248 283.454 143.685 283.454 144.176C283.454 144.677 283.561 145.125 283.774 145.52C283.988 145.904 284.281 146.208 284.654 146.432C285.028 146.656 285.454 146.768 285.934 146.768ZM294.581 148.16C293.962 148.16 293.402 148.021 292.901 147.744C292.41 147.456 292.026 147.061 291.749 146.56C291.471 146.059 291.333 145.477 291.333 144.816V140.4H292.773V144.752C292.773 145.168 292.842 145.531 292.981 145.84C293.13 146.139 293.343 146.368 293.621 146.528C293.898 146.688 294.223 146.768 294.597 146.768C295.162 146.768 295.605 146.592 295.925 146.24C296.245 145.877 296.405 145.381 296.405 144.752V140.4H297.845V144.816C297.845 145.477 297.706 146.059 297.429 146.56C297.151 147.061 296.767 147.456 296.277 147.744C295.797 148.021 295.231 148.16 294.581 148.16ZM302.927 151.344C302.148 151.344 301.455 151.2 300.847 150.912C300.249 150.624 299.769 150.219 299.407 149.696L300.335 148.752C300.644 149.147 301.012 149.445 301.439 149.648C301.865 149.861 302.372 149.968 302.959 149.968C303.737 149.968 304.351 149.76 304.799 149.344C305.257 148.939 305.487 148.389 305.487 147.696V145.808L305.743 144.096L305.487 142.4V140.4H306.927V147.696C306.927 148.421 306.756 149.056 306.415 149.6C306.084 150.144 305.615 150.571 305.007 150.88C304.409 151.189 303.716 151.344 302.927 151.344ZM302.927 147.872C302.233 147.872 301.609 147.707 301.055 147.376C300.511 147.045 300.079 146.592 299.759 146.016C299.439 145.429 299.279 144.773 299.279 144.048C299.279 143.323 299.439 142.677 299.759 142.112C300.079 141.536 300.511 141.083 301.055 140.752C301.609 140.411 302.233 140.24 302.927 140.24C303.524 140.24 304.052 140.357 304.511 140.592C304.969 140.827 305.332 141.157 305.599 141.584C305.876 142 306.025 142.491 306.047 143.056V145.072C306.015 145.627 305.86 146.117 305.583 146.544C305.316 146.96 304.953 147.285 304.495 147.52C304.036 147.755 303.513 147.872 302.927 147.872ZM303.215 146.512C303.684 146.512 304.095 146.411 304.447 146.208C304.809 146.005 305.087 145.723 305.279 145.36C305.471 144.987 305.567 144.555 305.567 144.064C305.567 143.573 305.465 143.147 305.263 142.784C305.071 142.411 304.799 142.123 304.447 141.92C304.095 141.707 303.679 141.6 303.199 141.6C302.719 141.6 302.297 141.707 301.935 141.92C301.572 142.123 301.284 142.411 301.071 142.784C300.868 143.147 300.767 143.568 300.767 144.048C300.767 144.528 300.868 144.955 301.071 145.328C301.284 145.701 301.572 145.995 301.935 146.208C302.308 146.411 302.735 146.512 303.215 146.512ZM314.416 148V143.568C314.416 142.992 314.235 142.517 313.872 142.144C313.51 141.771 313.04 141.584 312.464 141.584C312.08 141.584 311.739 141.669 311.44 141.84C311.142 142.011 310.907 142.245 310.736 142.544C310.566 142.843 310.48 143.184 310.48 143.568L309.888 143.232C309.888 142.656 310.016 142.144 310.272 141.696C310.528 141.248 310.886 140.896 311.344 140.64C311.803 140.373 312.32 140.24 312.896 140.24C313.472 140.24 313.979 140.368 314.416 140.624C314.864 140.88 315.216 141.237 315.472 141.696C315.728 142.155 315.856 142.683 315.856 143.28V148H314.416ZM309.04 148V136.576H310.48V148H309.04ZM324.366 148.16C323.673 148.16 323.043 147.989 322.478 147.648C321.913 147.296 321.465 146.821 321.134 146.224C320.814 145.627 320.654 144.955 320.654 144.208C320.654 143.461 320.814 142.789 321.134 142.192C321.465 141.595 321.907 141.12 322.462 140.768C323.027 140.416 323.662 140.24 324.366 140.24C324.942 140.24 325.454 140.363 325.902 140.608C326.361 140.843 326.729 141.173 327.006 141.6C327.283 142.016 327.438 142.501 327.47 143.056V145.344C327.438 145.888 327.283 146.373 327.006 146.8C326.739 147.227 326.377 147.563 325.918 147.808C325.47 148.043 324.953 148.16 324.366 148.16ZM324.606 146.8C325.321 146.8 325.897 146.56 326.334 146.08C326.771 145.589 326.99 144.965 326.99 144.208C326.99 143.685 326.889 143.232 326.686 142.848C326.494 142.453 326.217 142.149 325.854 141.936C325.491 141.712 325.07 141.6 324.59 141.6C324.11 141.6 323.683 141.712 323.31 141.936C322.947 142.16 322.659 142.469 322.446 142.864C322.243 143.248 322.142 143.691 322.142 144.192C322.142 144.704 322.243 145.157 322.446 145.552C322.659 145.936 322.953 146.24 323.326 146.464C323.699 146.688 324.126 146.8 324.606 146.8ZM326.894 148V145.952L327.166 144.096L326.894 142.256V140.4H328.35V148H326.894ZM334.863 148V139.376C334.863 138.843 334.985 138.352 335.231 137.904C335.476 137.456 335.828 137.099 336.287 136.832C336.756 136.555 337.295 136.416 337.903 136.416V137.76C337.38 137.76 336.98 137.92 336.703 138.24C336.436 138.549 336.303 138.928 336.303 139.376V148H334.863ZM332.991 141.712V140.4H339.983V141.712H332.991ZM339.391 148V136.512H340.831V148H339.391ZM346.467 148.16C345.709 148.16 345.027 147.989 344.419 147.648C343.811 147.296 343.331 146.821 342.979 146.224C342.627 145.627 342.451 144.949 342.451 144.192C342.451 143.445 342.621 142.773 342.963 142.176C343.315 141.579 343.784 141.109 344.371 140.768C344.968 140.416 345.635 140.24 346.371 140.24C347.075 140.24 347.693 140.4 348.227 140.72C348.771 141.04 349.192 141.483 349.491 142.048C349.8 142.613 349.955 143.253 349.955 143.968C349.955 144.075 349.949 144.192 349.939 144.32C349.928 144.437 349.907 144.576 349.875 144.736H343.459V143.536H349.107L348.579 144C348.579 143.488 348.488 143.056 348.307 142.704C348.125 142.341 347.869 142.064 347.539 141.872C347.208 141.669 346.808 141.568 346.339 141.568C345.848 141.568 345.416 141.675 345.043 141.888C344.669 142.101 344.381 142.4 344.179 142.784C343.976 143.168 343.875 143.621 343.875 144.144C343.875 144.677 343.981 145.147 344.195 145.552C344.408 145.947 344.712 146.256 345.107 146.48C345.501 146.693 345.955 146.8 346.467 146.8C346.893 146.8 347.283 146.725 347.635 146.576C347.997 146.427 348.307 146.203 348.563 145.904L349.491 146.848C349.128 147.275 348.68 147.6 348.147 147.824C347.624 148.048 347.064 148.16 346.467 148.16ZM356.282 148L353.914 144.672L353.642 144.416L350.65 140.4H352.394L354.554 143.36L354.826 143.584L358.026 148H356.282ZM350.506 148L353.642 143.776L354.458 144.832L352.202 148H350.506ZM354.938 144.4L354.106 143.376L356.202 140.4H357.882L354.938 144.4ZM359.369 148V140.4H360.809V148H359.369ZM360.089 138.88C359.822 138.88 359.604 138.795 359.433 138.624C359.262 138.443 359.177 138.219 359.177 137.952C359.177 137.696 359.262 137.483 359.433 137.312C359.604 137.131 359.822 137.04 360.089 137.04C360.356 137.04 360.574 137.131 360.745 137.312C360.916 137.483 361.001 137.696 361.001 137.952C361.001 138.219 360.916 138.443 360.745 138.624C360.574 138.795 360.356 138.88 360.089 138.88ZM366.931 148.16C366.355 148.16 365.832 148.043 365.363 147.808C364.904 147.563 364.536 147.227 364.259 146.8C363.982 146.373 363.827 145.888 363.795 145.344V143.056C363.827 142.501 363.982 142.016 364.259 141.6C364.547 141.173 364.92 140.843 365.379 140.608C365.848 140.363 366.366 140.24 366.931 140.24C367.624 140.24 368.248 140.416 368.803 140.768C369.368 141.12 369.811 141.595 370.131 142.192C370.451 142.789 370.611 143.461 370.611 144.208C370.611 144.955 370.451 145.627 370.131 146.224C369.811 146.821 369.368 147.296 368.803 147.648C368.248 147.989 367.624 148.16 366.931 148.16ZM366.691 146.8C367.171 146.8 367.592 146.688 367.955 146.464C368.318 146.24 368.606 145.936 368.819 145.552C369.032 145.157 369.139 144.704 369.139 144.192C369.139 143.691 369.032 143.243 368.819 142.848C368.606 142.453 368.318 142.149 367.955 141.936C367.592 141.712 367.176 141.6 366.707 141.6C366.227 141.6 365.806 141.712 365.443 141.936C365.08 142.149 364.798 142.453 364.595 142.848C364.392 143.243 364.291 143.696 364.291 144.208C364.291 144.709 364.387 145.157 364.579 145.552C364.782 145.936 365.064 146.24 365.427 146.464C365.8 146.688 366.222 146.8 366.691 146.8ZM362.931 148V136.576H364.371V142.256L364.099 144.096L364.371 145.952V148H362.931ZM372.243 148V136.576H373.684V148H372.243ZM379.31 148.16C378.553 148.16 377.87 147.989 377.262 147.648C376.654 147.296 376.174 146.821 375.822 146.224C375.47 145.627 375.294 144.949 375.294 144.192C375.294 143.445 375.465 142.773 375.806 142.176C376.158 141.579 376.628 141.109 377.214 140.768C377.812 140.416 378.478 140.24 379.214 140.24C379.918 140.24 380.537 140.4 381.07 140.72C381.614 141.04 382.036 141.483 382.334 142.048C382.644 142.613 382.798 143.253 382.798 143.968C382.798 144.075 382.793 144.192 382.782 144.32C382.772 144.437 382.75 144.576 382.718 144.736H376.302V143.536H381.95L381.422 144C381.422 143.488 381.332 143.056 381.15 142.704C380.969 142.341 380.713 142.064 380.382 141.872C380.052 141.669 379.652 141.568 379.182 141.568C378.692 141.568 378.26 141.675 377.886 141.888C377.513 142.101 377.225 142.4 377.022 142.784C376.82 143.168 376.718 143.621 376.718 144.144C376.718 144.677 376.825 145.147 377.038 145.552C377.252 145.947 377.556 146.256 377.95 146.48C378.345 146.693 378.798 146.8 379.31 146.8C379.737 146.8 380.126 146.725 380.478 146.576C380.841 146.427 381.15 146.203 381.406 145.904L382.334 146.848C381.972 147.275 381.524 147.6 380.99 147.824C380.468 148.048 379.908 148.16 379.31 148.16ZM391.169 148.16C390.422 148.16 389.75 147.984 389.153 147.632C388.555 147.28 388.081 146.805 387.729 146.208C387.377 145.6 387.201 144.923 387.201 144.176C387.201 143.44 387.377 142.779 387.729 142.192C388.081 141.595 388.555 141.12 389.153 140.768C389.75 140.416 390.422 140.24 391.169 140.24C391.905 140.24 392.571 140.416 393.169 140.768C393.777 141.109 394.257 141.579 394.609 142.176C394.961 142.773 395.137 143.44 395.137 144.176C395.137 144.923 394.961 145.6 394.609 146.208C394.257 146.805 393.777 147.28 393.169 147.632C392.571 147.984 391.905 148.16 391.169 148.16ZM391.169 146.768C391.649 146.768 392.075 146.656 392.449 146.432C392.822 146.208 393.115 145.904 393.329 145.52C393.542 145.125 393.649 144.677 393.649 144.176C393.649 143.685 393.537 143.248 393.313 142.864C393.099 142.48 392.806 142.181 392.433 141.968C392.07 141.744 391.649 141.632 391.169 141.632C390.689 141.632 390.262 141.744 389.889 141.968C389.515 142.181 389.222 142.48 389.009 142.864C388.795 143.248 388.689 143.685 388.689 144.176C388.689 144.677 388.795 145.125 389.009 145.52C389.222 145.904 389.515 146.208 389.889 146.432C390.262 146.656 390.689 146.768 391.169 146.768ZM396.759 148V140.4H398.199V148H396.759ZM398.199 143.664L397.655 143.424C397.655 142.453 397.879 141.68 398.327 141.104C398.775 140.528 399.42 140.24 400.263 140.24C400.647 140.24 400.994 140.309 401.303 140.448C401.612 140.576 401.9 140.795 402.167 141.104L401.223 142.08C401.063 141.909 400.887 141.787 400.695 141.712C400.503 141.637 400.279 141.6 400.023 141.6C399.49 141.6 399.052 141.771 398.711 142.112C398.37 142.453 398.199 142.971 398.199 143.664ZM410.022 148.16C409.329 148.16 408.7 147.989 408.134 147.648C407.569 147.296 407.121 146.821 406.79 146.224C406.47 145.627 406.31 144.955 406.31 144.208C406.31 143.461 406.47 142.789 406.79 142.192C407.121 141.595 407.564 141.12 408.118 140.768C408.684 140.416 409.318 140.24 410.022 140.24C410.598 140.24 411.11 140.363 411.558 140.608C412.017 140.843 412.385 141.173 412.662 141.6C412.94 142.016 413.094 142.501 413.126 143.056V145.344C413.094 145.888 412.94 146.373 412.662 146.8C412.396 147.227 412.033 147.563 411.574 147.808C411.126 148.043 410.609 148.16 410.022 148.16ZM410.262 146.8C410.977 146.8 411.553 146.56 411.99 146.08C412.428 145.589 412.646 144.965 412.646 144.208C412.646 143.685 412.545 143.232 412.342 142.848C412.15 142.453 411.873 142.149 411.51 141.936C411.148 141.712 410.726 141.6 410.246 141.6C409.766 141.6 409.34 141.712 408.966 141.936C408.604 142.16 408.316 142.469 408.102 142.864C407.9 143.248 407.798 143.691 407.798 144.192C407.798 144.704 407.9 145.157 408.102 145.552C408.316 145.936 408.609 146.24 408.982 146.464C409.356 146.688 409.782 146.8 410.262 146.8ZM412.55 148V145.952L412.822 144.096L412.55 142.256V140.4H414.006V148H412.55ZM419.431 148V136.576H420.871V148H419.431ZM426.45 148.16C425.703 148.16 425.031 147.984 424.434 147.632C423.837 147.28 423.362 146.805 423.01 146.208C422.658 145.6 422.482 144.923 422.482 144.176C422.482 143.44 422.658 142.779 423.01 142.192C423.362 141.595 423.837 141.12 424.434 140.768C425.031 140.416 425.703 140.24 426.45 140.24C427.186 140.24 427.853 140.416 428.45 140.768C429.058 141.109 429.538 141.579 429.89 142.176C430.242 142.773 430.418 143.44 430.418 144.176C430.418 144.923 430.242 145.6 429.89 146.208C429.538 146.805 429.058 147.28 428.45 147.632C427.853 147.984 427.186 148.16 426.45 148.16ZM426.45 146.768C426.93 146.768 427.357 146.656 427.73 146.432C428.103 146.208 428.397 145.904 428.61 145.52C428.823 145.125 428.93 144.677 428.93 144.176C428.93 143.685 428.818 143.248 428.594 142.864C428.381 142.48 428.087 142.181 427.714 141.968C427.351 141.744 426.93 141.632 426.45 141.632C425.97 141.632 425.543 141.744 425.17 141.968C424.797 142.181 424.503 142.48 424.29 142.864C424.077 143.248 423.97 143.685 423.97 144.176C423.97 144.677 424.077 145.125 424.29 145.52C424.503 145.904 424.797 146.208 425.17 146.432C425.543 146.656 425.97 146.768 426.45 146.768ZM435.512 148.16C434.766 148.16 434.088 147.984 433.48 147.632C432.883 147.28 432.408 146.805 432.056 146.208C431.715 145.6 431.544 144.928 431.544 144.192C431.544 143.445 431.715 142.773 432.056 142.176C432.408 141.579 432.883 141.109 433.48 140.768C434.088 140.416 434.766 140.24 435.512 140.24C436.099 140.24 436.643 140.352 437.144 140.576C437.646 140.789 438.078 141.104 438.44 141.52L437.48 142.48C437.246 142.203 436.958 141.995 436.616 141.856C436.286 141.707 435.918 141.632 435.512 141.632C435.032 141.632 434.606 141.744 434.232 141.968C433.859 142.181 433.566 142.48 433.352 142.864C433.139 143.248 433.032 143.691 433.032 144.192C433.032 144.693 433.139 145.136 433.352 145.52C433.566 145.904 433.859 146.208 434.232 146.432C434.606 146.656 435.032 146.768 435.512 146.768C435.918 146.768 436.286 146.699 436.616 146.56C436.958 146.411 437.251 146.197 437.496 145.92L438.44 146.88C438.088 147.285 437.656 147.6 437.144 147.824C436.643 148.048 436.099 148.16 435.512 148.16ZM444.733 148L441.181 144.112L444.701 140.4H446.445L442.525 144.496L442.589 143.664L446.589 148H444.733ZM439.868 148V136.576H441.309V148H439.868ZM450.92 148.16C450.162 148.16 449.48 147.989 448.872 147.648C448.264 147.296 447.784 146.821 447.432 146.224C447.08 145.627 446.904 144.949 446.904 144.192C446.904 143.445 447.074 142.773 447.416 142.176C447.768 141.579 448.237 141.109 448.824 140.768C449.421 140.416 450.088 140.24 450.824 140.24C451.528 140.24 452.146 140.4 452.68 140.72C453.224 141.04 453.645 141.483 453.944 142.048C454.253 142.613 454.408 143.253 454.408 143.968C454.408 144.075 454.402 144.192 454.392 144.32C454.381 144.437 454.36 144.576 454.328 144.736H447.912V143.536H453.56L453.032 144C453.032 143.488 452.941 143.056 452.76 142.704C452.578 142.341 452.322 142.064 451.992 141.872C451.661 141.669 451.261 141.568 450.792 141.568C450.301 141.568 449.869 141.675 449.496 141.888C449.122 142.101 448.834 142.4 448.632 142.784C448.429 143.168 448.328 143.621 448.328 144.144C448.328 144.677 448.434 145.147 448.648 145.552C448.861 145.947 449.165 146.256 449.56 146.48C449.954 146.693 450.408 146.8 450.92 146.8C451.346 146.8 451.736 146.725 452.088 146.576C452.45 146.427 452.76 146.203 453.016 145.904L453.944 146.848C453.581 147.275 453.133 147.6 452.6 147.824C452.077 148.048 451.517 148.16 450.92 148.16ZM459.194 148.16C458.49 148.16 457.861 147.989 457.306 147.648C456.751 147.296 456.309 146.821 455.978 146.224C455.658 145.627 455.498 144.955 455.498 144.208C455.498 143.461 455.658 142.789 455.978 142.192C456.309 141.595 456.751 141.12 457.306 140.768C457.861 140.416 458.49 140.24 459.194 140.24C459.759 140.24 460.271 140.363 460.73 140.608C461.189 140.843 461.557 141.173 461.834 141.6C462.122 142.016 462.282 142.501 462.314 143.056V145.344C462.282 145.888 462.127 146.373 461.85 146.8C461.573 147.227 461.205 147.563 460.746 147.808C460.287 148.043 459.77 148.16 459.194 148.16ZM459.434 146.8C459.914 146.8 460.33 146.688 460.682 146.464C461.045 146.24 461.327 145.936 461.53 145.552C461.733 145.157 461.834 144.709 461.834 144.208C461.834 143.685 461.727 143.232 461.514 142.848C461.311 142.464 461.029 142.16 460.666 141.936C460.314 141.712 459.898 141.6 459.418 141.6C458.938 141.6 458.517 141.712 458.154 141.936C457.791 142.16 457.503 142.469 457.29 142.864C457.087 143.248 456.986 143.691 456.986 144.192C456.986 144.704 457.087 145.157 457.29 145.552C457.503 145.936 457.791 146.24 458.154 146.464C458.527 146.688 458.954 146.8 459.434 146.8ZM463.194 148H461.738V145.952L462.01 144.096L461.738 142.256V136.576H463.194V148ZM472.619 148.16C472.043 148.16 471.52 148.043 471.051 147.808C470.592 147.563 470.224 147.227 469.947 146.8C469.669 146.373 469.515 145.888 469.483 145.344V143.056C469.515 142.501 469.669 142.016 469.947 141.6C470.235 141.173 470.608 140.843 471.067 140.608C471.536 140.363 472.053 140.24 472.619 140.24C473.312 140.24 473.936 140.416 474.491 140.768C475.056 141.12 475.499 141.595 475.819 142.192C476.139 142.789 476.299 143.461 476.299 144.208C476.299 144.955 476.139 145.627 475.819 146.224C475.499 146.821 475.056 147.296 474.491 147.648C473.936 147.989 473.312 148.16 472.619 148.16ZM472.379 146.8C472.859 146.8 473.28 146.688 473.643 146.464C474.005 146.24 474.293 145.936 474.507 145.552C474.72 145.157 474.827 144.704 474.827 144.192C474.827 143.691 474.72 143.243 474.507 142.848C474.293 142.453 474.005 142.149 473.643 141.936C473.28 141.712 472.864 141.6 472.395 141.6C471.915 141.6 471.493 141.712 471.131 141.936C470.768 142.149 470.485 142.453 470.283 142.848C470.08 143.243 469.979 143.696 469.979 144.208C469.979 144.709 470.075 145.157 470.267 145.552C470.469 145.936 470.752 146.24 471.115 146.464C471.488 146.688 471.909 146.8 472.379 146.8ZM468.618 151.184V140.4H470.059V142.4L469.787 144.24L470.059 146.096V151.184H468.618ZM481.403 148.16C480.656 148.16 479.984 147.984 479.387 147.632C478.79 147.28 478.315 146.805 477.963 146.208C477.611 145.6 477.435 144.923 477.435 144.176C477.435 143.44 477.611 142.779 477.963 142.192C478.315 141.595 478.79 141.12 479.387 140.768C479.984 140.416 480.656 140.24 481.403 140.24C482.139 140.24 482.806 140.416 483.403 140.768C484.011 141.109 484.491 141.579 484.843 142.176C485.195 142.773 485.371 143.44 485.371 144.176C485.371 144.923 485.195 145.6 484.843 146.208C484.491 146.805 484.011 147.28 483.403 147.632C482.806 147.984 482.139 148.16 481.403 148.16ZM481.403 146.768C481.883 146.768 482.31 146.656 482.683 146.432C483.056 146.208 483.35 145.904 483.563 145.52C483.776 145.125 483.883 144.677 483.883 144.176C483.883 143.685 483.771 143.248 483.547 142.864C483.334 142.48 483.04 142.181 482.667 141.968C482.304 141.744 481.883 141.632 481.403 141.632C480.923 141.632 480.496 141.744 480.123 141.968C479.75 142.181 479.456 142.48 479.243 142.864C479.03 143.248 478.923 143.685 478.923 144.176C478.923 144.677 479.03 145.125 479.243 145.52C479.456 145.904 479.75 146.208 480.123 146.432C480.496 146.656 480.923 146.768 481.403 146.768ZM490.466 148.16C489.719 148.16 489.047 147.984 488.45 147.632C487.852 147.28 487.378 146.805 487.026 146.208C486.674 145.6 486.498 144.923 486.498 144.176C486.498 143.44 486.674 142.779 487.026 142.192C487.378 141.595 487.852 141.12 488.45 140.768C489.047 140.416 489.719 140.24 490.466 140.24C491.202 140.24 491.868 140.416 492.466 140.768C493.074 141.109 493.554 141.579 493.906 142.176C494.258 142.773 494.434 143.44 494.434 144.176C494.434 144.923 494.258 145.6 493.906 146.208C493.554 146.805 493.074 147.28 492.466 147.632C491.868 147.984 491.202 148.16 490.466 148.16ZM490.466 146.768C490.946 146.768 491.372 146.656 491.746 146.432C492.119 146.208 492.412 145.904 492.626 145.52C492.839 145.125 492.946 144.677 492.946 144.176C492.946 143.685 492.834 143.248 492.61 142.864C492.396 142.48 492.103 142.181 491.73 141.968C491.367 141.744 490.946 141.632 490.466 141.632C489.986 141.632 489.559 141.744 489.186 141.968C488.812 142.181 488.519 142.48 488.306 142.864C488.092 143.248 487.986 143.685 487.986 144.176C487.986 144.677 488.092 145.125 488.306 145.52C488.519 145.904 488.812 146.208 489.186 146.432C489.559 146.656 489.986 146.768 490.466 146.768ZM496.056 148V136.576H497.496V148H496.056ZM500.867 148.16C500.568 148.16 500.318 148.059 500.115 147.856C499.923 147.643 499.827 147.392 499.827 147.104C499.827 146.805 499.923 146.56 500.115 146.368C500.318 146.165 500.568 146.064 500.867 146.064C501.166 146.064 501.411 146.165 501.603 146.368C501.806 146.56 501.907 146.805 501.907 147.104C501.907 147.392 501.806 147.643 501.603 147.856C501.411 148.059 501.166 148.16 500.867 148.16Z" fill="#F6F6F2"/>
</g>
<defs>
<filter id="filter0_d_771_66724" x="-10.9766" y="-300.027" width="1726.02" height="1234.32" filterUnits="userSpaceOnUse" color-interpolation-filters="sRGB">
<feFlood flood-opacity="0" result="BackgroundImageFix"/>
<feColorMatrix in="SourceAlpha" type="matrix" values="0 0 0 0 0 0 0 0 0 0 0 0 0 0 0 0 0 0 127 0" result="hardAlpha"/>
<feOffset dy="-4"/>
<feGaussianBlur stdDeviation="25"/>
<feComposite in2="hardAlpha" operator="out"/>
<feColorMatrix type="matrix" values="0 0 0 0 0.933333 0 0 0 0 0.207843 0 0 0 0 0.219608 0 0 0 0.2 0"/>
<feBlend mode="normal" in2="BackgroundImageFix" result="effect1_dropShadow_771_66724"/>
<feBlend mode="normal" in="SourceGraphic" in2="effect1_dropShadow_771_66724" result="shape"/>
</filter>
<filter id="filter1_d_771_66724" x="160.508" y="-180.406" width="1383.03" height="995.078" filterUnits="userSpaceOnUse" color-interpolation-filters="sRGB">
<feFlood flood-opacity="0" result="BackgroundImageFix"/>
<feColorMatrix in="SourceAlpha" type="matrix" values="0 0 0 0 0 0 0 0 0 0 0 0 0 0 0 0 0 0 127 0" result="hardAlpha"/>
<feOffset dy="-4"/>
<feGaussianBlur stdDeviation="25"/>
<feComposite in2="hardAlpha" operator="out"/>
<feColorMatrix type="matrix" values="0 0 0 0 0.933333 0 0 0 0 0.207843 0 0 0 0 0.219608 0 0 0 0.2 0"/>
<feBlend mode="normal" in2="BackgroundImageFix" result="effect1_dropShadow_771_66724"/>
<feBlend mode="normal" in="SourceGraphic" in2="effect1_dropShadow_771_66724" result="shape"/>
</filter>
<filter id="filter2_d_771_66724" x="331.75" y="-60.8125" width="1040.54" height="755.898" filterUnits="userSpaceOnUse" color-interpolation-filters="sRGB">
<feFlood flood-opacity="0" result="BackgroundImageFix"/>
<feColorMatrix in="SourceAlpha" type="matrix" values="0 0 0 0 0 0 0 0 0 0 0 0 0 0 0 0 0 0 127 0" result="hardAlpha"/>
<feOffset dy="-4"/>
<feGaussianBlur stdDeviation="25"/>
<feComposite in2="hardAlpha" operator="out"/>
<feColorMatrix type="matrix" values="0 0 0 0 0.952941 0 0 0 0 0.423529 0 0 0 0 0.141176 0 0 0 0.6 0"/>
<feBlend mode="normal" in2="BackgroundImageFix" result="effect1_dropShadow_771_66724"/>
<feBlend mode="normal" in="SourceGraphic" in2="effect1_dropShadow_771_66724" result="shape"/>
</filter>
<filter id="filter3_d_771_66724" x="513.234" y="65.7031" width="677.57" height="502.867" filterUnits="userSpaceOnUse" color-interpolation-filters="sRGB">
<feFlood flood-opacity="0" result="BackgroundImageFix"/>
<feColorMatrix in="SourceAlpha" type="matrix" values="0 0 0 0 0 0 0 0 0 0 0 0 0 0 0 0 0 0 127 0" result="hardAlpha"/>
<feOffset dy="-4"/>
<feGaussianBlur stdDeviation="25"/>
<feComposite in2="hardAlpha" operator="out"/>
<feColorMatrix type="matrix" values="0 0 0 0 0.0313726 0 0 0 0 0.541176 0 0 0 0 0.709804 0 0 0 0.2 0"/>
<feBlend mode="normal" in2="BackgroundImageFix" result="effect1_dropShadow_771_66724"/>
<feBlend mode="normal" in="SourceGraphic" in2="effect1_dropShadow_771_66724" result="shape"/>
</filter>
<radialGradient id="paint0_radial_771_66724" cx="0" cy="0" r="1" gradientUnits="userSpaceOnUse" gradientTransform="translate(1766.25 200.549) scale(3429.91 379.214)">
<stop stop-color="#F36C24"/>
<stop offset="0.0185" stop-color="#E96E2A"/>
<stop offset="0.0493" stop-color="#D67536"/>
<stop offset="0.0885" stop-color="#B67C4A"/>
<stop offset="0.1347" stop-color="#868463"/>
<stop offset="0.1863" stop-color="#288B7F"/>
<stop offset="0.1912" stop-color="#088B82"/>
<stop offset="0.2813" stop-color="#088AB5"/>
<stop offset="0.3043" stop-color="#3189AF"/>
<stop offset="0.3424" stop-color="#5D879F"/>
<stop offset="0.3911" stop-color="#898384"/>
<stop offset="0.4484" stop-color="#B97C60"/>
<stop offset="0.5123" stop-color="#EF6D28"/>
<stop offset="0.5151" stop-color="#F36C24"/>
<stop offset="0.7699" stop-color="#EF3F36"/>
<stop offset="0.9944" stop-color="#088B82"/>
</radialGradient>
<linearGradient id="paint1_linear_771_66724" x1="1158.21" y1="145.795" x2="277.222" y2="787.536" gradientUnits="userSpaceOnUse">
<stop stop-color="white" stop-opacity="0.08"/>
<stop offset="1" stop-color="white" stop-opacity="0"/>
</linearGradient>
<linearGradient id="paint2_linear_771_66724" x1="1406.47" y1="177.046" x2="336.643" y2="956.34" gradientUnits="userSpaceOnUse">
<stop stop-color="white" stop-opacity="0.08"/>
<stop offset="1" stop-color="white" stop-opacity="0"/>
</linearGradient>
<linearGradient id="paint3_linear_771_66724" x1="913.905" y1="115.045" x2="218.734" y2="621.416" gradientUnits="userSpaceOnUse">
<stop stop-color="white" stop-opacity="0.08"/>
<stop offset="1" stop-color="white" stop-opacity="0"/>
</linearGradient>
<linearGradient id="paint4_linear_771_66724" x1="669.952" y1="84.2996" x2="160.497" y2="455.551" gradientUnits="userSpaceOnUse">
<stop stop-color="white" stop-opacity="0.08"/>
<stop offset="1" stop-color="white" stop-opacity="0"/>
</linearGradient>
<linearGradient id="paint5_linear_771_66724" x1="411.407" y1="51.7801" x2="98.504" y2="279.742" gradientUnits="userSpaceOnUse">
<stop stop-color="white" stop-opacity="0.1"/>
<stop offset="1" stop-color="white" stop-opacity="0"/>
</linearGradient>
<linearGradient id="paint6_linear_771_66724" x1="336.345" y1="51.7801" x2="47.2964" y2="223.942" gradientUnits="userSpaceOnUse">
<stop stop-color="white" stop-opacity="0.08"/>
<stop offset="1" stop-color="white" stop-opacity="0"/>
</linearGradient>
<radialGradient id="paint7_radial_771_66724" cx="0" cy="0" r="1" gradientUnits="userSpaceOnUse" gradientTransform="translate(526.312 390.627) rotate(90) scale(390.627 526.312)">
<stop stop-color="#E1443B" stop-opacity="0.4"/>
<stop offset="1" stop-color="#E1443B" stop-opacity="0"/>
</radialGradient>
<clipPath id="clip0_771_66724">
<path d="M0 24C0 10.7452 10.7452 0 24 0H994C1007.25 0 1018 10.7452 1018 24V208H0V24Z" fill="white"/>
</clipPath>
</defs>
</svg>
