<svg width="1018" height="152" viewBox="0 0 1018 152" fill="none" xmlns="http://www.w3.org/2000/svg">
<g clip-path="url(#clip0_771_66690)">
<path d="M0 24C0 10.7452 10.7452 0 24 0H994C1007.25 0 1018 10.7452 1018 24V152H0V24Z" fill="url(#paint0_radial_771_66690)"/>
<g opacity="0.8">
<g filter="url(#filter0_d_771_66690)">
<ellipse cx="689.956" cy="462.75" rx="689.956" ry="462.75" transform="matrix(0.976587 -0.215122 0.219086 0.975706 123.156 -47.332)" fill="url(#paint1_linear_771_66690)" shape-rendering="crispEdges"/>
</g>
<ellipse cx="837.844" cy="561.938" rx="837.844" ry="561.938" transform="matrix(0.976587 -0.215122 0.219086 0.975706 -43 -112.297)" fill="url(#paint2_linear_771_66690)"/>
<g filter="url(#filter1_d_771_66690)">
<ellipse cx="544.421" cy="365.15" rx="544.421" ry="365.15" transform="matrix(0.976587 -0.215122 0.219086 0.975706 286.672 16.5859)" fill="url(#paint3_linear_771_66690)" shape-rendering="crispEdges"/>
</g>
<g filter="url(#filter2_d_771_66690)">
<ellipse cx="399.096" cy="267.564" rx="399.096" ry="267.564" transform="matrix(0.976587 -0.215122 0.219086 0.975706 449.969 80.5391)" fill="url(#paint4_linear_771_66690)" shape-rendering="crispEdges"/>
</g>
<g filter="url(#filter3_d_771_66690)">
<ellipse cx="245.078" cy="164.348" rx="245.078" ry="164.348" transform="matrix(0.976587 -0.215122 0.219086 0.975706 623 148.117)" fill="url(#paint5_linear_771_66690)" shape-rendering="crispEdges"/>
</g>
<ellipse cx="200.363" cy="164.348" rx="200.363" ry="164.348" transform="matrix(0.976587 -0.215122 0.219086 0.975706 711.516 255.043)" fill="url(#paint6_linear_771_66690)"/>
<ellipse cx="441.165" cy="327.432" rx="441.165" ry="327.432" transform="matrix(0.976587 -0.215122 0.219086 0.975706 40.9219 -292.191)" fill="url(#paint7_radial_771_66690)"/>
</g>
<path d="M46.72 55.264C45.328 55.264 44.128 55.04 43.12 54.592C42.128 54.128 41.216 53.432 40.384 52.504L42.832 50.08C43.376 50.704 43.976 51.192 44.632 51.544C45.304 51.88 46.08 52.048 46.96 52.048C47.76 52.048 48.376 51.904 48.808 51.616C49.256 51.328 49.48 50.928 49.48 50.416C49.48 49.952 49.336 49.576 49.048 49.288C48.76 49 48.376 48.752 47.896 48.544C47.432 48.336 46.912 48.136 46.336 47.944C45.776 47.752 45.216 47.536 44.656 47.296C44.096 47.04 43.576 46.728 43.096 46.36C42.632 45.976 42.256 45.504 41.968 44.944C41.68 44.368 41.536 43.648 41.536 42.784C41.536 41.744 41.784 40.848 42.28 40.096C42.792 39.344 43.496 38.776 44.392 38.392C45.288 37.992 46.32 37.792 47.488 37.792C48.672 37.792 49.752 38 50.728 38.416C51.72 38.832 52.536 39.4 53.176 40.12L50.728 42.544C50.216 42.016 49.696 41.624 49.168 41.368C48.656 41.112 48.072 40.984 47.416 40.984C46.76 40.984 46.24 41.112 45.856 41.368C45.472 41.608 45.28 41.96 45.28 42.424C45.28 42.856 45.424 43.208 45.712 43.48C46 43.736 46.376 43.96 46.84 44.152C47.32 44.344 47.84 44.536 48.4 44.728C48.976 44.92 49.544 45.144 50.104 45.4C50.664 45.656 51.176 45.984 51.64 46.384C52.12 46.768 52.504 47.264 52.792 47.872C53.08 48.464 53.224 49.2 53.224 50.08C53.224 51.696 52.648 52.968 51.496 53.896C50.344 54.808 48.752 55.264 46.72 55.264ZM56.9442 55V38.512H60.6162V55H56.9442ZM54.3042 46.456V43.336H63.2562V46.456H54.3042ZM69.5117 55.24C68.4398 55.24 67.4798 54.976 66.6318 54.448C65.7998 53.92 65.1358 53.2 64.6398 52.288C64.1598 51.376 63.9198 50.336 63.9198 49.168C63.9198 48 64.1598 46.96 64.6398 46.048C65.1358 45.136 65.7998 44.416 66.6318 43.888C67.4798 43.36 68.4398 43.096 69.5117 43.096C70.2958 43.096 70.9998 43.248 71.6238 43.552C72.2638 43.856 72.7838 44.28 73.1838 44.824C73.5838 45.352 73.8078 45.96 73.8558 46.648V51.688C73.8078 52.376 73.5838 52.992 73.1838 53.536C72.7998 54.064 72.2878 54.48 71.6478 54.784C71.0078 55.088 70.2958 55.24 69.5117 55.24ZM70.2558 51.928C71.0398 51.928 71.6718 51.672 72.1518 51.16C72.6318 50.632 72.8718 49.968 72.8718 49.168C72.8718 48.624 72.7598 48.144 72.5358 47.728C72.3278 47.312 72.0238 46.992 71.6238 46.768C71.2398 46.528 70.7918 46.408 70.2798 46.408C69.7678 46.408 69.3118 46.528 68.9118 46.768C68.5278 46.992 68.2158 47.312 67.9758 47.728C67.7518 48.144 67.6398 48.624 67.6398 49.168C67.6398 49.696 67.7518 50.168 67.9758 50.584C68.1998 51 68.5118 51.328 68.9118 51.568C69.3118 51.808 69.7598 51.928 70.2558 51.928ZM72.7278 55V51.856L73.2798 49.024L72.7278 46.192V43.336H76.3278V55H72.7278ZM78.9132 55V43.336H82.5852V55H78.9132ZM82.5852 48.592L81.0492 47.392C81.3532 46.032 81.8652 44.976 82.5852 44.224C83.3052 43.472 84.3052 43.096 85.5852 43.096C86.1452 43.096 86.6332 43.184 87.0492 43.36C87.4812 43.52 87.8572 43.776 88.1772 44.128L85.9932 46.888C85.8332 46.712 85.6332 46.576 85.3932 46.48C85.1532 46.384 84.8812 46.336 84.5772 46.336C83.9692 46.336 83.4812 46.528 83.1132 46.912C82.7612 47.28 82.5852 47.84 82.5852 48.592ZM90.9286 55V38.512H94.6006V55H90.9286ZM88.2886 46.456V43.336H97.2406V46.456H88.2886ZM107.677 55.288C106.989 55.288 106.309 55.2 105.637 55.024C104.981 54.848 104.365 54.6 103.789 54.28C103.229 53.944 102.749 53.56 102.349 53.128L104.437 51.016C104.821 51.432 105.277 51.76 105.805 52C106.333 52.224 106.909 52.336 107.533 52.336C107.965 52.336 108.293 52.272 108.517 52.144C108.757 52.016 108.877 51.84 108.877 51.616C108.877 51.328 108.733 51.112 108.445 50.968C108.173 50.808 107.821 50.672 107.389 50.56C106.957 50.432 106.501 50.296 106.021 50.152C105.541 50.008 105.085 49.808 104.653 49.552C104.221 49.296 103.869 48.944 103.597 48.496C103.325 48.032 103.189 47.448 103.189 46.744C103.189 45.992 103.381 45.344 103.765 44.8C104.149 44.24 104.693 43.8 105.397 43.48C106.101 43.16 106.925 43 107.869 43C108.861 43 109.773 43.176 110.605 43.528C111.453 43.864 112.141 44.368 112.669 45.04L110.581 47.152C110.213 46.72 109.797 46.416 109.333 46.24C108.885 46.064 108.445 45.976 108.013 45.976C107.597 45.976 107.285 46.04 107.077 46.168C106.869 46.28 106.765 46.448 106.765 46.672C106.765 46.912 106.901 47.104 107.173 47.248C107.445 47.392 107.797 47.52 108.229 47.632C108.661 47.744 109.117 47.88 109.597 48.04C110.077 48.2 110.533 48.416 110.965 48.688C111.397 48.96 111.749 49.328 112.021 49.792C112.293 50.24 112.429 50.832 112.429 51.568C112.429 52.704 111.997 53.608 111.133 54.28C110.285 54.952 109.133 55.288 107.677 55.288ZM116.077 55V38.512H119.749V55H116.077ZM113.437 46.456V43.336H122.389V46.456H113.437ZM128.645 55.24C127.573 55.24 126.613 54.976 125.765 54.448C124.933 53.92 124.269 53.2 123.773 52.288C123.293 51.376 123.053 50.336 123.053 49.168C123.053 48 123.293 46.96 123.773 46.048C124.269 45.136 124.933 44.416 125.765 43.888C126.613 43.36 127.573 43.096 128.645 43.096C129.429 43.096 130.133 43.248 130.757 43.552C131.397 43.856 131.917 44.28 132.317 44.824C132.717 45.352 132.941 45.96 132.989 46.648V51.688C132.941 52.376 132.717 52.992 132.317 53.536C131.933 54.064 131.421 54.48 130.781 54.784C130.141 55.088 129.429 55.24 128.645 55.24ZM129.389 51.928C130.173 51.928 130.805 51.672 131.285 51.16C131.765 50.632 132.005 49.968 132.005 49.168C132.005 48.624 131.893 48.144 131.669 47.728C131.461 47.312 131.157 46.992 130.757 46.768C130.373 46.528 129.925 46.408 129.413 46.408C128.901 46.408 128.445 46.528 128.045 46.768C127.661 46.992 127.349 47.312 127.109 47.728C126.885 48.144 126.773 48.624 126.773 49.168C126.773 49.696 126.885 50.168 127.109 50.584C127.333 51 127.645 51.328 128.045 51.568C128.445 51.808 128.893 51.928 129.389 51.928ZM131.861 55V51.856L132.413 49.024L131.861 46.192V43.336H135.461V55H131.861ZM145.51 55L141.43 48.952L145.486 43.336H149.59L144.694 49.648L144.814 48.136L149.83 55H145.51ZM138.046 55V37.576H141.718V55H138.046ZM150.726 55V43.336H154.398V55H150.726ZM152.574 41.728C151.998 41.728 151.518 41.536 151.134 41.152C150.766 40.752 150.582 40.272 150.582 39.712C150.582 39.136 150.766 38.656 151.134 38.272C151.518 37.888 151.998 37.696 152.574 37.696C153.15 37.696 153.622 37.888 153.99 38.272C154.358 38.656 154.542 39.136 154.542 39.712C154.542 40.272 154.358 40.752 153.99 41.152C153.622 41.536 153.15 41.728 152.574 41.728ZM164.688 55V48.352C164.688 47.744 164.496 47.256 164.112 46.888C163.744 46.504 163.272 46.312 162.696 46.312C162.296 46.312 161.944 46.4 161.64 46.576C161.336 46.736 161.096 46.976 160.92 47.296C160.744 47.6 160.656 47.952 160.656 48.352L159.24 47.656C159.24 46.744 159.44 45.944 159.84 45.256C160.24 44.568 160.792 44.04 161.496 43.672C162.216 43.288 163.024 43.096 163.92 43.096C164.784 43.096 165.544 43.304 166.2 43.72C166.872 44.12 167.4 44.656 167.784 45.328C168.168 46 168.359 46.736 168.359 47.536V55H164.688ZM156.984 55V43.336H160.656V55H156.984ZM175.662 60.232C174.382 60.232 173.254 60.008 172.278 59.56C171.318 59.128 170.558 58.512 169.998 57.712L172.254 55.456C172.67 55.952 173.134 56.328 173.646 56.584C174.174 56.84 174.806 56.968 175.542 56.968C176.454 56.968 177.166 56.744 177.678 56.296C178.206 55.848 178.47 55.216 178.47 54.4V51.424L179.094 48.88L178.542 46.336V43.336H182.142V54.304C182.142 55.504 181.862 56.544 181.302 57.424C180.742 58.304 179.974 58.992 178.998 59.488C178.022 59.984 176.91 60.232 175.662 60.232ZM175.494 54.64C174.422 54.64 173.47 54.384 172.638 53.872C171.806 53.36 171.15 52.664 170.67 51.784C170.19 50.904 169.95 49.928 169.95 48.856C169.95 47.768 170.19 46.792 170.67 45.928C171.15 45.048 171.806 44.36 172.638 43.864C173.47 43.352 174.422 43.096 175.494 43.096C176.294 43.096 177.006 43.248 177.63 43.552C178.27 43.84 178.782 44.256 179.166 44.8C179.566 45.328 179.79 45.944 179.838 46.648V51.088C179.79 51.776 179.566 52.392 179.166 52.936C178.782 53.464 178.27 53.88 177.63 54.184C176.99 54.488 176.278 54.64 175.494 54.64ZM176.19 51.376C176.702 51.376 177.142 51.264 177.51 51.04C177.894 50.816 178.182 50.52 178.374 50.152C178.582 49.768 178.686 49.336 178.686 48.856C178.686 48.376 178.582 47.944 178.374 47.56C178.182 47.176 177.894 46.872 177.51 46.648C177.142 46.424 176.702 46.312 176.19 46.312C175.694 46.312 175.254 46.424 174.87 46.648C174.486 46.872 174.19 47.176 173.982 47.56C173.774 47.944 173.67 48.376 173.67 48.856C173.67 49.304 173.774 49.728 173.982 50.128C174.19 50.512 174.478 50.816 174.846 51.04C175.23 51.264 175.678 51.376 176.19 51.376ZM190.96 55V38.512H194.632V55H190.96ZM188.32 46.456V43.336H197.272V46.456H188.32ZM204.271 55.264C203.071 55.264 201.983 55 201.007 54.472C200.047 53.928 199.287 53.192 198.727 52.264C198.167 51.336 197.887 50.296 197.887 49.144C197.887 47.992 198.167 46.96 198.727 46.048C199.287 45.136 200.047 44.416 201.007 43.888C201.967 43.344 203.055 43.072 204.271 43.072C205.487 43.072 206.575 43.336 207.535 43.864C208.495 44.392 209.255 45.12 209.815 46.048C210.375 46.96 210.655 47.992 210.655 49.144C210.655 50.296 210.375 51.336 209.815 52.264C209.255 53.192 208.495 53.928 207.535 54.472C206.575 55 205.487 55.264 204.271 55.264ZM204.271 51.928C204.799 51.928 205.263 51.816 205.663 51.592C206.063 51.352 206.367 51.024 206.575 50.608C206.799 50.176 206.911 49.688 206.911 49.144C206.911 48.6 206.799 48.128 206.575 47.728C206.351 47.312 206.039 46.992 205.639 46.768C205.255 46.528 204.799 46.408 204.271 46.408C203.759 46.408 203.303 46.528 202.903 46.768C202.503 46.992 202.191 47.312 201.967 47.728C201.743 48.144 201.631 48.624 201.631 49.168C201.631 49.696 201.743 50.176 201.967 50.608C202.191 51.024 202.503 51.352 202.903 51.592C203.303 51.816 203.759 51.928 204.271 51.928ZM222.814 55.264C221.55 55.264 220.422 55.008 219.43 54.496C218.454 53.968 217.686 53.24 217.126 52.312C216.566 51.384 216.286 50.336 216.286 49.168C216.286 48 216.558 46.96 217.102 46.048C217.662 45.12 218.414 44.392 219.358 43.864C220.302 43.336 221.366 43.072 222.55 43.072C223.702 43.072 224.718 43.32 225.598 43.816C226.478 44.312 227.166 45 227.662 45.88C228.174 46.76 228.43 47.768 228.43 48.904C228.43 49.112 228.414 49.336 228.382 49.576C228.366 49.8 228.326 50.064 228.262 50.368L218.206 50.392V47.872L226.702 47.848L225.118 48.904C225.102 48.232 224.998 47.68 224.806 47.248C224.614 46.8 224.326 46.464 223.942 46.24C223.574 46 223.118 45.88 222.574 45.88C221.998 45.88 221.494 46.016 221.062 46.288C220.646 46.544 220.318 46.912 220.078 47.392C219.854 47.872 219.742 48.456 219.742 49.144C219.742 49.832 219.862 50.424 220.102 50.92C220.358 51.4 220.71 51.776 221.158 52.048C221.622 52.304 222.166 52.432 222.79 52.432C223.366 52.432 223.886 52.336 224.35 52.144C224.814 51.936 225.222 51.632 225.574 51.232L227.59 53.248C227.014 53.92 226.318 54.424 225.502 54.76C224.686 55.096 223.79 55.264 222.814 55.264ZM237.906 55V48.352C237.906 47.744 237.714 47.256 237.33 46.888C236.962 46.504 236.49 46.312 235.914 46.312C235.514 46.312 235.162 46.4 234.858 46.576C234.554 46.736 234.314 46.976 234.138 47.296C233.962 47.6 233.874 47.952 233.874 48.352L232.458 47.656C232.458 46.744 232.658 45.944 233.058 45.256C233.458 44.568 234.01 44.04 234.714 43.672C235.434 43.288 236.242 43.096 237.138 43.096C238.002 43.096 238.762 43.304 239.418 43.72C240.09 44.12 240.618 44.656 241.002 45.328C241.386 46 241.578 46.736 241.578 47.536V55H237.906ZM230.202 55V43.336H233.874V55H230.202ZM243.265 60.232C242.417 60.232 241.697 60.088 241.105 59.8C240.513 59.528 239.993 59.136 239.545 58.624L241.825 56.344C242.001 56.552 242.185 56.696 242.377 56.776C242.553 56.872 242.761 56.92 243.001 56.92C243.353 56.92 243.641 56.816 243.865 56.608C244.105 56.4 244.225 56.08 244.225 55.648V43.336H247.897V55.6C247.897 56.544 247.697 57.36 247.297 58.048C246.897 58.736 246.345 59.272 245.641 59.656C244.953 60.04 244.161 60.232 243.265 60.232ZM246.097 41.728C245.521 41.728 245.041 41.536 244.657 41.152C244.289 40.752 244.105 40.272 244.105 39.712C244.105 39.136 244.289 38.656 244.657 38.272C245.041 37.888 245.521 37.696 246.097 37.696C246.673 37.696 247.145 37.888 247.513 38.272C247.881 38.656 248.065 39.136 248.065 39.712C248.065 40.272 247.881 40.752 247.513 41.152C247.145 41.536 246.673 41.728 246.097 41.728ZM256.115 55.264C254.915 55.264 253.827 55 252.851 54.472C251.891 53.928 251.131 53.192 250.571 52.264C250.011 51.336 249.731 50.296 249.731 49.144C249.731 47.992 250.011 46.96 250.571 46.048C251.131 45.136 251.891 44.416 252.851 43.888C253.811 43.344 254.899 43.072 256.115 43.072C257.331 43.072 258.419 43.336 259.379 43.864C260.339 44.392 261.099 45.12 261.659 46.048C262.219 46.96 262.499 47.992 262.499 49.144C262.499 50.296 262.219 51.336 261.659 52.264C261.099 53.192 260.339 53.928 259.379 54.472C258.419 55 257.331 55.264 256.115 55.264ZM256.115 51.928C256.643 51.928 257.107 51.816 257.507 51.592C257.907 51.352 258.211 51.024 258.419 50.608C258.643 50.176 258.755 49.688 258.755 49.144C258.755 48.6 258.643 48.128 258.419 47.728C258.195 47.312 257.883 46.992 257.483 46.768C257.099 46.528 256.643 46.408 256.115 46.408C255.603 46.408 255.147 46.528 254.747 46.768C254.347 46.992 254.035 47.312 253.811 47.728C253.587 48.144 253.475 48.624 253.475 49.168C253.475 49.696 253.587 50.176 253.811 50.608C254.035 51.024 254.347 51.352 254.747 51.592C255.147 51.816 255.603 51.928 256.115 51.928ZM267.599 55.048L262.799 43.336H266.759L269.807 52.624H268.343L271.463 43.336H275.423L270.431 55.048H267.599ZM264.599 59.92L268.103 52.36L270.431 55.048L268.367 59.92H264.599ZM289.094 55V48.352C289.094 47.744 288.902 47.256 288.518 46.888C288.15 46.504 287.678 46.312 287.102 46.312C286.702 46.312 286.35 46.4 286.046 46.576C285.742 46.736 285.502 46.976 285.326 47.296C285.15 47.6 285.062 47.952 285.062 48.352L283.646 47.656C283.646 46.744 283.838 45.944 284.222 45.256C284.606 44.568 285.142 44.04 285.83 43.672C286.518 43.288 287.31 43.096 288.206 43.096C289.118 43.096 289.918 43.288 290.606 43.672C291.294 44.04 291.822 44.56 292.19 45.232C292.574 45.888 292.766 46.656 292.766 47.536V55H289.094ZM281.39 55V37.576H285.062V55H281.39ZM295.124 55V43.336H298.796V55H295.124ZM296.972 41.728C296.396 41.728 295.916 41.536 295.532 41.152C295.164 40.752 294.98 40.272 294.98 39.712C294.98 39.136 295.164 38.656 295.532 38.272C295.916 37.888 296.396 37.696 296.972 37.696C297.548 37.696 298.02 37.888 298.388 38.272C298.756 38.656 298.94 39.136 298.94 39.712C298.94 40.272 298.756 40.752 298.388 41.152C298.02 41.536 297.548 41.728 296.972 41.728ZM306.326 60.232C305.046 60.232 303.918 60.008 302.942 59.56C301.982 59.128 301.222 58.512 300.662 57.712L302.918 55.456C303.334 55.952 303.798 56.328 304.31 56.584C304.838 56.84 305.47 56.968 306.206 56.968C307.118 56.968 307.83 56.744 308.342 56.296C308.87 55.848 309.134 55.216 309.134 54.4V51.424L309.758 48.88L309.206 46.336V43.336H312.806V54.304C312.806 55.504 312.526 56.544 311.966 57.424C311.406 58.304 310.638 58.992 309.662 59.488C308.686 59.984 307.574 60.232 306.326 60.232ZM306.158 54.64C305.086 54.64 304.134 54.384 303.302 53.872C302.47 53.36 301.814 52.664 301.334 51.784C300.854 50.904 300.614 49.928 300.614 48.856C300.614 47.768 300.854 46.792 301.334 45.928C301.814 45.048 302.47 44.36 303.302 43.864C304.134 43.352 305.086 43.096 306.158 43.096C306.958 43.096 307.67 43.248 308.294 43.552C308.934 43.84 309.446 44.256 309.83 44.8C310.23 45.328 310.454 45.944 310.502 46.648V51.088C310.454 51.776 310.23 52.392 309.83 52.936C309.446 53.464 308.934 53.88 308.294 54.184C307.654 54.488 306.942 54.64 306.158 54.64ZM306.854 51.376C307.366 51.376 307.806 51.264 308.174 51.04C308.558 50.816 308.846 50.52 309.038 50.152C309.246 49.768 309.35 49.336 309.35 48.856C309.35 48.376 309.246 47.944 309.038 47.56C308.846 47.176 308.558 46.872 308.174 46.648C307.806 46.424 307.366 46.312 306.854 46.312C306.358 46.312 305.918 46.424 305.534 46.648C305.15 46.872 304.854 47.176 304.646 47.56C304.438 47.944 304.334 48.376 304.334 48.856C304.334 49.304 304.438 49.728 304.646 50.128C304.854 50.512 305.142 50.816 305.51 51.04C305.894 51.264 306.342 51.376 306.854 51.376ZM323.102 55V48.352C323.102 47.744 322.91 47.256 322.526 46.888C322.158 46.504 321.686 46.312 321.11 46.312C320.71 46.312 320.358 46.4 320.054 46.576C319.75 46.736 319.51 46.976 319.334 47.296C319.158 47.6 319.07 47.952 319.07 48.352L317.654 47.656C317.654 46.744 317.846 45.944 318.23 45.256C318.614 44.568 319.15 44.04 319.838 43.672C320.526 43.288 321.318 43.096 322.214 43.096C323.126 43.096 323.926 43.288 324.614 43.672C325.302 44.04 325.83 44.56 326.198 45.232C326.582 45.888 326.774 46.656 326.774 47.536V55H323.102ZM315.398 55V37.576H319.07V55H315.398ZM339.462 55.264C338.198 55.264 337.07 55.008 336.078 54.496C335.102 53.968 334.334 53.24 333.774 52.312C333.214 51.384 332.934 50.336 332.934 49.168C332.934 48 333.206 46.96 333.75 46.048C334.31 45.12 335.062 44.392 336.006 43.864C336.95 43.336 338.014 43.072 339.198 43.072C340.35 43.072 341.366 43.32 342.246 43.816C343.126 44.312 343.814 45 344.31 45.88C344.822 46.76 345.078 47.768 345.078 48.904C345.078 49.112 345.062 49.336 345.03 49.576C345.014 49.8 344.974 50.064 344.91 50.368L334.854 50.392V47.872L343.35 47.848L341.766 48.904C341.75 48.232 341.646 47.68 341.454 47.248C341.262 46.8 340.974 46.464 340.59 46.24C340.222 46 339.766 45.88 339.222 45.88C338.646 45.88 338.142 46.016 337.71 46.288C337.294 46.544 336.966 46.912 336.726 47.392C336.502 47.872 336.39 48.456 336.39 49.144C336.39 49.832 336.51 50.424 336.75 50.92C337.006 51.4 337.358 51.776 337.806 52.048C338.27 52.304 338.814 52.432 339.438 52.432C340.014 52.432 340.534 52.336 340.998 52.144C341.462 51.936 341.87 51.632 342.222 51.232L344.238 53.248C343.662 53.92 342.966 54.424 342.15 54.76C341.334 55.096 340.438 55.264 339.462 55.264ZM351.723 55.24C350.651 55.24 349.691 54.976 348.843 54.448C348.011 53.92 347.347 53.2 346.851 52.288C346.371 51.376 346.131 50.336 346.131 49.168C346.131 48 346.371 46.96 346.851 46.048C347.347 45.136 348.011 44.416 348.843 43.888C349.691 43.36 350.651 43.096 351.723 43.096C352.507 43.096 353.211 43.248 353.835 43.552C354.475 43.856 354.995 44.28 355.395 44.824C355.795 45.352 356.019 45.96 356.067 46.648V51.688C356.019 52.376 355.795 52.992 355.395 53.536C355.011 54.064 354.499 54.48 353.859 54.784C353.219 55.088 352.507 55.24 351.723 55.24ZM352.467 51.928C353.251 51.928 353.883 51.672 354.363 51.16C354.843 50.632 355.083 49.968 355.083 49.168C355.083 48.624 354.971 48.144 354.747 47.728C354.539 47.312 354.235 46.992 353.835 46.768C353.451 46.528 353.003 46.408 352.491 46.408C351.979 46.408 351.523 46.528 351.123 46.768C350.739 46.992 350.427 47.312 350.187 47.728C349.963 48.144 349.851 48.624 349.851 49.168C349.851 49.696 349.963 50.168 350.187 50.584C350.411 51 350.723 51.328 351.123 51.568C351.523 51.808 351.971 51.928 352.467 51.928ZM354.939 55V51.856L355.491 49.024L354.939 46.192V43.336H358.539V55H354.939ZM361.124 55V43.336H364.796V55H361.124ZM364.796 48.592L363.26 47.392C363.564 46.032 364.076 44.976 364.796 44.224C365.516 43.472 366.516 43.096 367.796 43.096C368.356 43.096 368.844 43.184 369.26 43.36C369.692 43.52 370.068 43.776 370.388 44.128L368.204 46.888C368.044 46.712 367.844 46.576 367.604 46.48C367.364 46.384 367.092 46.336 366.788 46.336C366.18 46.336 365.692 46.528 365.324 46.912C364.972 47.28 364.796 47.84 364.796 48.592ZM379 55V48.352C379 47.744 378.808 47.256 378.424 46.888C378.056 46.504 377.584 46.312 377.008 46.312C376.608 46.312 376.256 46.4 375.952 46.576C375.648 46.736 375.408 46.976 375.232 47.296C375.056 47.6 374.968 47.952 374.968 48.352L373.552 47.656C373.552 46.744 373.752 45.944 374.152 45.256C374.552 44.568 375.104 44.04 375.808 43.672C376.528 43.288 377.336 43.096 378.232 43.096C379.096 43.096 379.856 43.304 380.512 43.72C381.184 44.12 381.712 44.656 382.096 45.328C382.48 46 382.672 46.736 382.672 47.536V55H379ZM371.296 55V43.336H374.968V55H371.296ZM385.03 55V43.336H388.702V55H385.03ZM386.878 41.728C386.302 41.728 385.822 41.536 385.438 41.152C385.07 40.752 384.886 40.272 384.886 39.712C384.886 39.136 385.07 38.656 385.438 38.272C385.822 37.888 386.302 37.696 386.878 37.696C387.454 37.696 387.926 37.888 388.294 38.272C388.662 38.656 388.846 39.136 388.846 39.712C388.846 40.272 388.662 40.752 388.294 41.152C387.926 41.536 387.454 41.728 386.878 41.728ZM398.992 55V48.352C398.992 47.744 398.8 47.256 398.416 46.888C398.048 46.504 397.576 46.312 397 46.312C396.6 46.312 396.248 46.4 395.944 46.576C395.64 46.736 395.4 46.976 395.224 47.296C395.048 47.6 394.96 47.952 394.96 48.352L393.544 47.656C393.544 46.744 393.744 45.944 394.144 45.256C394.544 44.568 395.096 44.04 395.8 43.672C396.52 43.288 397.328 43.096 398.224 43.096C399.088 43.096 399.848 43.304 400.504 43.72C401.176 44.12 401.704 44.656 402.088 45.328C402.472 46 402.664 46.736 402.664 47.536V55H398.992ZM391.288 55V43.336H394.96V55H391.288ZM409.967 60.232C408.687 60.232 407.559 60.008 406.583 59.56C405.623 59.128 404.863 58.512 404.303 57.712L406.559 55.456C406.975 55.952 407.439 56.328 407.951 56.584C408.479 56.84 409.111 56.968 409.847 56.968C410.759 56.968 411.471 56.744 411.983 56.296C412.511 55.848 412.775 55.216 412.775 54.4V51.424L413.399 48.88L412.847 46.336V43.336H416.447V54.304C416.447 55.504 416.167 56.544 415.607 57.424C415.047 58.304 414.279 58.992 413.303 59.488C412.327 59.984 411.215 60.232 409.967 60.232ZM409.799 54.64C408.727 54.64 407.775 54.384 406.943 53.872C406.111 53.36 405.455 52.664 404.975 51.784C404.495 50.904 404.255 49.928 404.255 48.856C404.255 47.768 404.495 46.792 404.975 45.928C405.455 45.048 406.111 44.36 406.943 43.864C407.775 43.352 408.727 43.096 409.799 43.096C410.599 43.096 411.311 43.248 411.935 43.552C412.575 43.84 413.087 44.256 413.471 44.8C413.871 45.328 414.095 45.944 414.143 46.648V51.088C414.095 51.776 413.871 52.392 413.471 52.936C413.087 53.464 412.575 53.88 411.935 54.184C411.295 54.488 410.583 54.64 409.799 54.64ZM410.495 51.376C411.007 51.376 411.447 51.264 411.815 51.04C412.199 50.816 412.487 50.52 412.679 50.152C412.887 49.768 412.991 49.336 412.991 48.856C412.991 48.376 412.887 47.944 412.679 47.56C412.487 47.176 412.199 46.872 411.815 46.648C411.447 46.424 411.007 46.312 410.495 46.312C409.999 46.312 409.559 46.424 409.175 46.648C408.791 46.872 408.495 47.176 408.287 47.56C408.079 47.944 407.975 48.376 407.975 48.856C407.975 49.304 408.079 49.728 408.287 50.128C408.495 50.512 408.783 50.816 409.151 51.04C409.535 51.264 409.983 51.376 410.495 51.376ZM423.286 55.288C422.598 55.288 421.918 55.2 421.246 55.024C420.59 54.848 419.974 54.6 419.398 54.28C418.838 53.944 418.358 53.56 417.958 53.128L420.046 51.016C420.43 51.432 420.886 51.76 421.414 52C421.942 52.224 422.518 52.336 423.142 52.336C423.574 52.336 423.902 52.272 424.126 52.144C424.366 52.016 424.486 51.84 424.486 51.616C424.486 51.328 424.342 51.112 424.054 50.968C423.782 50.808 423.43 50.672 422.998 50.56C422.566 50.432 422.11 50.296 421.63 50.152C421.15 50.008 420.694 49.808 420.262 49.552C419.83 49.296 419.478 48.944 419.206 48.496C418.934 48.032 418.798 47.448 418.798 46.744C418.798 45.992 418.99 45.344 419.374 44.8C419.758 44.24 420.302 43.8 421.006 43.48C421.71 43.16 422.534 43 423.478 43C424.47 43 425.382 43.176 426.214 43.528C427.062 43.864 427.75 44.368 428.278 45.04L426.19 47.152C425.822 46.72 425.406 46.416 424.942 46.24C424.494 46.064 424.054 45.976 423.622 45.976C423.206 45.976 422.894 46.04 422.686 46.168C422.478 46.28 422.374 46.448 422.374 46.672C422.374 46.912 422.51 47.104 422.782 47.248C423.054 47.392 423.406 47.52 423.838 47.632C424.27 47.744 424.726 47.88 425.206 48.04C425.686 48.2 426.142 48.416 426.574 48.688C427.006 48.96 427.358 49.328 427.63 49.792C427.902 50.24 428.038 50.832 428.038 51.568C428.038 52.704 427.606 53.608 426.742 54.28C425.894 54.952 424.742 55.288 423.286 55.288Z" fill="white"/>
<path d="M41.312 92V80.896H42.816V92H41.312ZM42.336 92V90.624H48.704V92H42.336ZM42.336 86.976V85.664H48.176V86.976H42.336ZM42.336 82.272V80.896H48.624V82.272H42.336ZM55.8695 92V87.568C55.8695 86.992 55.6882 86.5173 55.3255 86.144C54.9628 85.7707 54.4935 85.584 53.9175 85.584C53.5335 85.584 53.1922 85.6693 52.8935 85.84C52.5948 86.0107 52.3602 86.2453 52.1895 86.544C52.0188 86.8427 51.9335 87.184 51.9335 87.568L51.3415 87.232C51.3415 86.656 51.4695 86.144 51.7255 85.696C51.9815 85.248 52.3388 84.896 52.7975 84.64C53.2562 84.3733 53.7735 84.24 54.3495 84.24C54.9255 84.24 55.4322 84.384 55.8695 84.672C56.3175 84.96 56.6695 85.3387 56.9255 85.808C57.1815 86.2667 57.3095 86.7573 57.3095 87.28V92H55.8695ZM50.4935 92V84.4H51.9335V92H50.4935ZM58.2991 95.344C57.8085 95.344 57.3978 95.264 57.0671 95.104C56.7258 94.944 56.4218 94.7147 56.1551 94.416L57.0831 93.472C57.2325 93.6533 57.3978 93.7867 57.5791 93.872C57.7498 93.9573 57.9578 94 58.2031 94C58.5231 94 58.8005 93.8987 59.0351 93.696C59.2698 93.504 59.3871 93.2107 59.3871 92.816V84.4H60.8271V92.8C60.8271 93.3547 60.7098 93.8187 60.4751 94.192C60.2405 94.5653 59.9311 94.848 59.5471 95.04C59.1631 95.2427 58.7471 95.344 58.2991 95.344ZM60.1231 82.88C59.8671 82.88 59.6538 82.7947 59.4831 82.624C59.3125 82.4427 59.2271 82.2187 59.2271 81.952C59.2271 81.696 59.3125 81.4827 59.4831 81.312C59.6538 81.1307 59.8671 81.04 60.1231 81.04C60.3898 81.04 60.6085 81.1307 60.7791 81.312C60.9498 81.4827 61.0351 81.696 61.0351 81.952C61.0351 82.2187 60.9498 82.4427 60.7791 82.624C60.6085 82.7947 60.3898 82.88 60.1231 82.88ZM66.4186 92.16C65.672 92.16 65 91.984 64.4026 91.632C63.8053 91.28 63.3306 90.8053 62.9786 90.208C62.6266 89.6 62.4506 88.9227 62.4506 88.176C62.4506 87.44 62.6266 86.7787 62.9786 86.192C63.3306 85.5947 63.8053 85.12 64.4026 84.768C65 84.416 65.672 84.24 66.4186 84.24C67.1546 84.24 67.8213 84.416 68.4186 84.768C69.0266 85.1093 69.5066 85.5787 69.8586 86.176C70.2106 86.7733 70.3866 87.44 70.3866 88.176C70.3866 88.9227 70.2106 89.6 69.8586 90.208C69.5066 90.8053 69.0266 91.28 68.4186 91.632C67.8213 91.984 67.1546 92.16 66.4186 92.16ZM66.4186 90.768C66.8986 90.768 67.3253 90.656 67.6986 90.432C68.072 90.208 68.3653 89.904 68.5786 89.52C68.792 89.1253 68.8986 88.6773 68.8986 88.176C68.8986 87.6853 68.7866 87.248 68.5626 86.864C68.3493 86.48 68.056 86.1813 67.6826 85.968C67.32 85.744 66.8986 85.632 66.4186 85.632C65.9386 85.632 65.512 85.744 65.1386 85.968C64.7653 86.1813 64.472 86.48 64.2586 86.864C64.0453 87.248 63.9386 87.6853 63.9386 88.176C63.9386 88.6773 64.0453 89.1253 64.2586 89.52C64.472 89.904 64.7653 90.208 65.1386 90.432C65.512 90.656 65.9386 90.768 66.4186 90.768ZM74.2083 92.064L70.9123 84.4H72.5123L74.9603 90.4H74.4483L77.0243 84.4H78.6243L75.0723 92.064H74.2083ZM72.0323 95.184L74.2723 90.592L75.0723 92.064L73.6323 95.184H72.0323ZM85.7551 92.064L82.4591 84.4H84.0591L86.5071 90.4H85.9951L88.5711 84.4H90.1711L86.6191 92.064H85.7551ZM83.5791 95.184L85.8191 90.592L86.6191 92.064L85.1791 95.184H83.5791ZM91.2751 92V84.4H92.7151V92H91.2751ZM91.9951 82.88C91.7285 82.88 91.5098 82.7947 91.3391 82.624C91.1685 82.4427 91.0831 82.2187 91.0831 81.952C91.0831 81.696 91.1685 81.4827 91.3391 81.312C91.5098 81.1307 91.7285 81.04 91.9951 81.04C92.2618 81.04 92.4805 81.1307 92.6511 81.312C92.8218 81.4827 92.9071 81.696 92.9071 81.952C92.9071 82.2187 92.8218 82.4427 92.6511 82.624C92.4805 82.7947 92.2618 82.88 91.9951 82.88ZM98.3573 92.16C97.5999 92.16 96.9173 91.9893 96.3093 91.648C95.7013 91.296 95.2213 90.8213 94.8693 90.224C94.5173 89.6267 94.3413 88.9493 94.3413 88.192C94.3413 87.4453 94.5119 86.7733 94.8533 86.176C95.2053 85.5787 95.6746 85.1093 96.2613 84.768C96.8586 84.416 97.5253 84.24 98.2613 84.24C98.9653 84.24 99.5839 84.4 100.117 84.72C100.661 85.04 101.083 85.4827 101.381 86.048C101.691 86.6133 101.845 87.2533 101.845 87.968C101.845 88.0747 101.84 88.192 101.829 88.32C101.819 88.4373 101.797 88.576 101.765 88.736H95.3493V87.536H100.997L100.469 88C100.469 87.488 100.379 87.056 100.197 86.704C100.016 86.3413 99.7599 86.064 99.4293 85.872C99.0986 85.6693 98.6986 85.568 98.2293 85.568C97.7386 85.568 97.3066 85.6747 96.9333 85.888C96.5599 86.1013 96.2719 86.4 96.0693 86.784C95.8666 87.168 95.7653 87.6213 95.7653 88.144C95.7653 88.6773 95.8719 89.1467 96.0853 89.552C96.2986 89.9467 96.6026 90.256 96.9973 90.48C97.3919 90.6933 97.8453 90.8 98.3573 90.8C98.7839 90.8 99.1733 90.7253 99.5253 90.576C99.8879 90.4267 100.197 90.2027 100.453 89.904L101.381 90.848C101.019 91.2747 100.571 91.6 100.037 91.824C99.5146 92.048 98.9546 92.16 98.3573 92.16ZM103.415 92V80.576H104.855V92H103.415ZM110.178 92.16C109.474 92.16 108.845 91.9893 108.29 91.648C107.736 91.296 107.293 90.8213 106.962 90.224C106.642 89.6267 106.482 88.9547 106.482 88.208C106.482 87.4613 106.642 86.7893 106.962 86.192C107.293 85.5947 107.736 85.12 108.29 84.768C108.845 84.416 109.474 84.24 110.178 84.24C110.744 84.24 111.256 84.3627 111.714 84.608C112.173 84.8427 112.541 85.1733 112.818 85.6C113.106 86.016 113.266 86.5013 113.298 87.056V89.344C113.266 89.888 113.112 90.3733 112.834 90.8C112.557 91.2267 112.189 91.5627 111.73 91.808C111.272 92.0427 110.754 92.16 110.178 92.16ZM110.418 90.8C110.898 90.8 111.314 90.688 111.666 90.464C112.029 90.24 112.312 89.936 112.514 89.552C112.717 89.1573 112.818 88.7093 112.818 88.208C112.818 87.6853 112.712 87.232 112.498 86.848C112.296 86.464 112.013 86.16 111.65 85.936C111.298 85.712 110.882 85.6 110.402 85.6C109.922 85.6 109.501 85.712 109.138 85.936C108.776 86.16 108.488 86.4693 108.274 86.864C108.072 87.248 107.97 87.6907 107.97 88.192C107.97 88.704 108.072 89.1573 108.274 89.552C108.488 89.936 108.776 90.24 109.138 90.464C109.512 90.688 109.938 90.8 110.418 90.8ZM114.178 92H112.722V89.952L112.994 88.096L112.722 86.256V80.576H114.178V92ZM123.603 92.16C123.027 92.16 122.504 92.0427 122.035 91.808C121.576 91.5627 121.208 91.2267 120.931 90.8C120.654 90.3733 120.499 89.888 120.467 89.344V87.056C120.499 86.5013 120.654 86.016 120.931 85.6C121.219 85.1733 121.592 84.8427 122.051 84.608C122.52 84.3627 123.038 84.24 123.603 84.24C124.296 84.24 124.92 84.416 125.475 84.768C126.04 85.12 126.483 85.5947 126.803 86.192C127.123 86.7893 127.283 87.4613 127.283 88.208C127.283 88.9547 127.123 89.6267 126.803 90.224C126.483 90.8213 126.04 91.296 125.475 91.648C124.92 91.9893 124.296 92.16 123.603 92.16ZM123.363 90.8C123.843 90.8 124.264 90.688 124.627 90.464C124.99 90.24 125.278 89.936 125.491 89.552C125.704 89.1573 125.811 88.704 125.811 88.192C125.811 87.6907 125.704 87.2427 125.491 86.848C125.278 86.4533 124.99 86.1493 124.627 85.936C124.264 85.712 123.848 85.6 123.379 85.6C122.899 85.6 122.478 85.712 122.115 85.936C121.752 86.1493 121.47 86.4533 121.267 86.848C121.064 87.2427 120.963 87.696 120.963 88.208C120.963 88.7093 121.059 89.1573 121.251 89.552C121.454 89.936 121.736 90.24 122.099 90.464C122.472 90.688 122.894 90.8 123.363 90.8ZM119.603 92V80.576H121.043V86.256L120.771 88.096L121.043 89.952V92H119.603ZM131.115 92.064L127.819 84.4H129.419L131.867 90.4H131.355L133.931 84.4H135.531L131.979 92.064H131.115ZM128.939 95.184L131.179 90.592L131.979 92.064L130.539 95.184H128.939ZM142.581 92.16C142.155 92.16 141.749 92.1067 141.365 92C140.992 91.8827 140.645 91.7227 140.325 91.52C140.005 91.3067 139.728 91.056 139.493 90.768L140.421 89.84C140.699 90.1813 141.019 90.4373 141.381 90.608C141.744 90.768 142.149 90.848 142.597 90.848C143.045 90.848 143.392 90.7733 143.637 90.624C143.883 90.464 144.005 90.2453 144.005 89.968C144.005 89.6907 143.904 89.4773 143.701 89.328C143.509 89.168 143.259 89.04 142.949 88.944C142.64 88.8373 142.309 88.736 141.957 88.64C141.616 88.5333 141.291 88.4 140.981 88.24C140.672 88.08 140.416 87.8613 140.213 87.584C140.021 87.3067 139.925 86.9387 139.925 86.48C139.925 86.0213 140.037 85.6267 140.261 85.296C140.485 84.9547 140.795 84.6933 141.189 84.512C141.595 84.3307 142.08 84.24 142.645 84.24C143.243 84.24 143.771 84.3467 144.229 84.56C144.699 84.7627 145.083 85.072 145.381 85.488L144.453 86.416C144.24 86.1387 143.973 85.9253 143.653 85.776C143.344 85.6267 142.992 85.552 142.597 85.552C142.181 85.552 141.861 85.6267 141.637 85.776C141.424 85.9147 141.317 86.112 141.317 86.368C141.317 86.624 141.413 86.8213 141.605 86.96C141.797 87.0987 142.048 87.216 142.357 87.312C142.677 87.408 143.008 87.5093 143.349 87.616C143.691 87.712 144.016 87.8453 144.325 88.016C144.635 88.1867 144.885 88.416 145.077 88.704C145.28 88.992 145.381 89.3707 145.381 89.84C145.381 90.5547 145.125 91.12 144.613 91.536C144.112 91.952 143.435 92.16 142.581 92.16ZM148.162 92V81.216H149.602V92H148.162ZM146.29 85.712V84.4H151.474V85.712H146.29ZM155.882 92.16C155.188 92.16 154.559 91.9893 153.994 91.648C153.428 91.296 152.98 90.8213 152.65 90.224C152.33 89.6267 152.17 88.9547 152.17 88.208C152.17 87.4613 152.33 86.7893 152.65 86.192C152.98 85.5947 153.423 85.12 153.978 84.768C154.543 84.416 155.178 84.24 155.882 84.24C156.458 84.24 156.97 84.3627 157.418 84.608C157.876 84.8427 158.244 85.1733 158.522 85.6C158.799 86.016 158.954 86.5013 158.986 87.056V89.344C158.954 89.888 158.799 90.3733 158.522 90.8C158.255 91.2267 157.892 91.5627 157.434 91.808C156.986 92.0427 156.468 92.16 155.882 92.16ZM156.122 90.8C156.836 90.8 157.412 90.56 157.85 90.08C158.287 89.5893 158.506 88.9653 158.506 88.208C158.506 87.6853 158.404 87.232 158.202 86.848C158.01 86.4533 157.732 86.1493 157.37 85.936C157.007 85.712 156.586 85.6 156.106 85.6C155.626 85.6 155.199 85.712 154.826 85.936C154.463 86.16 154.175 86.4693 153.962 86.864C153.759 87.248 153.658 87.6907 153.658 88.192C153.658 88.704 153.759 89.1573 153.962 89.552C154.175 89.936 154.468 90.24 154.842 90.464C155.215 90.688 155.642 90.8 156.122 90.8ZM158.41 92V89.952L158.682 88.096L158.41 86.256V84.4H159.866V92H158.41ZM166.826 92L163.274 88.112L166.794 84.4H168.538L164.618 88.496L164.682 87.664L168.682 92H166.826ZM161.962 92V80.576H163.402V92H161.962ZM169.666 92V84.4H171.106V92H169.666ZM170.386 82.88C170.119 82.88 169.9 82.7947 169.73 82.624C169.559 82.4427 169.474 82.2187 169.474 81.952C169.474 81.696 169.559 81.4827 169.73 81.312C169.9 81.1307 170.119 81.04 170.386 81.04C170.652 81.04 170.871 81.1307 171.042 81.312C171.212 81.4827 171.298 81.696 171.298 81.952C171.298 82.2187 171.212 82.4427 171.042 82.624C170.871 82.7947 170.652 82.88 170.386 82.88ZM178.604 92V87.568C178.604 86.992 178.423 86.5173 178.06 86.144C177.697 85.7707 177.228 85.584 176.652 85.584C176.268 85.584 175.927 85.6693 175.628 85.84C175.329 86.0107 175.095 86.2453 174.924 86.544C174.753 86.8427 174.668 87.184 174.668 87.568L174.076 87.232C174.076 86.656 174.204 86.144 174.46 85.696C174.716 85.248 175.073 84.896 175.532 84.64C175.991 84.3733 176.508 84.24 177.084 84.24C177.66 84.24 178.167 84.384 178.604 84.672C179.052 84.96 179.404 85.3387 179.66 85.808C179.916 86.2667 180.044 86.7573 180.044 87.28V92H178.604ZM173.228 92V84.4H174.668V92H173.228ZM185.146 95.344C184.367 95.344 183.674 95.2 183.066 94.912C182.468 94.624 181.988 94.2187 181.626 93.696L182.554 92.752C182.863 93.1467 183.231 93.4453 183.658 93.648C184.084 93.8613 184.591 93.968 185.178 93.968C185.956 93.968 186.57 93.76 187.018 93.344C187.476 92.9387 187.706 92.3893 187.706 91.696V89.808L187.962 88.096L187.706 86.4V84.4H189.146V91.696C189.146 92.4213 188.975 93.056 188.634 93.6C188.303 94.144 187.834 94.5707 187.226 94.88C186.628 95.1893 185.935 95.344 185.146 95.344ZM185.146 91.872C184.452 91.872 183.828 91.7067 183.274 91.376C182.73 91.0453 182.298 90.592 181.978 90.016C181.658 89.4293 181.498 88.7733 181.498 88.048C181.498 87.3227 181.658 86.6773 181.978 86.112C182.298 85.536 182.73 85.0827 183.274 84.752C183.828 84.4107 184.452 84.24 185.146 84.24C185.743 84.24 186.271 84.3573 186.73 84.592C187.188 84.8267 187.551 85.1573 187.818 85.584C188.095 86 188.244 86.4907 188.266 87.056V89.072C188.234 89.6267 188.079 90.1173 187.802 90.544C187.535 90.96 187.172 91.2853 186.714 91.52C186.255 91.7547 185.732 91.872 185.146 91.872ZM185.434 90.512C185.903 90.512 186.314 90.4107 186.666 90.208C187.028 90.0053 187.306 89.7227 187.498 89.36C187.69 88.9867 187.786 88.5547 187.786 88.064C187.786 87.5733 187.684 87.1467 187.482 86.784C187.29 86.4107 187.018 86.1227 186.666 85.92C186.314 85.7067 185.898 85.6 185.418 85.6C184.938 85.6 184.516 85.7067 184.154 85.92C183.791 86.1227 183.503 86.4107 183.289 86.784C183.087 87.1467 182.986 87.568 182.986 88.048C182.986 88.528 183.087 88.9547 183.289 89.328C183.503 89.7013 183.791 89.9947 184.154 90.208C184.527 90.4107 184.954 90.512 185.434 90.512ZM198.171 92.16C197.361 92.16 196.651 92 196.043 91.68C195.446 91.36 194.913 90.896 194.443 90.288L195.451 89.28C195.793 89.76 196.187 90.1387 196.635 90.416C197.083 90.6933 197.611 90.832 198.219 90.832C198.87 90.832 199.393 90.6827 199.787 90.384C200.193 90.0853 200.395 89.6693 200.395 89.136C200.395 88.72 200.299 88.384 200.107 88.128C199.915 87.872 199.659 87.664 199.339 87.504C199.019 87.3333 198.667 87.184 198.283 87.056C197.899 86.9173 197.515 86.7733 197.131 86.624C196.758 86.464 196.411 86.272 196.091 86.048C195.771 85.8133 195.515 85.5093 195.323 85.136C195.131 84.7627 195.035 84.2933 195.035 83.728C195.035 83.0987 195.185 82.5653 195.483 82.128C195.793 81.68 196.209 81.3387 196.731 81.104C197.254 80.8587 197.841 80.736 198.491 80.736C199.163 80.736 199.777 80.88 200.331 81.168C200.886 81.4453 201.345 81.8133 201.707 82.272L200.699 83.28C200.369 82.896 200.022 82.5973 199.659 82.384C199.297 82.1707 198.897 82.064 198.459 82.064C197.841 82.064 197.355 82.1973 197.003 82.464C196.651 82.7307 196.475 83.12 196.475 83.632C196.475 84.0053 196.571 84.3093 196.763 84.544C196.966 84.768 197.227 84.96 197.547 85.12C197.878 85.28 198.23 85.4293 198.603 85.568C198.987 85.696 199.371 85.84 199.755 86C200.15 86.16 200.507 86.3627 200.827 86.608C201.147 86.8533 201.403 87.1733 201.595 87.568C201.798 87.952 201.899 88.4373 201.899 89.024C201.899 90.0053 201.563 90.7733 200.891 91.328C200.219 91.8827 199.313 92.16 198.171 92.16ZM197.947 93.6V79.296H199.003V93.6H197.947ZM207.194 92V81.216H208.698V92H207.194ZM203.418 82.272V80.896H212.458V82.272H203.418ZM215.258 87.168V85.904H218.266C218.916 85.904 219.418 85.7387 219.77 85.408C220.122 85.0773 220.298 84.6293 220.298 84.064C220.298 83.5307 220.122 83.088 219.77 82.736C219.428 82.384 218.932 82.208 218.282 82.208H215.258V80.896H218.33C219.034 80.896 219.647 81.0347 220.17 81.312C220.692 81.5787 221.092 81.9467 221.37 82.416C221.658 82.8853 221.802 83.424 221.802 84.032C221.802 84.6613 221.658 85.2107 221.37 85.68C221.092 86.1493 220.692 86.5173 220.17 86.784C219.647 87.04 219.034 87.168 218.33 87.168H215.258ZM214.25 92V80.896H215.754V92H214.25ZM220.65 92L216.618 87.024L218.042 86.528L222.554 92H220.65ZM224.109 92V80.896H225.613V92H224.109ZM225.133 92V90.624H231.085V92H225.133ZM237.008 92.16C236.208 92.16 235.467 92.016 234.784 91.728C234.102 91.4293 233.504 91.0187 232.992 90.496C232.491 89.9733 232.102 89.3653 231.824 88.672C231.547 87.9787 231.408 87.2373 231.408 86.448C231.408 85.648 231.547 84.9013 231.824 84.208C232.102 83.5147 232.491 82.912 232.992 82.4C233.504 81.8773 234.096 81.472 234.768 81.184C235.451 80.8853 236.192 80.736 236.992 80.736C237.867 80.736 238.635 80.8853 239.296 81.184C239.958 81.4827 240.544 81.888 241.056 82.4L240.016 83.44C239.664 83.0453 239.232 82.736 238.72 82.512C238.219 82.288 237.643 82.176 236.992 82.176C236.406 82.176 235.867 82.2827 235.376 82.496C234.886 82.6987 234.459 82.992 234.096 83.376C233.734 83.76 233.451 84.2133 233.248 84.736C233.056 85.2587 232.96 85.8293 232.96 86.448C232.96 87.0667 233.056 87.6373 233.248 88.16C233.451 88.6827 233.734 89.136 234.096 89.52C234.459 89.904 234.886 90.2027 235.376 90.416C235.867 90.6187 236.406 90.72 236.992 90.72C237.686 90.72 238.288 90.608 238.8 90.384C239.312 90.1493 239.744 89.8347 240.096 89.44L241.136 90.464C240.624 90.9973 240.022 91.4133 239.328 91.712C238.646 92.0107 237.872 92.16 237.008 92.16ZM247.587 92.16C246.797 92.16 246.061 92.016 245.379 91.728C244.696 91.4293 244.099 91.0187 243.587 90.496C243.075 89.9627 242.675 89.3493 242.387 88.656C242.109 87.9627 241.971 87.2213 241.971 86.432C241.971 85.632 242.109 84.8907 242.387 84.208C242.675 83.5147 243.069 82.9067 243.571 82.384C244.083 81.8613 244.675 81.456 245.347 81.168C246.029 80.88 246.765 80.736 247.555 80.736C248.344 80.736 249.075 80.88 249.747 81.168C250.429 81.456 251.027 81.8613 251.539 82.384C252.051 82.9067 252.451 83.5147 252.739 84.208C253.027 84.9013 253.171 85.648 253.171 86.448C253.171 87.2373 253.027 87.9787 252.739 88.672C252.451 89.3653 252.051 89.9733 251.539 90.496C251.037 91.0187 250.445 91.4293 249.763 91.728C249.091 92.016 248.365 92.16 247.587 92.16ZM247.555 90.72C248.355 90.72 249.053 90.5387 249.651 90.176C250.259 89.8027 250.739 89.296 251.091 88.656C251.443 88.0053 251.619 87.264 251.619 86.432C251.619 85.8133 251.517 85.248 251.315 84.736C251.112 84.2133 250.829 83.76 250.467 83.376C250.104 82.992 249.677 82.6987 249.187 82.496C248.696 82.2827 248.152 82.176 247.555 82.176C246.765 82.176 246.067 82.3573 245.459 82.72C244.861 83.0827 244.387 83.584 244.035 84.224C243.693 84.864 243.523 85.6 243.523 86.432C243.523 87.0507 243.619 87.6267 243.811 88.16C244.013 88.6827 244.291 89.136 244.643 89.52C245.005 89.8933 245.432 90.1867 245.923 90.4C246.424 90.6133 246.968 90.72 247.555 90.72ZM261.538 92.16C260.845 92.16 260.215 91.9893 259.65 91.648C259.085 91.296 258.637 90.8213 258.306 90.224C257.986 89.6267 257.826 88.9547 257.826 88.208C257.826 87.4613 257.986 86.7893 258.306 86.192C258.637 85.5947 259.079 85.12 259.634 84.768C260.199 84.416 260.834 84.24 261.538 84.24C262.114 84.24 262.626 84.3627 263.074 84.608C263.533 84.8427 263.901 85.1733 264.178 85.6C264.455 86.016 264.61 86.5013 264.642 87.056V89.344C264.61 89.888 264.455 90.3733 264.178 90.8C263.911 91.2267 263.549 91.5627 263.09 91.808C262.642 92.0427 262.125 92.16 261.538 92.16ZM261.778 90.8C262.493 90.8 263.069 90.56 263.506 90.08C263.943 89.5893 264.162 88.9653 264.162 88.208C264.162 87.6853 264.061 87.232 263.858 86.848C263.666 86.4533 263.389 86.1493 263.026 85.936C262.663 85.712 262.242 85.6 261.762 85.6C261.282 85.6 260.855 85.712 260.482 85.936C260.119 86.16 259.831 86.4693 259.618 86.864C259.415 87.248 259.314 87.6907 259.314 88.192C259.314 88.704 259.415 89.1573 259.618 89.552C259.831 89.936 260.125 90.24 260.498 90.464C260.871 90.688 261.298 90.8 261.778 90.8ZM264.066 92V89.952L264.338 88.096L264.066 86.256V84.4H265.522V92H264.066ZM272.995 92V87.568C272.995 86.992 272.813 86.5173 272.451 86.144C272.088 85.7707 271.619 85.584 271.043 85.584C270.659 85.584 270.317 85.6693 270.019 85.84C269.72 86.0107 269.485 86.2453 269.315 86.544C269.144 86.8427 269.059 87.184 269.059 87.568L268.467 87.232C268.467 86.656 268.595 86.144 268.851 85.696C269.107 85.248 269.464 84.896 269.923 84.64C270.381 84.3733 270.899 84.24 271.475 84.24C272.051 84.24 272.557 84.384 272.995 84.672C273.443 84.96 273.795 85.3387 274.051 85.808C274.307 86.2667 274.435 86.7573 274.435 87.28V92H272.995ZM267.618 92V84.4H269.059V92H267.618ZM279.6 92.16C278.896 92.16 278.267 91.9893 277.712 91.648C277.157 91.296 276.715 90.8213 276.384 90.224C276.064 89.6267 275.904 88.9547 275.904 88.208C275.904 87.4613 276.064 86.7893 276.384 86.192C276.715 85.5947 277.157 85.12 277.712 84.768C278.267 84.416 278.896 84.24 279.6 84.24C280.165 84.24 280.677 84.3627 281.136 84.608C281.595 84.8427 281.963 85.1733 282.24 85.6C282.528 86.016 282.688 86.5013 282.72 87.056V89.344C282.688 89.888 282.533 90.3733 282.256 90.8C281.979 91.2267 281.611 91.5627 281.152 91.808C280.693 92.0427 280.176 92.16 279.6 92.16ZM279.84 90.8C280.32 90.8 280.736 90.688 281.088 90.464C281.451 90.24 281.733 89.936 281.936 89.552C282.139 89.1573 282.24 88.7093 282.24 88.208C282.24 87.6853 282.133 87.232 281.92 86.848C281.717 86.464 281.435 86.16 281.072 85.936C280.72 85.712 280.304 85.6 279.824 85.6C279.344 85.6 278.923 85.712 278.56 85.936C278.197 86.16 277.909 86.4693 277.696 86.864C277.493 87.248 277.392 87.6907 277.392 88.192C277.392 88.704 277.493 89.1573 277.696 89.552C277.909 89.936 278.197 90.24 278.56 90.464C278.933 90.688 279.36 90.8 279.84 90.8ZM283.6 92H282.144V89.952L282.416 88.096L282.144 86.256V80.576H283.6V92ZM292.609 92.16C291.798 92.16 291.089 92 290.481 91.68C289.883 91.36 289.35 90.896 288.881 90.288L289.889 89.28C290.23 89.76 290.625 90.1387 291.073 90.416C291.521 90.6933 292.049 90.832 292.657 90.832C293.307 90.832 293.83 90.6827 294.225 90.384C294.63 90.0853 294.833 89.6693 294.833 89.136C294.833 88.72 294.737 88.384 294.545 88.128C294.353 87.872 294.097 87.664 293.777 87.504C293.457 87.3333 293.105 87.184 292.721 87.056C292.337 86.9173 291.953 86.7733 291.569 86.624C291.195 86.464 290.849 86.272 290.529 86.048C290.209 85.8133 289.953 85.5093 289.761 85.136C289.569 84.7627 289.473 84.2933 289.473 83.728C289.473 83.0987 289.622 82.5653 289.921 82.128C290.23 81.68 290.646 81.3387 291.169 81.104C291.691 80.8587 292.278 80.736 292.929 80.736C293.601 80.736 294.214 80.88 294.769 81.168C295.323 81.4453 295.782 81.8133 296.145 82.272L295.137 83.28C294.806 82.896 294.459 82.5973 294.097 82.384C293.734 82.1707 293.334 82.064 292.897 82.064C292.278 82.064 291.793 82.1973 291.441 82.464C291.089 82.7307 290.913 83.12 290.913 83.632C290.913 84.0053 291.009 84.3093 291.201 84.544C291.403 84.768 291.665 84.96 291.985 85.12C292.315 85.28 292.667 85.4293 293.041 85.568C293.425 85.696 293.809 85.84 294.193 86C294.587 86.16 294.945 86.3627 295.265 86.608C295.585 86.8533 295.841 87.1733 296.033 87.568C296.235 87.952 296.337 88.4373 296.337 89.024C296.337 90.0053 296.001 90.7733 295.329 91.328C294.657 91.8827 293.75 92.16 292.609 92.16ZM292.385 93.6V79.296H293.441V93.6H292.385ZM301.631 92V81.216H303.135V92H301.631ZM297.855 82.272V80.896H306.895V82.272H297.855ZM309.695 87.168V85.904H312.703C313.354 85.904 313.855 85.7387 314.207 85.408C314.559 85.0773 314.735 84.6293 314.735 84.064C314.735 83.5307 314.559 83.088 314.207 82.736C313.866 82.384 313.37 82.208 312.719 82.208H309.695V80.896H312.767C313.471 80.896 314.084 81.0347 314.607 81.312C315.13 81.5787 315.53 81.9467 315.807 82.416C316.095 82.8853 316.239 83.424 316.239 84.032C316.239 84.6613 316.095 85.2107 315.807 85.68C315.53 86.1493 315.13 86.5173 314.607 86.784C314.084 87.04 313.471 87.168 312.767 87.168H309.695ZM308.687 92V80.896H310.191V92H308.687ZM315.087 92L311.055 87.024L312.479 86.528L316.991 92H315.087ZM318.546 92V80.896H320.05V92H318.546ZM319.57 92V90.624H325.522V92H319.57ZM334.878 92L331.391 86.912H331.119L326.735 80.896H328.527L331.983 85.68H332.255L336.639 92H334.878ZM326.543 92L330.847 86.096L331.871 86.992L328.239 92H326.543ZM332.351 86.64L331.343 85.744L334.767 80.896H336.463L332.351 86.64ZM342.677 92V81.216H344.117V92H342.677ZM340.805 85.712V84.4H345.989V85.712H340.805ZM352.776 92V87.568C352.776 86.992 352.594 86.5173 352.232 86.144C351.869 85.7707 351.4 85.584 350.824 85.584C350.44 85.584 350.098 85.6693 349.8 85.84C349.501 86.0107 349.266 86.2453 349.096 86.544C348.925 86.8427 348.84 87.184 348.84 87.568L348.248 87.232C348.248 86.656 348.376 86.144 348.632 85.696C348.888 85.248 349.245 84.896 349.704 84.64C350.162 84.3733 350.68 84.24 351.256 84.24C351.832 84.24 352.338 84.368 352.776 84.624C353.224 84.88 353.576 85.2373 353.832 85.696C354.088 86.1547 354.216 86.6827 354.216 87.28V92H352.776ZM347.4 92V80.576H348.84V92H347.4ZM356.165 92V84.4H357.605V92H356.165ZM357.605 87.664L357.061 87.424C357.061 86.4533 357.285 85.68 357.733 85.104C358.181 84.528 358.827 84.24 359.669 84.24C360.053 84.24 360.4 84.3093 360.709 84.448C361.019 84.576 361.307 84.7947 361.573 85.104L360.629 86.08C360.469 85.9093 360.293 85.7867 360.101 85.712C359.909 85.6373 359.685 85.6 359.429 85.6C358.896 85.6 358.459 85.7707 358.117 86.112C357.776 86.4533 357.605 86.9707 357.605 87.664ZM365.809 92.16C365.063 92.16 364.391 91.984 363.793 91.632C363.196 91.28 362.721 90.8053 362.369 90.208C362.017 89.6 361.841 88.9227 361.841 88.176C361.841 87.44 362.017 86.7787 362.369 86.192C362.721 85.5947 363.196 85.12 363.793 84.768C364.391 84.416 365.063 84.24 365.809 84.24C366.545 84.24 367.212 84.416 367.809 84.768C368.417 85.1093 368.897 85.5787 369.249 86.176C369.601 86.7733 369.777 87.44 369.777 88.176C369.777 88.9227 369.601 89.6 369.249 90.208C368.897 90.8053 368.417 91.28 367.809 91.632C367.212 91.984 366.545 92.16 365.809 92.16ZM365.809 90.768C366.289 90.768 366.716 90.656 367.089 90.432C367.463 90.208 367.756 89.904 367.969 89.52C368.183 89.1253 368.289 88.6773 368.289 88.176C368.289 87.6853 368.177 87.248 367.953 86.864C367.74 86.48 367.447 86.1813 367.073 85.968C366.711 85.744 366.289 85.632 365.809 85.632C365.329 85.632 364.903 85.744 364.529 85.968C364.156 86.1813 363.863 86.48 363.649 86.864C363.436 87.248 363.329 87.6853 363.329 88.176C363.329 88.6773 363.436 89.1253 363.649 89.52C363.863 89.904 364.156 90.208 364.529 90.432C364.903 90.656 365.329 90.768 365.809 90.768ZM374.456 92.16C373.837 92.16 373.277 92.0213 372.776 91.744C372.285 91.456 371.901 91.0613 371.624 90.56C371.346 90.0587 371.208 89.4773 371.208 88.816V84.4H372.648V88.752C372.648 89.168 372.717 89.5307 372.856 89.84C373.005 90.1387 373.218 90.368 373.496 90.528C373.773 90.688 374.098 90.768 374.472 90.768C375.037 90.768 375.48 90.592 375.8 90.24C376.12 89.8773 376.28 89.3813 376.28 88.752V84.4H377.72V88.816C377.72 89.4773 377.581 90.0587 377.304 90.56C377.026 91.0613 376.642 91.456 376.152 91.744C375.672 92.0213 375.106 92.16 374.456 92.16ZM382.802 95.344C382.023 95.344 381.33 95.2 380.722 94.912C380.124 94.624 379.644 94.2187 379.282 93.696L380.21 92.752C380.519 93.1467 380.887 93.4453 381.314 93.648C381.74 93.8613 382.247 93.968 382.834 93.968C383.612 93.968 384.226 93.76 384.674 93.344C385.132 92.9387 385.362 92.3893 385.362 91.696V89.808L385.618 88.096L385.362 86.4V84.4H386.802V91.696C386.802 92.4213 386.631 93.056 386.29 93.6C385.959 94.144 385.49 94.5707 384.882 94.88C384.284 95.1893 383.591 95.344 382.802 95.344ZM382.802 91.872C382.108 91.872 381.484 91.7067 380.93 91.376C380.386 91.0453 379.954 90.592 379.634 90.016C379.314 89.4293 379.154 88.7733 379.154 88.048C379.154 87.3227 379.314 86.6773 379.634 86.112C379.954 85.536 380.386 85.0827 380.93 84.752C381.484 84.4107 382.108 84.24 382.802 84.24C383.399 84.24 383.927 84.3573 384.386 84.592C384.844 84.8267 385.207 85.1573 385.474 85.584C385.751 86 385.9 86.4907 385.922 87.056V89.072C385.89 89.6267 385.735 90.1173 385.458 90.544C385.191 90.96 384.828 91.2853 384.37 91.52C383.911 91.7547 383.388 91.872 382.802 91.872ZM383.09 90.512C383.559 90.512 383.97 90.4107 384.322 90.208C384.684 90.0053 384.962 89.7227 385.154 89.36C385.346 88.9867 385.442 88.5547 385.442 88.064C385.442 87.5733 385.34 87.1467 385.138 86.784C384.946 86.4107 384.674 86.1227 384.322 85.92C383.97 85.7067 383.554 85.6 383.074 85.6C382.594 85.6 382.172 85.7067 381.81 85.92C381.447 86.1227 381.159 86.4107 380.946 86.784C380.743 87.1467 380.642 87.568 380.642 88.048C380.642 88.528 380.743 88.9547 380.946 89.328C381.159 89.7013 381.447 89.9947 381.81 90.208C382.183 90.4107 382.61 90.512 383.09 90.512ZM394.291 92V87.568C394.291 86.992 394.11 86.5173 393.747 86.144C393.385 85.7707 392.915 85.584 392.339 85.584C391.955 85.584 391.614 85.6693 391.315 85.84C391.017 86.0107 390.782 86.2453 390.611 86.544C390.441 86.8427 390.355 87.184 390.355 87.568L389.763 87.232C389.763 86.656 389.891 86.144 390.147 85.696C390.403 85.248 390.761 84.896 391.219 84.64C391.678 84.3733 392.195 84.24 392.771 84.24C393.347 84.24 393.854 84.368 394.291 84.624C394.739 84.88 395.091 85.2373 395.347 85.696C395.603 86.1547 395.731 86.6827 395.731 87.28V92H394.291ZM388.915 92V80.576H390.355V92H388.915ZM404.241 92.16C403.548 92.16 402.918 91.9893 402.353 91.648C401.788 91.296 401.34 90.8213 401.009 90.224C400.689 89.6267 400.529 88.9547 400.529 88.208C400.529 87.4613 400.689 86.7893 401.009 86.192C401.34 85.5947 401.782 85.12 402.337 84.768C402.902 84.416 403.537 84.24 404.241 84.24C404.817 84.24 405.329 84.3627 405.777 84.608C406.236 84.8427 406.604 85.1733 406.881 85.6C407.158 86.016 407.313 86.5013 407.345 87.056V89.344C407.313 89.888 407.158 90.3733 406.881 90.8C406.614 91.2267 406.252 91.5627 405.793 91.808C405.345 92.0427 404.828 92.16 404.241 92.16ZM404.481 90.8C405.196 90.8 405.772 90.56 406.209 90.08C406.646 89.5893 406.865 88.9653 406.865 88.208C406.865 87.6853 406.764 87.232 406.561 86.848C406.369 86.4533 406.092 86.1493 405.729 85.936C405.366 85.712 404.945 85.6 404.465 85.6C403.985 85.6 403.558 85.712 403.185 85.936C402.822 86.16 402.534 86.4693 402.321 86.864C402.118 87.248 402.017 87.6907 402.017 88.192C402.017 88.704 402.118 89.1573 402.321 89.552C402.534 89.936 402.828 90.24 403.201 90.464C403.574 90.688 404.001 90.8 404.481 90.8ZM406.769 92V89.952L407.041 88.096L406.769 86.256V84.4H408.225V92H406.769ZM414.738 92V83.376C414.738 82.8427 414.86 82.352 415.106 81.904C415.351 81.456 415.703 81.0987 416.162 80.832C416.631 80.5547 417.17 80.416 417.778 80.416V81.76C417.255 81.76 416.855 81.92 416.578 82.24C416.311 82.5493 416.178 82.928 416.178 83.376V92H414.738ZM412.866 85.712V84.4H419.858V85.712H412.866ZM419.266 92V80.512H420.706V92H419.266ZM426.342 92.16C425.584 92.16 424.902 91.9893 424.294 91.648C423.686 91.296 423.206 90.8213 422.854 90.224C422.502 89.6267 422.326 88.9493 422.326 88.192C422.326 87.4453 422.496 86.7733 422.838 86.176C423.19 85.5787 423.659 85.1093 424.246 84.768C424.843 84.416 425.51 84.24 426.246 84.24C426.95 84.24 427.568 84.4 428.102 84.72C428.646 85.04 429.067 85.4827 429.366 86.048C429.675 86.6133 429.83 87.2533 429.83 87.968C429.83 88.0747 429.824 88.192 429.814 88.32C429.803 88.4373 429.782 88.576 429.75 88.736H423.334V87.536H428.982L428.454 88C428.454 87.488 428.363 87.056 428.182 86.704C428 86.3413 427.744 86.064 427.414 85.872C427.083 85.6693 426.683 85.568 426.214 85.568C425.723 85.568 425.291 85.6747 424.918 85.888C424.544 86.1013 424.256 86.4 424.054 86.784C423.851 87.168 423.75 87.6213 423.75 88.144C423.75 88.6773 423.856 89.1467 424.07 89.552C424.283 89.9467 424.587 90.256 424.982 90.48C425.376 90.6933 425.83 90.8 426.342 90.8C426.768 90.8 427.158 90.7253 427.51 90.576C427.872 90.4267 428.182 90.2027 428.438 89.904L429.366 90.848C429.003 91.2747 428.555 91.6 428.022 91.824C427.499 92.048 426.939 92.16 426.342 92.16ZM436.157 92L433.789 88.672L433.517 88.416L430.525 84.4H432.269L434.429 87.36L434.701 87.584L437.901 92H436.157ZM430.381 92L433.517 87.776L434.333 88.832L432.077 92H430.381ZM434.813 88.4L433.981 87.376L436.077 84.4H437.757L434.813 88.4ZM439.244 92V84.4H440.684V92H439.244ZM439.964 82.88C439.697 82.88 439.479 82.7947 439.308 82.624C439.137 82.4427 439.052 82.2187 439.052 81.952C439.052 81.696 439.137 81.4827 439.308 81.312C439.479 81.1307 439.697 81.04 439.964 81.04C440.231 81.04 440.449 81.1307 440.62 81.312C440.791 81.4827 440.876 81.696 440.876 81.952C440.876 82.2187 440.791 82.4427 440.62 82.624C440.449 82.7947 440.231 82.88 439.964 82.88ZM446.806 92.16C446.23 92.16 445.707 92.0427 445.238 91.808C444.779 91.5627 444.411 91.2267 444.134 90.8C443.857 90.3733 443.702 89.888 443.67 89.344V87.056C443.702 86.5013 443.857 86.016 444.134 85.6C444.422 85.1733 444.795 84.8427 445.254 84.608C445.723 84.3627 446.241 84.24 446.806 84.24C447.499 84.24 448.123 84.416 448.678 84.768C449.243 85.12 449.686 85.5947 450.006 86.192C450.326 86.7893 450.486 87.4613 450.486 88.208C450.486 88.9547 450.326 89.6267 450.006 90.224C449.686 90.8213 449.243 91.296 448.678 91.648C448.123 91.9893 447.499 92.16 446.806 92.16ZM446.566 90.8C447.046 90.8 447.467 90.688 447.83 90.464C448.193 90.24 448.481 89.936 448.694 89.552C448.907 89.1573 449.014 88.704 449.014 88.192C449.014 87.6907 448.907 87.2427 448.694 86.848C448.481 86.4533 448.193 86.1493 447.83 85.936C447.467 85.712 447.051 85.6 446.582 85.6C446.102 85.6 445.681 85.712 445.318 85.936C444.955 86.1493 444.673 86.4533 444.47 86.848C444.267 87.2427 444.166 87.696 444.166 88.208C444.166 88.7093 444.262 89.1573 444.454 89.552C444.657 89.936 444.939 90.24 445.302 90.464C445.675 90.688 446.097 90.8 446.566 90.8ZM442.806 92V80.576H444.246V86.256L443.974 88.096L444.246 89.952V92H442.806ZM452.118 92V80.576H453.559V92H452.118ZM459.185 92.16C458.428 92.16 457.745 91.9893 457.137 91.648C456.529 91.296 456.049 90.8213 455.697 90.224C455.345 89.6267 455.169 88.9493 455.169 88.192C455.169 87.4453 455.34 86.7733 455.681 86.176C456.033 85.5787 456.503 85.1093 457.089 84.768C457.687 84.416 458.353 84.24 459.089 84.24C459.793 84.24 460.412 84.4 460.945 84.72C461.489 85.04 461.911 85.4827 462.209 86.048C462.519 86.6133 462.673 87.2533 462.673 87.968C462.673 88.0747 462.668 88.192 462.657 88.32C462.647 88.4373 462.625 88.576 462.593 88.736H456.177V87.536H461.825L461.297 88C461.297 87.488 461.207 87.056 461.025 86.704C460.844 86.3413 460.588 86.064 460.257 85.872C459.927 85.6693 459.527 85.568 459.057 85.568C458.567 85.568 458.135 85.6747 457.761 85.888C457.388 86.1013 457.1 86.4 456.897 86.784C456.695 87.168 456.593 87.6213 456.593 88.144C456.593 88.6773 456.7 89.1467 456.913 89.552C457.127 89.9467 457.431 90.256 457.825 90.48C458.22 90.6933 458.673 90.8 459.185 90.8C459.612 90.8 460.001 90.7253 460.353 90.576C460.716 90.4267 461.025 90.2027 461.281 89.904L462.209 90.848C461.847 91.2747 461.399 91.6 460.865 91.824C460.343 92.048 459.783 92.16 459.185 92.16ZM471.044 92.16C470.297 92.16 469.625 91.984 469.028 91.632C468.43 91.28 467.956 90.8053 467.604 90.208C467.252 89.6 467.076 88.9227 467.076 88.176C467.076 87.44 467.252 86.7787 467.604 86.192C467.956 85.5947 468.43 85.12 469.028 84.768C469.625 84.416 470.297 84.24 471.044 84.24C471.78 84.24 472.446 84.416 473.044 84.768C473.652 85.1093 474.132 85.5787 474.484 86.176C474.836 86.7733 475.012 87.44 475.012 88.176C475.012 88.9227 474.836 89.6 474.484 90.208C474.132 90.8053 473.652 91.28 473.044 91.632C472.446 91.984 471.78 92.16 471.044 92.16ZM471.044 90.768C471.524 90.768 471.95 90.656 472.324 90.432C472.697 90.208 472.99 89.904 473.204 89.52C473.417 89.1253 473.524 88.6773 473.524 88.176C473.524 87.6853 473.412 87.248 473.188 86.864C472.974 86.48 472.681 86.1813 472.308 85.968C471.945 85.744 471.524 85.632 471.044 85.632C470.564 85.632 470.137 85.744 469.764 85.968C469.39 86.1813 469.097 86.48 468.884 86.864C468.67 87.248 468.564 87.6853 468.564 88.176C468.564 88.6773 468.67 89.1253 468.884 89.52C469.097 89.904 469.39 90.208 469.764 90.432C470.137 90.656 470.564 90.768 471.044 90.768ZM476.634 92V84.4H478.074V92H476.634ZM478.074 87.664L477.53 87.424C477.53 86.4533 477.754 85.68 478.202 85.104C478.65 84.528 479.295 84.24 480.138 84.24C480.522 84.24 480.869 84.3093 481.178 84.448C481.487 84.576 481.775 84.7947 482.042 85.104L481.098 86.08C480.938 85.9093 480.762 85.7867 480.57 85.712C480.378 85.6373 480.154 85.6 479.898 85.6C479.365 85.6 478.927 85.7707 478.586 86.112C478.245 86.4533 478.074 86.9707 478.074 87.664ZM489.897 92.16C489.204 92.16 488.575 91.9893 488.009 91.648C487.444 91.296 486.996 90.8213 486.665 90.224C486.345 89.6267 486.185 88.9547 486.185 88.208C486.185 87.4613 486.345 86.7893 486.665 86.192C486.996 85.5947 487.439 85.12 487.993 84.768C488.559 84.416 489.193 84.24 489.897 84.24C490.473 84.24 490.985 84.3627 491.433 84.608C491.892 84.8427 492.26 85.1733 492.537 85.6C492.815 86.016 492.969 86.5013 493.001 87.056V89.344C492.969 89.888 492.815 90.3733 492.537 90.8C492.271 91.2267 491.908 91.5627 491.449 91.808C491.001 92.0427 490.484 92.16 489.897 92.16ZM490.137 90.8C490.852 90.8 491.428 90.56 491.865 90.08C492.303 89.5893 492.521 88.9653 492.521 88.208C492.521 87.6853 492.42 87.232 492.217 86.848C492.025 86.4533 491.748 86.1493 491.385 85.936C491.023 85.712 490.601 85.6 490.121 85.6C489.641 85.6 489.215 85.712 488.841 85.936C488.479 86.16 488.191 86.4693 487.977 86.864C487.775 87.248 487.673 87.6907 487.673 88.192C487.673 88.704 487.775 89.1573 487.977 89.552C488.191 89.936 488.484 90.24 488.857 90.464C489.231 90.688 489.657 90.8 490.137 90.8ZM492.425 92V89.952L492.697 88.096L492.425 86.256V84.4H493.881V92H492.425ZM41.056 116V104.576H42.496V116H41.056ZM48.0749 116.16C47.3282 116.16 46.6562 115.984 46.0589 115.632C45.4615 115.28 44.9869 114.805 44.6349 114.208C44.2829 113.6 44.1069 112.923 44.1069 112.176C44.1069 111.44 44.2829 110.779 44.6349 110.192C44.9869 109.595 45.4615 109.12 46.0589 108.768C46.6562 108.416 47.3282 108.24 48.0749 108.24C48.8109 108.24 49.4775 108.416 50.0749 108.768C50.6829 109.109 51.1629 109.579 51.5149 110.176C51.8669 110.773 52.0429 111.44 52.0429 112.176C52.0429 112.923 51.8669 113.6 51.5149 114.208C51.1629 114.805 50.6829 115.28 50.0749 115.632C49.4775 115.984 48.8109 116.16 48.0749 116.16ZM48.0749 114.768C48.5549 114.768 48.9815 114.656 49.3549 114.432C49.7282 114.208 50.0215 113.904 50.2349 113.52C50.4482 113.125 50.5549 112.677 50.5549 112.176C50.5549 111.685 50.4429 111.248 50.2189 110.864C50.0055 110.48 49.7122 110.181 49.3389 109.968C48.9762 109.744 48.5549 109.632 48.0749 109.632C47.5949 109.632 47.1682 109.744 46.7949 109.968C46.4215 110.181 46.1282 110.48 45.9149 110.864C45.7015 111.248 45.5949 111.685 45.5949 112.176C45.5949 112.677 45.7015 113.125 45.9149 113.52C46.1282 113.904 46.4215 114.208 46.7949 114.432C47.1682 114.656 47.5949 114.768 48.0749 114.768ZM57.1374 116.16C56.3907 116.16 55.7134 115.984 55.1054 115.632C54.508 115.28 54.0334 114.805 53.6814 114.208C53.34 113.6 53.1694 112.928 53.1694 112.192C53.1694 111.445 53.34 110.773 53.6814 110.176C54.0334 109.579 54.508 109.109 55.1054 108.768C55.7134 108.416 56.3907 108.24 57.1374 108.24C57.724 108.24 58.268 108.352 58.7694 108.576C59.2707 108.789 59.7027 109.104 60.0654 109.52L59.1054 110.48C58.8707 110.203 58.5827 109.995 58.2414 109.856C57.9107 109.707 57.5427 109.632 57.1374 109.632C56.6574 109.632 56.2307 109.744 55.8574 109.968C55.484 110.181 55.1907 110.48 54.9774 110.864C54.764 111.248 54.6574 111.691 54.6574 112.192C54.6574 112.693 54.764 113.136 54.9774 113.52C55.1907 113.904 55.484 114.208 55.8574 114.432C56.2307 114.656 56.6574 114.768 57.1374 114.768C57.5427 114.768 57.9107 114.699 58.2414 114.56C58.5827 114.411 58.876 114.197 59.1214 113.92L60.0654 114.88C59.7134 115.285 59.2814 115.6 58.7694 115.824C58.268 116.048 57.724 116.16 57.1374 116.16ZM66.3575 116L62.8055 112.112L66.3255 108.4H68.0695L64.1495 112.496L64.2135 111.664L68.2135 116H66.3575ZM61.4935 116V104.576H62.9335V116H61.4935ZM72.5448 116.16C71.7874 116.16 71.1048 115.989 70.4968 115.648C69.8888 115.296 69.4088 114.821 69.0568 114.224C68.7048 113.627 68.5288 112.949 68.5288 112.192C68.5288 111.445 68.6994 110.773 69.0408 110.176C69.3928 109.579 69.8621 109.109 70.4488 108.768C71.0461 108.416 71.7128 108.24 72.4488 108.24C73.1528 108.24 73.7714 108.4 74.3048 108.72C74.8488 109.04 75.2701 109.483 75.5688 110.048C75.8781 110.613 76.0328 111.253 76.0328 111.968C76.0328 112.075 76.0274 112.192 76.0168 112.32C76.0061 112.437 75.9848 112.576 75.9528 112.736H69.5368V111.536H75.1848L74.6568 112C74.6568 111.488 74.5661 111.056 74.3848 110.704C74.2034 110.341 73.9474 110.064 73.6168 109.872C73.2861 109.669 72.8861 109.568 72.4168 109.568C71.9261 109.568 71.4941 109.675 71.1208 109.888C70.7474 110.101 70.4594 110.4 70.2568 110.784C70.0541 111.168 69.9528 111.621 69.9528 112.144C69.9528 112.677 70.0594 113.147 70.2728 113.552C70.4861 113.947 70.7901 114.256 71.1848 114.48C71.5794 114.693 72.0328 114.8 72.5448 114.8C72.9714 114.8 73.3608 114.725 73.7128 114.576C74.0754 114.427 74.3848 114.203 74.6408 113.904L75.5688 114.848C75.2061 115.275 74.7581 115.6 74.2248 115.824C73.7021 116.048 73.1421 116.16 72.5448 116.16ZM80.8189 116.16C80.1149 116.16 79.4855 115.989 78.9309 115.648C78.3762 115.296 77.9335 114.821 77.6029 114.224C77.2829 113.627 77.1229 112.955 77.1229 112.208C77.1229 111.461 77.2829 110.789 77.6029 110.192C77.9335 109.595 78.3762 109.12 78.9309 108.768C79.4855 108.416 80.1149 108.24 80.8189 108.24C81.3842 108.24 81.8962 108.363 82.3549 108.608C82.8135 108.843 83.1815 109.173 83.4589 109.6C83.7469 110.016 83.9069 110.501 83.9389 111.056V113.344C83.9069 113.888 83.7522 114.373 83.4749 114.8C83.1975 115.227 82.8295 115.563 82.3709 115.808C81.9122 116.043 81.3949 116.16 80.8189 116.16ZM81.0589 114.8C81.5389 114.8 81.9549 114.688 82.3069 114.464C82.6695 114.24 82.9522 113.936 83.1549 113.552C83.3575 113.157 83.4589 112.709 83.4589 112.208C83.4589 111.685 83.3522 111.232 83.1389 110.848C82.9362 110.464 82.6535 110.16 82.2909 109.936C81.9389 109.712 81.5229 109.6 81.0429 109.6C80.5629 109.6 80.1415 109.712 79.7789 109.936C79.4162 110.16 79.1282 110.469 78.9149 110.864C78.7122 111.248 78.6109 111.691 78.6109 112.192C78.6109 112.704 78.7122 113.157 78.9149 113.552C79.1282 113.936 79.4162 114.24 79.7789 114.464C80.1522 114.688 80.5789 114.8 81.0589 114.8ZM84.8189 116H83.3629V113.952L83.6349 112.096L83.3629 110.256V104.576H84.8189V116ZM94.2435 116.16C93.6675 116.16 93.1448 116.043 92.6755 115.808C92.2168 115.563 91.8488 115.227 91.5715 114.8C91.2942 114.373 91.1395 113.888 91.1075 113.344V111.056C91.1395 110.501 91.2942 110.016 91.5715 109.6C91.8595 109.173 92.2328 108.843 92.6915 108.608C93.1608 108.363 93.6782 108.24 94.2435 108.24C94.9368 108.24 95.5608 108.416 96.1155 108.768C96.6808 109.12 97.1235 109.595 97.4435 110.192C97.7635 110.789 97.9235 111.461 97.9235 112.208C97.9235 112.955 97.7635 113.627 97.4435 114.224C97.1235 114.821 96.6808 115.296 96.1155 115.648C95.5608 115.989 94.9368 116.16 94.2435 116.16ZM94.0035 114.8C94.4835 114.8 94.9048 114.688 95.2675 114.464C95.6302 114.24 95.9182 113.936 96.1315 113.552C96.3448 113.157 96.4515 112.704 96.4515 112.192C96.4515 111.691 96.3448 111.243 96.1315 110.848C95.9182 110.453 95.6302 110.149 95.2675 109.936C94.9048 109.712 94.4888 109.6 94.0195 109.6C93.5395 109.6 93.1182 109.712 92.7555 109.936C92.3928 110.149 92.1102 110.453 91.9075 110.848C91.7048 111.243 91.6035 111.696 91.6035 112.208C91.6035 112.709 91.6995 113.157 91.8915 113.552C92.0942 113.936 92.3768 114.24 92.7395 114.464C93.1128 114.688 93.5342 114.8 94.0035 114.8ZM90.2435 119.184V108.4H91.6835V110.4L91.4115 112.24L91.6835 114.096V119.184H90.2435ZM103.028 116.16C102.281 116.16 101.609 115.984 101.012 115.632C100.415 115.28 99.94 114.805 99.588 114.208C99.236 113.6 99.06 112.923 99.06 112.176C99.06 111.44 99.236 110.779 99.588 110.192C99.94 109.595 100.415 109.12 101.012 108.768C101.609 108.416 102.281 108.24 103.028 108.24C103.764 108.24 104.431 108.416 105.028 108.768C105.636 109.109 106.116 109.579 106.468 110.176C106.82 110.773 106.996 111.44 106.996 112.176C106.996 112.923 106.82 113.6 106.468 114.208C106.116 114.805 105.636 115.28 105.028 115.632C104.431 115.984 103.764 116.16 103.028 116.16ZM103.028 114.768C103.508 114.768 103.935 114.656 104.308 114.432C104.681 114.208 104.975 113.904 105.188 113.52C105.401 113.125 105.508 112.677 105.508 112.176C105.508 111.685 105.396 111.248 105.172 110.864C104.959 110.48 104.665 110.181 104.292 109.968C103.929 109.744 103.508 109.632 103.028 109.632C102.548 109.632 102.121 109.744 101.748 109.968C101.375 110.181 101.081 110.48 100.868 110.864C100.655 111.248 100.548 111.685 100.548 112.176C100.548 112.677 100.655 113.125 100.868 113.52C101.081 113.904 101.375 114.208 101.748 114.432C102.121 114.656 102.548 114.768 103.028 114.768ZM112.091 116.16C111.344 116.16 110.672 115.984 110.075 115.632C109.477 115.28 109.003 114.805 108.651 114.208C108.299 113.6 108.123 112.923 108.123 112.176C108.123 111.44 108.299 110.779 108.651 110.192C109.003 109.595 109.477 109.12 110.075 108.768C110.672 108.416 111.344 108.24 112.091 108.24C112.827 108.24 113.493 108.416 114.091 108.768C114.699 109.109 115.179 109.579 115.531 110.176C115.883 110.773 116.059 111.44 116.059 112.176C116.059 112.923 115.883 113.6 115.531 114.208C115.179 114.805 114.699 115.28 114.091 115.632C113.493 115.984 112.827 116.16 112.091 116.16ZM112.091 114.768C112.571 114.768 112.997 114.656 113.371 114.432C113.744 114.208 114.037 113.904 114.251 113.52C114.464 113.125 114.571 112.677 114.571 112.176C114.571 111.685 114.459 111.248 114.235 110.864C114.021 110.48 113.728 110.181 113.355 109.968C112.992 109.744 112.571 109.632 112.091 109.632C111.611 109.632 111.184 109.744 110.811 109.968C110.437 110.181 110.144 110.48 109.931 110.864C109.717 111.248 109.611 111.685 109.611 112.176C109.611 112.677 109.717 113.125 109.931 113.52C110.144 113.904 110.437 114.208 110.811 114.432C111.184 114.656 111.611 114.768 112.091 114.768ZM117.681 116V104.576H119.121V116H117.681ZM122.492 116.16C122.193 116.16 121.943 116.059 121.74 115.856C121.548 115.643 121.452 115.392 121.452 115.104C121.452 114.805 121.548 114.56 121.74 114.368C121.943 114.165 122.193 114.064 122.492 114.064C122.791 114.064 123.036 114.165 123.228 114.368C123.431 114.56 123.532 114.805 123.532 115.104C123.532 115.392 123.431 115.643 123.228 115.856C123.036 116.059 122.791 116.16 122.492 116.16Z" fill="#F6F6F2"/>
</g>
<defs>
<filter id="filter0_d_771_66690" x="166.859" y="-273.656" width="1462.96" height="1050.81" filterUnits="userSpaceOnUse" color-interpolation-filters="sRGB">
<feFlood flood-opacity="0" result="BackgroundImageFix"/>
<feColorMatrix in="SourceAlpha" type="matrix" values="0 0 0 0 0 0 0 0 0 0 0 0 0 0 0 0 0 0 127 0" result="hardAlpha"/>
<feOffset dy="-4"/>
<feGaussianBlur stdDeviation="25"/>
<feComposite in2="hardAlpha" operator="out"/>
<feColorMatrix type="matrix" values="0 0 0 0 0.933333 0 0 0 0 0.207843 0 0 0 0 0.219608 0 0 0 0.2 0"/>
<feBlend mode="normal" in2="BackgroundImageFix" result="effect1_dropShadow_771_66690"/>
<feBlend mode="normal" in="SourceGraphic" in2="effect1_dropShadow_771_66690" result="shape"/>
</filter>
<filter id="filter1_d_771_66690" x="310.609" y="-173.387" width="1175.47" height="850.27" filterUnits="userSpaceOnUse" color-interpolation-filters="sRGB">
<feFlood flood-opacity="0" result="BackgroundImageFix"/>
<feColorMatrix in="SourceAlpha" type="matrix" values="0 0 0 0 0 0 0 0 0 0 0 0 0 0 0 0 0 0 127 0" result="hardAlpha"/>
<feOffset dy="-4"/>
<feGaussianBlur stdDeviation="25"/>
<feComposite in2="hardAlpha" operator="out"/>
<feColorMatrix type="matrix" values="0 0 0 0 0.933333 0 0 0 0 0.207843 0 0 0 0 0.219608 0 0 0 0.2 0"/>
<feBlend mode="normal" in2="BackgroundImageFix" result="effect1_dropShadow_771_66690"/>
<feBlend mode="normal" in="SourceGraphic" in2="effect1_dropShadow_771_66690" result="shape"/>
</filter>
<filter id="filter2_d_771_66690" x="454.148" y="-73.1445" width="888.383" height="649.785" filterUnits="userSpaceOnUse" color-interpolation-filters="sRGB">
<feFlood flood-opacity="0" result="BackgroundImageFix"/>
<feColorMatrix in="SourceAlpha" type="matrix" values="0 0 0 0 0 0 0 0 0 0 0 0 0 0 0 0 0 0 127 0" result="hardAlpha"/>
<feOffset dy="-4"/>
<feGaussianBlur stdDeviation="25"/>
<feComposite in2="hardAlpha" operator="out"/>
<feColorMatrix type="matrix" values="0 0 0 0 0.952941 0 0 0 0 0.423529 0 0 0 0 0.141176 0 0 0 0.6 0"/>
<feBlend mode="normal" in2="BackgroundImageFix" result="effect1_dropShadow_771_66690"/>
<feBlend mode="normal" in="SourceGraphic" in2="effect1_dropShadow_771_66690" result="shape"/>
</filter>
<filter id="filter3_d_771_66690" x="606.281" y="32.9062" width="584.133" height="437.691" filterUnits="userSpaceOnUse" color-interpolation-filters="sRGB">
<feFlood flood-opacity="0" result="BackgroundImageFix"/>
<feColorMatrix in="SourceAlpha" type="matrix" values="0 0 0 0 0 0 0 0 0 0 0 0 0 0 0 0 0 0 127 0" result="hardAlpha"/>
<feOffset dy="-4"/>
<feGaussianBlur stdDeviation="25"/>
<feComposite in2="hardAlpha" operator="out"/>
<feColorMatrix type="matrix" values="0 0 0 0 0.0313726 0 0 0 0 0.541176 0 0 0 0 0.709804 0 0 0 0.2 0"/>
<feBlend mode="normal" in2="BackgroundImageFix" result="effect1_dropShadow_771_66690"/>
<feBlend mode="normal" in="SourceGraphic" in2="effect1_dropShadow_771_66690" result="shape"/>
</filter>
<radialGradient id="paint0_radial_771_66690" cx="0" cy="0" r="1" gradientUnits="userSpaceOnUse" gradientTransform="translate(1766.25 146.555) scale(3429.91 277.118)">
<stop stop-color="#F36C24"/>
<stop offset="0.0185" stop-color="#E96E2A"/>
<stop offset="0.0493" stop-color="#D67536"/>
<stop offset="0.0885" stop-color="#B67C4A"/>
<stop offset="0.1347" stop-color="#868463"/>
<stop offset="0.1863" stop-color="#288B7F"/>
<stop offset="0.1912" stop-color="#088B82"/>
<stop offset="0.2813" stop-color="#088AB5"/>
<stop offset="0.3043" stop-color="#3189AF"/>
<stop offset="0.3424" stop-color="#5D879F"/>
<stop offset="0.3911" stop-color="#898384"/>
<stop offset="0.4484" stop-color="#B97C60"/>
<stop offset="0.5123" stop-color="#EF6D28"/>
<stop offset="0.5151" stop-color="#F36C24"/>
<stop offset="0.7699" stop-color="#EF3F36"/>
<stop offset="0.9944" stop-color="#088B82"/>
</radialGradient>
<linearGradient id="paint1_linear_771_66690" x1="970.836" y1="122.209" x2="232.373" y2="660.128" gradientUnits="userSpaceOnUse">
<stop stop-color="white" stop-opacity="0.08"/>
<stop offset="1" stop-color="white" stop-opacity="0"/>
</linearGradient>
<linearGradient id="paint2_linear_771_66690" x1="1178.93" y1="148.403" x2="282.181" y2="801.623" gradientUnits="userSpaceOnUse">
<stop stop-color="white" stop-opacity="0.08"/>
<stop offset="1" stop-color="white" stop-opacity="0"/>
</linearGradient>
<linearGradient id="paint3_linear_771_66690" x1="766.053" y1="96.433" x2="183.347" y2="520.884" gradientUnits="userSpaceOnUse">
<stop stop-color="white" stop-opacity="0.08"/>
<stop offset="1" stop-color="white" stop-opacity="0"/>
</linearGradient>
<linearGradient id="paint4_linear_771_66690" x1="561.567" y1="70.6616" x2="134.532" y2="381.852" gradientUnits="userSpaceOnUse">
<stop stop-color="white" stop-opacity="0.08"/>
<stop offset="1" stop-color="white" stop-opacity="0"/>
</linearGradient>
<linearGradient id="paint5_linear_771_66690" x1="344.849" y1="43.4031" x2="82.568" y2="234.486" gradientUnits="userSpaceOnUse">
<stop stop-color="white" stop-opacity="0.1"/>
<stop offset="1" stop-color="white" stop-opacity="0"/>
</linearGradient>
<linearGradient id="paint6_linear_771_66690" x1="281.931" y1="43.4031" x2="39.6447" y2="187.713" gradientUnits="userSpaceOnUse">
<stop stop-color="white" stop-opacity="0.08"/>
<stop offset="1" stop-color="white" stop-opacity="0"/>
</linearGradient>
<radialGradient id="paint7_radial_771_66690" cx="0" cy="0" r="1" gradientUnits="userSpaceOnUse" gradientTransform="translate(441.165 327.432) rotate(90) scale(327.432 441.165)">
<stop stop-color="#E1443B" stop-opacity="0.4"/>
<stop offset="1" stop-color="#E1443B" stop-opacity="0"/>
</radialGradient>
<clipPath id="clip0_771_66690">
<path d="M0 24C0 10.7452 10.7452 0 24 0H994C1007.25 0 1018 10.7452 1018 24V152H0V24Z" fill="white"/>
</clipPath>
</defs>
</svg>
