<svg width="24" height="24" viewBox="0 0 24 24" fill="none" xmlns="http://www.w3.org/2000/svg">
<circle cx="12" cy="12.0039" r="12" fill="url(#paint0_linear_2736_32305)"/>
<path opacity="0.3" d="M6.95764 19.4134L12.0113 16.7278L17.0633 19.412C19.3071 20.6042 21.7439 18.1804 20.5508 15.943L14.2864 4.19459C13.3177 2.3779 10.7049 2.37783 9.73611 4.19447L3.47007 15.9443C2.27683 18.1818 4.71375 20.6059 6.95764 19.4134Z" fill="white"/>
<path d="M15.1175 18.0583C14.4824 18.2647 13.6739 18.4334 13.0002 18.4334C10.4016 18.4334 9.40085 17.4584 9.40085 14.9837V11.621H7.4375V11.3782L12.6537 4.60938V8.65888H15.1175V11.621H12.6537V14.3463C12.6537 15.2462 13.0772 15.6025 13.7508 15.6025C14.232 15.6025 14.6555 15.49 15.1175 15.2088V18.0583Z" fill="white"/>
<defs>
<linearGradient id="paint0_linear_2736_32305" x1="0.738463" y1="0.00390528" x2="19.9395" y2="25.6212" gradientUnits="userSpaceOnUse">
<stop offset="0.198337" stop-color="#FF4A3F"/>
<stop offset="0.75" stop-color="#F36C24"/>
<stop offset="1" stop-color="#088AB5"/>
</linearGradient>
</defs>
</svg>
