<svg width="200" height="24" viewBox="0 0 200 24" fill="none" xmlns="http://www.w3.org/2000/svg">
<path d="M7.8144 4.56901C14.0393 -1.523 24.1318 -1.523 30.3567 4.56901L31.1059 5.30218C31.4171 5.60682 31.4171 6.10064 31.1059 6.40528L28.5431 8.91333C28.3875 9.06565 28.1352 9.06565 27.9795 8.91333L26.9485 7.90443C22.606 3.65444 15.5651 3.65444 11.2226 7.90443L10.1185 8.98487C9.96287 9.13719 9.7105 9.13719 9.5549 8.98487L6.99209 6.47682C6.6809 6.17218 6.6809 5.67835 6.99209 5.37372L7.8144 4.56901ZM35.6568 9.75601L37.9376 11.9881C38.2489 12.2928 38.2489 12.7866 37.9376 13.0912L27.653 23.1566C27.3418 23.4611 26.8372 23.4611 26.5259 23.1566L19.2264 16.0129C19.1486 15.9367 19.0226 15.9367 18.9448 16.0129L11.6454 23.1566C11.3342 23.4611 10.8296 23.4611 10.5184 23.1566L0.233435 13.0911C-0.0778117 12.7865 -0.0778117 12.2927 0.233435 11.988L2.51431 9.75591C2.82555 9.45127 3.33018 9.45127 3.64143 9.75591L10.941 16.8995C11.0188 16.9757 11.1449 16.9757 11.2227 16.8995L18.5219 9.75591C18.8331 9.45127 19.3377 9.45127 19.6489 9.75581L26.9484 16.8995C27.0263 16.9757 27.1524 16.9757 27.2302 16.8995L34.5297 9.75601C34.8409 9.45137 35.3455 9.45137 35.6568 9.75601Z" fill="#3396FF"/>
<path d="M51.888 19.9088L54.6432 8.88804C54.8066 8.28095 54.9467 7.62715 55.1335 6.59987C55.2736 7.62715 55.437 8.28095 55.5538 8.88804L57.9354 19.9088H62.862L67.0182 3.56445H63.2356L60.9474 13.6046C60.7139 14.5852 60.5738 15.3557 60.4104 16.4998C60.2236 15.4024 60.0368 14.5852 59.8267 13.6279L57.6085 3.56445H52.6585L50.2536 13.6279C50.0434 14.5852 49.88 15.3557 49.6932 16.4998C49.5064 15.3557 49.3429 14.5852 49.1328 13.6279L46.8913 3.56445H42.9453L47.0781 19.9088H51.888Z" fill="black"/>
<path d="M69.8366 20.3285C71.7045 20.3285 72.8953 19.5581 73.5024 18.4373C73.4324 18.7875 73.409 19.1378 73.409 19.488V19.9083H76.5378V13.1605C76.5378 9.93829 75.0668 8.07031 71.4711 8.07031C68.3656 8.07031 66.3343 9.79819 66.1475 12.1798H69.5798C69.6965 11.129 70.4437 10.4986 71.5879 10.4986C72.6618 10.4986 73.2456 11.1057 73.2456 11.8062C73.2456 12.3199 72.942 12.6234 72.0314 12.7402L70.397 12.927C67.9687 13.2305 65.8906 14.1177 65.8906 16.6862C65.8906 19.021 67.8287 20.3285 69.8366 20.3285ZM70.8874 17.9236C69.9767 17.9236 69.2996 17.4099 69.2996 16.5227C69.2996 15.6588 70.0701 15.2385 71.2376 15.0283L72.0314 14.8882C72.7085 14.7481 73.0821 14.6314 73.3156 14.4212V15.4953C73.3156 16.9429 72.2649 17.9236 70.8874 17.9236Z" fill="black"/>
<path d="M78.1641 3.56445V19.9088H81.5497V3.56445H78.1641Z" fill="black"/>
<path d="M83.5078 3.56445V19.9088H86.8934V3.56445H83.5078Z" fill="black"/>
<path d="M94.2899 20.3285C97.512 20.3285 99.5906 18.5073 99.8241 16.1258H96.415C96.2511 17.1764 95.3638 17.7601 94.2899 17.7601C92.8422 17.7601 91.7916 16.5928 91.7682 14.9816H99.8936V14.3278C99.8936 10.5453 97.816 8.07031 94.2199 8.07031C90.7642 8.07031 88.3359 10.4986 88.3359 14.1644C88.3359 18.1337 90.8343 20.3285 94.2899 20.3285ZM91.7449 12.7635C91.885 11.4559 92.8422 10.4986 94.1965 10.4986C95.5039 10.4986 96.415 11.4092 96.4379 12.7635H91.7449Z" fill="black"/>
<path d="M107.054 20.1435C107.801 20.1435 108.525 20.0268 108.852 19.9334V17.3649C108.595 17.4116 108.292 17.435 108.034 17.435C106.797 17.435 106.353 16.7346 106.353 15.5904V11.1074H109.108V8.46897H106.353V4.40625H102.991V8.46897H100.516V11.1074H102.991V16.0574C102.991 18.7659 104.345 20.1435 107.054 20.1435Z" fill="black"/>
<path d="M118.485 20.3295C123.108 20.3295 125.91 17.6209 126.26 13.7216H122.594C122.314 15.8464 120.82 17.294 118.625 17.294C116.034 17.294 114.212 15.1926 114.212 11.6436C114.212 8.16456 116.103 6.17993 118.695 6.17993C120.913 6.17993 122.174 7.53412 122.43 9.51884H126.19C125.817 5.45609 122.828 3.14453 118.718 3.14453C114.026 3.14453 110.43 6.32003 110.43 11.6436C110.43 17.1539 113.581 20.3295 118.485 20.3295Z" fill="black"/>
<path d="M133.602 20.3285C137.128 20.3285 139.626 18.1104 139.626 14.2344C139.626 10.4285 137.128 8.07031 133.602 8.07031C130.1 8.07031 127.602 10.4285 127.602 14.2344C127.602 18.1104 130.077 20.3285 133.602 20.3285ZM133.602 17.7134C132.038 17.7134 131.033 16.4293 131.033 14.2344C131.033 11.993 132.085 10.7321 133.602 10.7321C135.143 10.7321 136.194 11.993 136.194 14.2344C136.194 16.4293 135.167 17.7134 133.602 17.7134Z" fill="black"/>
<path d="M144.347 19.9083V13.2072C144.347 11.7828 145.233 10.7321 146.494 10.7321C147.686 10.7321 148.386 11.6427 148.386 13.1605V19.9083H151.771V12.6701C151.771 9.91494 150.324 8.07031 147.732 8.07031C145.934 8.07031 144.837 8.93425 144.254 9.96164C144.323 9.54134 144.347 9.21445 144.347 8.9109V8.46726H140.961V19.9083H144.347Z" fill="black"/>
<path d="M157.182 19.9083V13.2072C157.182 11.7828 158.069 10.7321 159.33 10.7321C160.521 10.7321 161.221 11.6427 161.221 13.1605V19.9083H164.607V12.6701C164.607 9.91494 163.16 8.07031 160.567 8.07031C158.77 8.07031 157.672 8.93425 157.089 9.96164C157.158 9.54134 157.182 9.21445 157.182 8.9109V8.46726H153.797V19.9083H157.182Z" fill="black"/>
<path d="M171.891 20.3285C175.113 20.3285 177.191 18.5073 177.425 16.1258H174.016C173.853 17.1764 172.965 17.7601 171.891 17.7601C170.443 17.7601 169.393 16.5928 169.369 14.9816H177.495V14.3278C177.495 10.5453 175.416 8.07031 171.822 8.07031C168.366 8.07031 165.938 10.4986 165.938 14.1644C165.938 18.1337 168.435 20.3285 171.891 20.3285ZM169.347 12.7635C169.487 11.4559 170.443 10.4986 171.798 10.4986C173.105 10.4986 174.016 11.4092 174.039 12.7635H169.347Z" fill="black"/>
<path d="M184.759 20.3285C188.308 20.3285 190.246 18.3906 190.62 15.3786H187.234C187.117 16.6395 186.393 17.7134 184.876 17.7134C183.335 17.7134 182.284 16.2892 182.284 14.1877C182.284 11.8996 183.499 10.7321 184.945 10.7321C186.37 10.7321 187.071 11.7595 187.164 12.9503H190.549C190.293 10.1718 188.401 8.07031 184.922 8.07031C181.537 8.07031 178.852 10.3118 178.852 14.1877C178.852 18.017 181.117 20.3285 184.759 20.3285Z" fill="black"/>
<path d="M197.944 20.1435C198.691 20.1435 199.416 20.0268 199.743 19.9334V17.3649C199.485 17.4116 199.182 17.435 198.925 17.435C197.688 17.435 197.244 16.7346 197.244 15.5904V11.1074H199.999V8.46897H197.244V4.40625H193.881V8.46897H191.406V11.1074H193.881V16.0574C193.881 18.7659 195.236 20.1435 197.944 20.1435Z" fill="black"/>
</svg>
