<svg width="24" height="24" viewBox="0 0 24 24" fill="none" xmlns="http://www.w3.org/2000/svg">
<path fill-rule="evenodd" clip-rule="evenodd" d="M16.6067 3.27873C17.5709 3.86553 18.2138 4.88264 18.2138 5.978C18.2138 7.11247 17.5709 8.12958 16.6067 8.71638C15.6022 9.26406 14.3567 9.26406 13.3924 8.71638C12.3879 8.12958 11.7852 7.11247 11.7852 5.978C11.7852 4.88264 12.3879 3.86553 13.3924 3.27873C14.3567 2.73105 15.6022 2.73105 16.6067 3.27873ZM12.4281 1.67482C10.8209 2.57457 9.85666 4.2176 9.85666 5.978C9.85666 7.77751 10.8209 9.42054 12.4281 10.3203C13.995 11.22 15.9638 11.22 17.5709 10.3203C19.1379 9.42054 20.1424 7.77751 20.1424 5.978C20.1424 4.2176 19.1379 2.57457 17.5709 1.67482C15.9638 0.775061 13.995 0.775061 12.4281 1.67482ZM10.5281 19.1222H21.9906C21.629 16.6577 19.4593 14.7408 16.8075 14.7408H13.1513C12.2688 14.7408 11.4397 14.9531 10.7129 15.3273C10.4977 14.721 10.1688 14.1685 9.75197 13.6955C10.7605 13.1643 11.9172 12.8631 13.1513 12.8631H16.8075C20.7852 12.8631 23.9995 15.9927 23.9995 19.8655C23.9995 20.4914 23.437 21 22.7942 21H9C9.65092 20.511 10.1786 19.8667 10.5281 19.1222Z" fill="#17271F"/>
<path d="M6.05471 10.9453C6.89846 10.9453 7.64847 11.4375 8.02347 12.1641C8.79691 11.9063 9.68754 12.0938 10.2969 12.7031C10.9063 13.3125 11.0938 14.2031 10.836 14.9766C11.5625 15.3516 12.0547 16.1016 12.0547 16.9453C12.0547 17.8125 11.5625 18.5625 10.836 18.9375C11.0938 19.711 10.9063 20.5782 10.2969 21.1875C9.68754 21.7969 8.79691 21.9844 8.02347 21.75C7.64847 22.4766 6.89846 22.9454 6.05471 22.9454C5.18752 22.9454 4.43752 22.4766 4.06252 21.75C3.28907 21.9844 2.42188 21.7969 1.81251 21.1875C1.20313 20.5782 1.01563 19.711 1.25 18.9375C0.523439 18.5625 0.0546875 17.8125 0.0546875 16.9453C0.0546875 16.1016 0.523439 15.3516 1.25 14.9766C1.01563 14.2031 1.20313 13.3125 1.81251 12.7031C2.42188 12.0938 3.28907 11.9063 4.06252 12.1641C4.43752 11.4375 5.18752 10.9453 6.05471 10.9453ZM8.70316 15.8438C8.9141 15.6328 8.9141 15.2813 8.70316 15.0703C8.46878 14.836 8.11722 14.836 7.90628 15.0703L5.30471 17.6719L4.20314 16.5703C3.96876 16.336 3.6172 16.336 3.40626 16.5703C3.17189 16.7813 3.17189 17.1328 3.40626 17.3438L4.90627 18.8438C5.11721 19.0782 5.46877 19.0782 5.70315 18.8438L8.70316 15.8438Z" fill="#FF4A3F"/>
</svg>
