<svg width="24" height="24" viewBox="0 0 24 24" fill="none" xmlns="http://www.w3.org/2000/svg">
<path d="M3.0625 3.01786V17.9464C3.0625 18.5402 3.49219 18.9643 4.09375 18.9643H21.9688C22.5273 18.9643 23 19.4308 23 19.9821C23 20.5759 22.5273 21 21.9688 21H4.09375C2.375 21 1 19.6429 1 17.9464V3.01786C1 2.46652 1.42969 2 2.03125 2C2.58984 2 3.0625 2.46652 3.0625 3.01786Z" fill="#17271F"/>
<path d="M20.877 7.71763L14.9902 13.4855C14.6035 13.9096 13.959 13.9096 13.5723 13.4855L10.1777 10.135L6.7832 13.4855C6.35352 13.9096 5.70898 13.9096 5.32227 13.4855C4.89258 13.1038 4.89258 12.4676 5.32227 12.0859L9.44727 8.01451C9.61914 7.80246 9.87695 7.71763 10.1777 7.71763C10.4355 7.71763 10.6934 7.80246 10.9082 8.01451L14.3027 11.365L19.416 6.31808C19.8027 5.89397 20.4473 5.89397 20.877 6.31808C21.2637 6.69978 21.2637 7.33594 20.877 7.71763Z" fill="#FF4A3F"/>
</svg>
