<svg width="24" height="24" viewBox="0 0 24 24" fill="none" xmlns="http://www.w3.org/2000/svg">
<path d="M20.9375 11.9785C20.9375 8.79883 19.2188 5.87695 16.4688 4.24414C13.6758 2.6543 10.2812 2.6543 7.53125 4.24414C4.73828 5.87695 3.0625 8.79883 3.0625 11.9785C3.0625 15.2012 4.73828 18.123 7.53125 19.7559C10.2812 21.3457 13.6758 21.3457 16.4688 19.7559C19.2188 18.123 20.9375 15.2012 20.9375 11.9785ZM1 11.9785C1 8.06836 3.0625 4.45898 6.5 2.48242C9.89453 0.505859 14.0625 0.505859 17.5 2.48242C20.8945 4.45898 23 8.06836 23 11.9785C23 15.9316 20.8945 19.541 17.5 21.5176C14.0625 23.4941 9.89453 23.4941 6.5 21.5176C3.0625 19.541 1 15.9316 1 11.9785Z" fill="#17271F"/>
<path d="M10.9688 6.13477C10.9688 5.57617 11.3984 5.10352 12 5.10352C12.5586 5.10352 13.0313 5.57617 13.0313 6.13477V11.4629L16.6836 13.8691C17.1563 14.2129 17.2852 14.8574 16.9844 15.3301C16.6406 15.8027 15.9961 15.9316 15.5234 15.5879L11.3984 12.8379C11.1406 12.666 10.9688 12.3223 10.9688 11.9785V6.13477Z" fill="#FF4A3F"/>
</svg>
