<svg width="24" height="24" viewBox="0 0 24 24" fill="none" xmlns="http://www.w3.org/2000/svg">
<path d="M20.6356 2.19816L16.5819 3.64217C15.8474 3.90383 15.7904 4.90573 16.4896 5.22895L17.9899 5.92248L16.3533 9.28732L12.9545 7.71617C12.3757 7.44861 11.6789 7.69682 11.3996 8.27006L9.8646 11.4206C9.72384 11.7095 9.84484 12.0492 10.1354 12.1807L11.1818 12.6644C11.4736 12.7993 11.8202 12.6758 11.9576 12.3881L12.9923 10.2761L16.391 11.8473C16.9698 12.1148 17.6666 11.8666 17.9459 11.2934L20.0909 6.89091L21.5912 7.58444C22.2904 7.90766 23.0512 7.23112 22.7948 6.51139L21.3799 2.53942C21.2745 2.24346 20.9411 2.08934 20.6391 2.19694L20.6356 2.19816Z" fill="#FF4A3F"/>
<path fill-rule="evenodd" clip-rule="evenodd" d="M9.02819 8.10938C4.43454 8.62654 1 10.9149 1 13.625V18C1 20.7734 5.45312 23 11 23C16.5078 23 21 20.7734 21 18V13.625C21 12.9674 20.796 12.3346 20.4217 11.746C20.0007 12.2335 19.5086 12.6578 18.9614 13.0027C19.0769 13.2385 19.125 13.4498 19.125 13.625C19.125 14.2109 18.6562 15.1094 17.1328 15.9688C15.6484 16.8281 13.5 17.375 11 17.375C8.5 17.375 6.3125 16.8281 4.82812 15.9688C3.30469 15.1094 2.875 14.2109 2.875 13.625C2.875 13.0781 3.30469 12.1797 4.82812 11.2813C6.00226 10.6324 7.61632 10.1302 9.47698 9.94858C9.2424 9.37213 9.08816 8.75443 9.02819 8.10938ZM9.4375 19.2109V21.0859C9.90625 21.125 10.4531 21.125 11 21.125C11.5078 21.125 12.0547 21.125 12.5625 21.0859V19.2109C12.0547 19.25 11.5078 19.25 11 19.25C10.4531 19.25 9.94531 19.25 9.4375 19.2109ZM8.1875 19.0547C7.28906 18.8984 6.42969 18.7031 5.6875 18.4297V20.2656C6.39062 20.5391 7.25 20.7734 8.1875 20.9297V19.0547ZM2.875 16.9063V18C2.875 18.2734 3.10938 18.9766 4.4375 19.7188V17.8828C3.85156 17.6094 3.30469 17.2969 2.875 16.9063ZM13.8125 20.9297C14.7109 20.7734 15.5703 20.5391 16.3125 20.2656V18.3906C15.5312 18.6641 14.6719 18.8984 13.8125 19.0547V20.9297ZM17.5625 19.6797C18.8516 18.9766 19.125 18.2734 19.125 18V16.9063C18.6562 17.2578 18.1484 17.6094 17.5625 17.8828V19.6797Z" fill="#17271F"/>
</svg>
