<svg width="24" height="24" viewBox="0 0 24 24" fill="none" xmlns="http://www.w3.org/2000/svg">
<path fill-rule="evenodd" clip-rule="evenodd" d="M23 9.875C23 6.3776 18.0586 3.5 12 3.5C5.89844 3.5 1 6.3776 1 9.875V14.8333C1 17.9766 5.89844 20.5 12 20.5C18.0586 20.5 23 17.9766 23 14.8333V9.875ZM12 14.125C9.25 14.125 6.84375 13.5052 5.21094 12.5312C3.53516 11.5573 3.0625 10.5391 3.0625 9.875C3.0625 9.25521 3.53516 8.23698 5.21094 7.21875C6.84375 6.28906 9.25 5.625 12 5.625C14.75 5.625 17.1133 6.28906 18.7461 7.21875C20.4219 8.23698 20.9375 9.25521 20.9375 9.875C20.9375 10.5391 20.4219 11.5573 18.7461 12.5312C17.1133 13.5052 14.75 14.125 12 14.125ZM10.2812 18.3307V16.2057C10.8398 16.25 11.3984 16.25 12 16.25C12.5586 16.25 13.1602 16.25 13.7188 16.2057V18.3307C13.1602 18.375 12.5586 18.375 12 18.375C11.3984 18.375 10.7969 18.375 10.2812 18.3307ZM6.15625 15.3203C6.97266 15.6302 7.91797 15.8516 8.90625 16.0286V18.1536C7.875 17.9766 6.92969 17.7109 6.15625 17.401V15.3203ZM3.0625 14.8333V13.5938C3.53516 14.0365 4.13672 14.3906 4.78125 14.7005V16.7812C3.32031 15.9401 3.0625 15.1432 3.0625 14.8333ZM17.8438 17.401C17.0273 17.7109 16.082 17.9766 15.0938 18.1536V16.0286C16.0391 15.8516 16.9844 15.5859 17.8438 15.276V17.401ZM20.9375 14.8333C20.9375 15.1432 20.6367 15.9401 19.2188 16.737V14.7005C19.8633 14.3906 20.4219 13.9922 20.9375 13.5938V14.8333Z" fill="#17271F"/>
<path fill-rule="evenodd" clip-rule="evenodd" d="M7.10575 7.39161C8.37534 6.95559 10.1198 6.69141 11.9984 6.69141C13.8339 6.69141 15.5784 6.95553 16.8482 7.39161L16.8481 7.39189L16.8571 7.39438C17.4826 7.56622 18.0673 7.86743 18.5257 8.21092L18.5257 8.21094L18.5279 8.21255C18.9407 8.51029 19.4109 9.04658 19.4109 9.72891C19.4109 10.4571 18.9387 10.9932 18.5279 11.2895L18.5279 11.2895L18.5257 11.2912C18.0714 11.6315 17.487 11.8911 16.8482 12.1105C15.5805 12.5458 13.8369 12.7664 11.9984 12.7664C10.1168 12.7664 8.37327 12.5458 7.10575 12.1105L7.10585 12.1102L7.09677 12.1077C6.47132 11.9359 5.88665 11.6347 5.42823 11.2912L5.42824 11.2911L5.42602 11.2895C5.02098 10.9974 4.58594 10.4622 4.58594 9.72891C4.58594 9.04159 5.01913 8.506 5.42602 8.21255L5.42604 8.21257L5.42823 8.21092C5.88665 7.86743 6.47132 7.56622 7.09677 7.39438L7.09685 7.39466L7.10575 7.39161ZM11.9984 8.51641C10.2221 8.51641 8.70426 8.78415 7.61702 9.0978L7.61696 9.09762L7.60987 9.10006C7.08841 9.27915 6.72664 9.46262 6.53563 9.61021L6.40276 9.71288L6.51971 9.83338C6.71845 10.0381 7.09268 10.2244 7.60987 10.402L7.60981 10.4022L7.61702 10.4043C8.70704 10.7187 10.2253 10.9414 11.9984 10.9414C13.7289 10.9414 15.247 10.7187 16.3369 10.4043L16.3369 10.4045L16.344 10.402C16.8665 10.2226 17.2298 10.0384 17.4649 9.84466L17.6266 9.71144L17.4484 9.60132C17.2234 9.4622 16.8694 9.28048 16.344 9.10006L16.3441 9.09988L16.3369 9.0978C15.2499 8.78421 13.732 8.51641 11.9984 8.51641Z" fill="#FF4A3F"/>
</svg>
