<svg width="24" height="24" viewBox="0 0 24 24" fill="none" xmlns="http://www.w3.org/2000/svg">
<path fill-rule="evenodd" clip-rule="evenodd" d="M10.0282 8.10938C5.43454 8.62654 2 10.9149 2 13.625V18C2 20.7734 6.45312 23 12 23C17.5078 23 22 20.7734 22 18V13.625C22 12.9674 21.796 12.3346 21.4217 11.746C21.0007 12.2335 20.5086 12.6578 19.9614 13.0027C20.0769 13.2385 20.125 13.4498 20.125 13.625C20.125 14.2109 19.6562 15.1094 18.1328 15.9688C16.6484 16.8281 14.5 17.375 12 17.375C9.5 17.375 7.3125 16.8281 5.82812 15.9688C4.30469 15.1094 3.875 14.2109 3.875 13.625C3.875 13.0781 4.30469 12.1797 5.82812 11.2813C7.00226 10.6324 8.61632 10.1302 10.477 9.94858C10.2424 9.37213 10.0882 8.75443 10.0282 8.10938ZM10.4375 19.2109V21.0859C10.9062 21.125 11.4531 21.125 12 21.125C12.5078 21.125 13.0547 21.125 13.5625 21.0859V19.2109C13.0547 19.25 12.5078 19.25 12 19.25C11.4531 19.25 10.9453 19.25 10.4375 19.2109ZM9.1875 19.0547C8.28906 18.8984 7.42969 18.7031 6.6875 18.4297V20.2656C7.39062 20.5391 8.25 20.7734 9.1875 20.9297V19.0547ZM3.875 16.9063V18C3.875 18.2734 4.10938 18.9766 5.4375 19.7188V17.8828C4.85156 17.6094 4.30469 17.2969 3.875 16.9063ZM14.8125 20.9297C15.7109 20.7734 16.5703 20.5391 17.3125 20.2656V18.3906C16.5312 18.6641 15.6719 18.8984 14.8125 19.0547V20.9297ZM18.5625 19.6797C19.8516 18.9766 20.125 18.2734 20.125 18V16.9063C19.6562 17.2578 19.1484 17.6094 18.5625 17.8828V19.6797Z" fill="#17271F"/>
<path d="M16.9132 1.96774V2.64516C17.2236 2.69355 17.534 2.79032 17.8443 2.8871C18.2877 3.03226 18.5981 3.56452 18.4651 4.04839C18.3321 4.58065 17.8443 4.87097 17.3566 4.77419C16.8688 4.62903 16.4254 4.48387 15.982 4.48387C15.6273 4.48387 15.2726 4.58065 15.0509 4.72581C14.8292 4.87097 14.7405 5.01613 14.7405 5.20968C14.7405 5.25806 14.7848 5.35484 15.0065 5.5C15.2726 5.69355 15.6717 5.83871 16.2481 6.03226H16.2924C16.7802 6.17742 17.4009 6.41935 17.933 6.75806C18.5095 7.14516 18.9972 7.77419 18.9972 8.79032C19.0415 9.80645 18.5538 10.5323 17.933 10.9677C17.5783 11.1613 17.2236 11.3065 16.8688 11.4032V12.0323C16.8688 12.5645 16.4698 13 15.982 13C15.4943 13 15.0952 12.5645 15.0952 12.0323V11.3548C14.6518 11.2097 14.2528 11.0645 13.8537 10.9194C13.765 10.871 13.6763 10.871 13.5876 10.8226C13.1442 10.6774 12.8782 10.0968 13.0556 9.6129C13.1886 9.08065 13.6763 8.83871 14.1641 8.98387C14.2528 9.03226 14.3858 9.08065 14.4745 9.12903C15.0952 9.32258 15.5386 9.51613 16.0264 9.51613C16.4254 9.51613 16.7802 9.46774 17.0019 9.27419C17.1792 9.17742 17.2679 9.03226 17.2236 8.79032C17.2236 8.64516 17.2236 8.54839 17.0019 8.40323C16.6915 8.20968 16.2924 8.06452 15.7603 7.87097H15.6717C15.1839 7.67742 14.5631 7.48387 14.0754 7.19355C13.5433 6.80645 13.0112 6.17742 13.0112 5.20968C12.9669 4.19355 13.499 3.46774 14.1197 3.08065C14.4301 2.8871 14.7848 2.74194 15.1396 2.64516V1.96774C15.1396 1.43548 15.5386 1 16.0264 1C16.5141 1 16.9132 1.43548 16.9132 1.96774Z" fill="#FF4A3F"/>
</svg>
