<svg width="24" height="24" viewBox="0 0 24 24" fill="none" xmlns="http://www.w3.org/2000/svg">
<path fill-rule="evenodd" clip-rule="evenodd" d="M18.3591 2.80176C20.7341 4.21191 22.2185 6.73535 22.2185 9.48145C22.2185 11.0111 21.7701 12.4623 20.9719 13.6934C20.9904 13.9599 20.9998 14.2288 20.9998 14.5C20.9998 15.213 20.9349 15.9109 20.8107 16.5881C22.8128 14.8044 23.9998 12.2398 23.9998 9.48145C23.9998 6.10449 22.1814 2.9873 19.2498 1.28027C16.281 -0.426758 12.6814 -0.426758 9.74976 1.28027C8.84837 1.79858 8.05645 2.44688 7.39062 3.19298C8.07436 3.06625 8.77932 3 9.49976 3C9.76167 3 10.0215 3.00876 10.2791 3.02599C10.397 2.94843 10.5174 2.87365 10.6404 2.80176C13.0154 1.42871 15.947 1.42871 18.3591 2.80176Z" fill="#17271F"/>
<path d="M17.2188 14.4814C17.2188 11.7354 15.7344 9.21191 13.3594 7.80176C10.9473 6.42871 8.01562 6.42871 5.64062 7.80176C3.22852 9.21191 1.78125 11.7354 1.78125 14.4814C1.78125 17.2646 3.22852 19.7881 5.64062 21.1982C8.01562 22.5713 10.9473 22.5713 13.3594 21.1982C15.7344 19.7881 17.2188 17.2646 17.2188 14.4814ZM0 14.4814C0 11.1045 1.78125 7.9873 4.75 6.28027C7.68164 4.57324 11.2812 4.57324 14.25 6.28027C17.1816 7.9873 19 11.1045 19 14.4814C19 17.8955 17.1816 21.0127 14.25 22.7197C11.2812 24.4268 7.68164 24.4268 4.75 22.7197C1.78125 21.0127 0 17.8955 0 14.4814Z" fill="#17271F"/>
<path d="M10.4132 9.8871V10.5081C10.7236 10.5524 11.034 10.6411 11.3443 10.7298C11.7877 10.8629 12.0981 11.3508 11.9651 11.7944C11.8321 12.2823 11.3443 12.5484 10.8566 12.4597C10.3688 12.3266 9.92544 12.1935 9.48204 12.1935C9.12731 12.1935 8.77259 12.2823 8.55088 12.4153C8.32918 12.5484 8.2405 12.6815 8.2405 12.8589C8.2405 12.9032 8.28484 12.9919 8.50654 13.125C8.77259 13.3024 9.17165 13.4355 9.74808 13.6129H9.79242C10.2802 13.746 10.9009 13.9677 11.433 14.2782C12.0095 14.6331 12.4972 15.2097 12.4972 16.1411C12.5415 17.0726 12.0538 17.7379 11.433 18.1371C11.0783 18.3145 10.7236 18.4476 10.3688 18.5363V19.1129C10.3688 19.6008 9.96978 20 9.48204 20C8.99429 20 8.59522 19.6008 8.59522 19.1129V18.4919C8.15182 18.3589 7.75275 18.2258 7.35369 18.0927C7.26501 18.0484 7.17632 18.0484 7.08764 18.004C6.64424 17.871 6.37819 17.3387 6.55556 16.8952C6.68858 16.4073 7.17632 16.1855 7.66407 16.3185C7.75275 16.3629 7.88577 16.4073 7.97446 16.4516C8.59522 16.629 9.03863 16.8065 9.52638 16.8065C9.92544 16.8065 10.2802 16.7621 10.5019 16.5847C10.6792 16.496 10.7679 16.3629 10.7236 16.1411C10.7236 16.0081 10.7236 15.9194 10.5019 15.7863C10.1915 15.6089 9.79242 15.4758 9.26033 15.2984H9.17165C8.68391 15.121 8.06314 14.9435 7.57539 14.6774C7.0433 14.3226 6.51121 13.746 6.51121 12.8589C6.46687 11.9274 6.99896 11.2621 7.61973 10.9073C7.93011 10.7298 8.28484 10.5968 8.63956 10.5081V9.8871C8.63956 9.39919 9.03863 9 9.52638 9C10.0141 9 10.4132 9.39919 10.4132 9.8871Z" fill="#FF4A3F"/>
</svg>
