<svg width="24" height="24" viewBox="0 0 24 24" fill="none" xmlns="http://www.w3.org/2000/svg">
<path d="M20.9375 11.9785C20.9375 8.79883 19.2188 5.87695 16.4688 4.24414C13.6758 2.6543 10.2812 2.6543 7.53125 4.24414C4.73828 5.87695 3.0625 8.79883 3.0625 11.9785C3.0625 15.2012 4.73828 18.123 7.53125 19.7559C10.2812 21.3457 13.6758 21.3457 16.4688 19.7559C19.2188 18.123 20.9375 15.2012 20.9375 11.9785ZM1 11.9785C1 8.06836 3.0625 4.45898 6.5 2.48242C9.89453 0.505859 14.0625 0.505859 17.5 2.48242C20.8945 4.45898 23 8.06836 23 11.9785C23 15.9316 20.8945 19.541 17.5 21.5176C14.0625 23.4941 9.89453 23.4941 6.5 21.5176C3.0625 19.541 1 15.9316 1 11.9785Z" fill="#17271F"/>
<path d="M12.9132 6.96774V7.64516C13.2236 7.69355 13.534 7.79032 13.8443 7.8871C14.2877 8.03226 14.5981 8.56452 14.4651 9.04839C14.3321 9.58065 13.8443 9.87097 13.3566 9.77419C12.8688 9.62903 12.4254 9.48387 11.982 9.48387C11.6273 9.48387 11.2726 9.58065 11.0509 9.72581C10.8292 9.87097 10.7405 10.0161 10.7405 10.2097C10.7405 10.2581 10.7848 10.3548 11.0065 10.5C11.2726 10.6935 11.6717 10.8387 12.2481 11.0323H12.2924C12.7802 11.1774 13.4009 11.4194 13.933 11.7581C14.5095 12.1452 14.9972 12.7742 14.9972 13.7903C15.0415 14.8065 14.5538 15.5323 13.933 15.9677C13.5783 16.1613 13.2236 16.3065 12.8688 16.4032V17.0323C12.8688 17.5645 12.4698 18 11.982 18C11.4943 18 11.0952 17.5645 11.0952 17.0323V16.3548C10.6518 16.2097 10.2528 16.0645 9.85369 15.9194C9.76501 15.871 9.67632 15.871 9.58764 15.8226C9.14424 15.6774 8.87819 15.0968 9.05556 14.6129C9.18858 14.0806 9.67632 13.8387 10.1641 13.9839C10.2528 14.0323 10.3858 14.0806 10.4745 14.129C11.0952 14.3226 11.5386 14.5161 12.0264 14.5161C12.4254 14.5161 12.7802 14.4677 13.0019 14.2742C13.1792 14.1774 13.2679 14.0323 13.2236 13.7903C13.2236 13.6452 13.2236 13.5484 13.0019 13.4032C12.6915 13.2097 12.2924 13.0645 11.7603 12.871H11.6717C11.1839 12.6774 10.5631 12.4839 10.0754 12.1935C9.5433 11.8065 9.01121 11.1774 9.01121 10.2097C8.96687 9.19355 9.49896 8.46774 10.1197 8.08065C10.4301 7.8871 10.7848 7.74194 11.1396 7.64516V6.96774C11.1396 6.43548 11.5386 6 12.0264 6C12.5141 6 12.9132 6.43548 12.9132 6.96774Z" fill="#FF4A3F"/>
</svg>
