<svg width="24" height="24" viewBox="0 0 24 24" fill="none" xmlns="http://www.w3.org/2000/svg">
<path d="M8.11416 15.6723C7.80647 15.6723 7.49878 15.7877 7.26801 15.9416L4.1911 17.98C4.03725 18.0954 3.84494 18.1339 3.6911 18.1339H1.84495C1.30649 18.1339 0.921875 17.7492 0.921875 17.2108C0.921875 16.7108 1.30649 16.2877 1.84495 16.2877H3.38341L6.22955 14.4031C6.80647 14.0569 7.46032 13.8262 8.11416 13.8262H14.1526C15.4988 13.8262 16.6141 14.9416 16.6141 16.2877C16.6141 16.3262 16.6141 16.3646 16.6141 16.3646L19.0757 14.8262C19.4987 14.5954 19.9603 14.4416 20.4603 14.4416H20.7295C22.0372 14.4416 23.0757 15.48 23.0757 16.7877C23.0757 17.5569 22.6526 18.2877 21.9987 18.7108L18.3449 21.0954C17.5757 21.5954 16.6911 21.8646 15.8064 21.8646H1.84495C1.30649 21.8646 0.921875 21.4415 0.921875 20.9415C0.921875 20.4031 1.30649 20.0185 1.84495 20.0185H15.8064C16.3449 20.0185 16.8834 19.8646 17.3064 19.5569L20.9987 17.1723C21.1141 17.0954 21.2295 16.9415 21.2295 16.7877C21.2295 16.5185 20.9987 16.2877 20.7295 16.2877H20.4603C20.3064 16.2877 20.191 16.3262 20.0757 16.4031L16.4603 18.6339C16.3064 18.7108 16.1526 18.7492 15.9603 18.7492H14.1526H13.2295H10.768C10.2295 18.7492 9.84492 18.3646 9.84492 17.8262C9.84492 17.3262 10.2295 16.9031 10.768 16.9031H13.2295H14.1526C14.4603 16.9031 14.768 16.6339 14.768 16.2877C14.768 15.98 14.4603 15.6723 14.1526 15.6723H8.11416Z" fill="#17271F"/>
<path d="M12.8356 3.11707V3.68711C13.1206 3.72783 13.4056 3.80926 13.6906 3.8907C14.0978 4.01285 14.3828 4.46073 14.2607 4.8679C14.1385 5.31579 13.6906 5.56009 13.2427 5.47866C12.7949 5.35651 12.3877 5.23435 11.9805 5.23435C11.6548 5.23435 11.3291 5.31579 11.1255 5.43794C10.9219 5.56009 10.8404 5.68224 10.8404 5.84511C10.8404 5.88583 10.8812 5.96726 11.0847 6.08941C11.3291 6.25228 11.6955 6.37443 12.2248 6.5373H12.2655C12.7134 6.65945 13.2835 6.86303 13.7721 7.14805C14.3014 7.47379 14.7493 8.00311 14.7493 8.85816C14.79 9.71322 14.3421 10.324 13.7721 10.6904C13.4463 10.8533 13.1206 10.9754 12.7949 11.0569V11.5862C12.7949 12.0341 12.4284 12.4005 11.9805 12.4005C11.5326 12.4005 11.1662 12.0341 11.1662 11.5862V11.0162C10.759 10.894 10.3926 10.7719 10.0261 10.6497C9.94467 10.609 9.86324 10.609 9.78181 10.5683C9.37464 10.4461 9.13033 9.95752 9.2932 9.55035C9.41535 9.10247 9.86324 8.89888 10.3111 9.02103C10.3926 9.06175 10.5147 9.10247 10.5961 9.14318C11.1662 9.30605 11.5734 9.46892 12.0212 9.46892C12.3877 9.46892 12.7134 9.4282 12.917 9.26533C13.0799 9.1839 13.1613 9.06175 13.1206 8.85816C13.1206 8.73601 13.1206 8.65458 12.917 8.53243C12.632 8.36956 12.2655 8.24741 11.7769 8.08454H11.6955C11.2476 7.92167 10.6776 7.75881 10.2297 7.5145C9.74109 7.18877 9.25249 6.65945 9.25249 5.84511C9.21177 4.99005 9.70037 4.3793 10.2704 4.05356C10.5554 3.8907 10.8812 3.76854 11.2069 3.68711V3.11707C11.2069 2.66919 11.5734 2.30273 12.0212 2.30273C12.4691 2.30273 12.8356 2.66919 12.8356 3.11707Z" fill="#FF4A3F"/>
</svg>
