<svg width="25" height="24" viewBox="0 0 25 24" fill="none" xmlns="http://www.w3.org/2000/svg">
<path d="M13.1462 1.22592L24.1526 10.865C24.5695 11.2523 24.6112 11.8978 24.2776 12.3281C23.9024 12.7584 23.2771 12.8015 22.8602 12.4572L21.8596 11.5535V19.5575C21.8596 21.4939 20.3587 23 18.5243 23H6.51737C4.64129 23 3.18211 21.4939 3.18211 19.5575V11.5535L2.13984 12.4572C1.72293 12.8015 1.09757 12.7584 0.722351 12.3281C0.388825 11.8978 0.430515 11.2523 0.847423 10.865L11.8538 1.22592C12.229 0.924694 12.771 0.924694 13.1462 1.22592ZM19.8584 9.78924L12.5208 3.37751L5.18327 9.78924V19.5575C5.18327 20.332 5.76694 20.9345 6.51737 20.9345H18.5243C19.2331 20.9345 19.8584 20.332 19.8584 19.5575V9.78924Z" fill="#17271F"/>
<path d="M13.3546 8.85938V9.46094C13.6554 9.50391 13.9562 9.58984 14.257 9.67578C14.6866 9.80469 14.9874 10.2773 14.8585 10.707C14.7296 11.1797 14.257 11.4375 13.7843 11.3516C13.3116 11.2227 12.882 11.0938 12.4523 11.0938C12.1085 11.0938 11.7648 11.1797 11.5499 11.3086C11.3351 11.4375 11.2491 11.5664 11.2491 11.7383C11.2491 11.7812 11.2921 11.8672 11.507 11.9961C11.7648 12.168 12.1515 12.2969 12.7101 12.4688H12.7531C13.2257 12.5977 13.8273 12.8125 14.3429 13.1133C14.9015 13.457 15.3741 14.0156 15.3741 14.918C15.4171 15.8203 14.9445 16.4648 14.3429 16.8516C13.9991 17.0234 13.6554 17.1523 13.3116 17.2383V17.7969C13.3116 18.2695 12.9249 18.6562 12.4523 18.6562C11.9796 18.6562 11.5929 18.2695 11.5929 17.7969V17.1953C11.1632 17.0664 10.7765 16.9375 10.3898 16.8086C10.3038 16.7656 10.2179 16.7656 10.132 16.7227C9.70227 16.5938 9.44446 16.0781 9.61634 15.6484C9.74524 15.1758 10.2179 14.9609 10.6906 15.0898C10.7765 15.1328 10.9054 15.1758 10.9913 15.2188C11.5929 15.3906 12.0226 15.5625 12.4952 15.5625C12.882 15.5625 13.2257 15.5195 13.4406 15.3477C13.6124 15.2617 13.6984 15.1328 13.6554 14.918C13.6554 14.7891 13.6554 14.7031 13.4406 14.5742C13.1398 14.4023 12.7531 14.2734 12.2374 14.1016H12.1515C11.6788 13.9297 11.0773 13.7578 10.6046 13.5C10.089 13.1562 9.57337 12.5977 9.57337 11.7383C9.5304 10.8359 10.046 10.1914 10.6476 9.84766C10.9484 9.67578 11.2921 9.54688 11.6359 9.46094V8.85938C11.6359 8.38672 12.0226 8 12.4952 8C12.9679 8 13.3546 8.38672 13.3546 8.85938Z" fill="#FF4A3F"/>
</svg>
